<svg xmlns="http://www.w3.org/2000/svg" width="262" height="246" fill="none"><path fill="#FF7C00" d="M220.16 47.108c-3.725 4.048-3.294 9.072-2.478 14.135.941 5.88 3.878 11.636 7.547 16.274.505.646 1.401-.267.902-.902-3.278-4.15-5.937-9.282-7.009-14.487-.992-4.808-1.65-10.206 1.939-14.119.567-.606-.345-1.508-.901-.901zm-52.875 58.799a9.822 9.822 0 0 0 .975 4.043c.148.318.341.613.505.924.164.312.403.567.612.868a8.673 8.673 0 0 0 1.48 1.474 10.265 10.265 0 0 0 2.733 1.446c.53.194 1.072.353 1.622.476.272.057.567.114.833.153l.414.051h.726l.613.567.385.358.76.72 1.508 1.457c.994.979 1.979 1.968 2.954 2.966 1.242 1.281 2.501 2.557 3.709 3.861.776.839 1.553 1.701 2.268 2.614.36.467.69.958.986 1.468.326.538.565 1.124.709 1.736.079.425-.045.64-.221.635a1.658 1.658 0 0 1-.726-.358 8.255 8.255 0 0 1-2.121-1.979 61.853 61.853 0 0 0-4.383-5.103c-1.553-1.667-3.152-3.322-4.757-4.984a53.032 53.032 0 0 0-1.259-1.247l-.652-.607-.329-.3a.892.892 0 0 0-.107-.097h-.363c-.289 0-.437-.051-.658-.079a15.138 15.138 0 0 1-1.293-.255 12.238 12.238 0 0 1-2.483-.891 10.588 10.588 0 0 1-3.879-3.181 11.818 11.818 0 0 1-2.081-4.507 12.505 12.505 0 0 1-.26-3.045 13.88 13.88 0 0 1 .476-2.983 14.76 14.76 0 0 1 1.361-3.345l.164.726-.459-.34.334-.443a85.398 85.398 0 0 1 3.306-4.122c1.463-1.701 2.886-3.43 4.366-5.103.323-.369.63-.737.97-1.1 1.242-1.344 1.735-1.701 2.353-1.627.141 0 .281.013.419.04.392.135.103.89-.748 1.933-2.518 3.096-5.375 6.123-7.938 9.361-.431.567-.856 1.134-1.276 1.673l-.278-1.735.885.646-.528.959a12.3 12.3 0 0 0-1.587 6.276h-.04z"/><path fill="#FF7C00" d="M213.495 95.14a147.99 147.99 0 0 0-7.615 3.47c-.919.448-1.798.964-2.705 1.423-3.192 1.639-6.35 3.357-9.384 5.273a48.955 48.955 0 0 0-3.89 2.75c-1.593 1.253-3.067 2.631-4.61 3.896-.482.391-.771 0-.708-.687a4.034 4.034 0 0 1 1.417-2.54 56.896 56.896 0 0 1 10.569-7.076c2.268-1.185 4.497-2.552 6.805-3.737a142.715 142.715 0 0 1 7.705-3.668 150.185 150.185 0 0 1 4.837-2.042c2.455-.998 4.961-1.893 7.456-2.738 1.945-.658 3.845-1.338 5.846-1.832.437-.113.868-.227 1.321-.3a6.483 6.483 0 0 1 1.82-.13 1.187 1.187 0 0 1 .828.447c.093.099.175.207.244.323.074.182-.051.358-.334.51a6.5 6.5 0 0 1-1.299.392 86.698 86.698 0 0 0-10.461 3.187c-2.62.958-5.24 1.996-7.814 3.118l-.028-.04zm29.118-16.96c.129 1.268.15 2.545.062 3.816a10.61 10.61 0 0 1-.34 2.002 4.903 4.903 0 0 1-.425 1.049c-.102.184-.22.358-.352.522a3.233 3.233 0 0 1-.476.453 3.403 3.403 0 0 1-2.319.68 5.934 5.934 0 0 1-2.047-.567 15.584 15.584 0 0 1-3.215-2.12 30.656 30.656 0 0 1-3.85-3.822 49.405 49.405 0 0 1-5.466-7.723 43.867 43.867 0 0 1-3.85-8.664 30.826 30.826 0 0 1-1.021-4.105 29.168 29.168 0 0 1-.504-4.207c-.106-1.84.047-3.686.453-5.483a9.601 9.601 0 0 1 1.106-2.625 5.51 5.51 0 0 1 2.098-2.076 1.54 1.54 0 0 1 .663-.204c.154 0 .233.034.256.114.039.164-.176.436-.414.85a14.666 14.666 0 0 0-1.344 3.97 17.949 17.949 0 0 0-.471 2.386 20.28 20.28 0 0 0-.13 2.5c.018 1.714.193 3.422.521 5.104a48.91 48.91 0 0 0 1.265 5.046 41.038 41.038 0 0 0 1.922 4.928 45.11 45.11 0 0 0 7.456 10.648c.808.868 1.67 1.684 2.58 2.444a11.079 11.079 0 0 0 2.909 1.82c.472.194.981.281 1.491.256.221-.017.437-.077.635-.176.191-.099.362-.231.505-.391.295-.411.489-.885.567-1.384a9.406 9.406 0 0 0 .119-1.701 40.779 40.779 0 0 0-1.361-8.692 78.73 78.73 0 0 0-4.445-12.775 45.708 45.708 0 0 0-5.188-8.812c-.46-.567-.93-1.134-1.429-1.65a19.69 19.69 0 0 0-2.036-1.86 3.982 3.982 0 0 1-.913-.918c-.096-.148-.261-.278-.334-.414-.074-.136-.034-.199.085-.278.206-.1.435-.144.663-.125.389.017.773.1 1.134.244a6.7 6.7 0 0 1 1.355.766 17.515 17.515 0 0 1 3.465 3.572 37.895 37.895 0 0 1 2.699 4.14 67.625 67.625 0 0 1 4.196 9.02 74.009 74.009 0 0 1 2.268 7.077 56.082 56.082 0 0 1 1.502 7.37l-.045-.005zm-53.153 38.846c.318.46.629.925.975 1.367.119.164.278.301.403.465.431.567.862 1.168 1.332 1.701.205.247.427.48.664.697.335.246.621.552.845.902.062.125-.148.318-.42.454a.901.901 0 0 1-.822.062 6.822 6.822 0 0 1-1.764-1.86 11.277 11.277 0 0 0-1.043-1.185 42.503 42.503 0 0 1-1.083-1.361l-.641-.85c-.323-.431-.612-.89-.952-1.31a4.057 4.057 0 0 0-.425-.454c-.136-.153-.278-.306-.414-.465a2.186 2.186 0 0 1-.176-.209.524.524 0 0 1 .091-.687c.045-.051.085-.102.13-.147a.567.567 0 0 1 .646 0c.18.081.348.186.499.312.148.119.301.232.437.363.261.266.499.567.737.845.352.425.681.884 1.009 1.332l-.028.028zm-14.089-17.679a18.254 18.254 0 0 1-.663-2.835c-.051-.352-.131-.698-.165-1.055a14.59 14.59 0 0 1 .255-3.748c.029-.272.114-.567.159-.816.037-.273.088-.544.153-.811.085-.346.142-.698.244-1.044.123-.338.297-.655.516-.94.142-.177.567.067.89.419.323.351.635.805.511 1.134a31.265 31.265 0 0 0-.976 3.583c-.08.386-.101.782-.062 1.174l.045.595c0 .193.063.392.08.567.098.878.267 1.747.504 2.597.16.528.349 1.047.567 1.554.154.387.328.766.522 1.134.185.375.399.736.641 1.077.386.507.827.969 1.315 1.378l.312.267c.374.346.397.567.136.975-.053.101-.112.2-.176.295a.683.683 0 0 1-.969.136 8.378 8.378 0 0 1-2.637-2.898 16.714 16.714 0 0 1-1.225-2.71l.023-.028zm35.171-42.702a233.493 233.493 0 0 0-3.119 2.773c-.374.34-.714.72-1.094 1.06l-4.026 3.566c-.567.528-1.134 1.1-1.701 1.673a12.36 12.36 0 0 1-2.228 2.087c-.567.346-1.135-1.486-.329-2.268a51.412 51.412 0 0 1 4.661-4.111c.992-.766 1.865-1.735 2.801-2.603l3.118-2.835 1.934-1.74c.969-.885 1.967-1.741 2.914-2.643.732-.697 1.389-1.457 2.104-2.172.153-.158.295-.328.459-.482.624-.567.907-.629 1.35-.362.103.051.202.112.294.181.295.244.233.698-.153 1.134a43.248 43.248 0 0 1-3.855 3.93l-3.091 2.835-.039-.023z"/><path fill="#FF7C00" d="M228.629 58.67c-.969 1.604.221 4.178.902 5.67.533 1.133 1.791 3.968 3.521 3.328 1.939-.692.788-3.89.295-5.149-.567-1.52-1.639-4.32-3.459-4.768-1.134-.284-1.644 1.49-.493 1.774.901.221 1.701 2.33 2.007 3.074.281.634.508 1.29.68 1.962.03.37.091.739.182 1.1v.226c-.083.265.064.276.442.034 0-.158-.686-.833-.799-1.015a12.65 12.65 0 0 1-.947-1.882c-.312-.743-1.219-2.642-.743-3.43a.92.92 0 0 0-1.588-.93v.005zm-54.992 38.704a12.522 12.522 0 0 1-.255-1.701 4.353 4.353 0 0 1-.08-.613 8.492 8.492 0 0 1 .244-2.188c.063-.318.153-.641.227-.964a6.98 6.98 0 0 1 .216-.624c.098-.202.242-.378.419-.516.119-.085.369.164.567.454.199.289.414.567.329.72-.273.594-.495 1.21-.663 1.843a3.76 3.76 0 0 0 0 1.338c0 .25.051.499.068.754.017.255.079.504.124.754.046.25.131.618.233.918.126.463.303.91.527 1.333.191.31.421.595.686.845.051.056.114.102.165.164.193.204.17.323-.063.613-.056.068-.107.136-.164.198a.488.488 0 0 1-.669.108 4.292 4.292 0 0 1-1.401-1.832 10.803 10.803 0 0 1-.567-1.621l.057.017z"/><path fill="#FF7C00" d="M193.463 128.333c-.788.164-3.237 2.364-3.237 2.364s-10.966-13.767-13.37-14.47a55.591 55.591 0 0 1-5.478-2.041c-5.012-2.983-4.695-9.384-4.264-12.055.267-1.667 1.701-3.748 2.711-5.103.697-.947 3.107-2.875 3.912-2.875-2.387 3.691-4.389 7.717-3.164 11.868.675 2.268 3.776 5.766 6.634 5.727l16.256 16.585zm30.081-107.677c1.19 2.648.935 5.739.759 8.557-.113 1.825 2.722 1.82 2.835 0 .21-3.402.278-6.805-1.134-9.986-.748-1.66-3.192-.22-2.449 1.43h-.011zm22.676 25.04c2.194-1.798 4.876-2.898 7.49-3.935 1.701-.664.947-3.402-.754-2.733-3.101 1.23-6.135 2.534-8.743 4.66-1.412 1.135.601 3.153 2.007 2.008zm5.415 19.919c2.897-.102 5.738.919 8.238 2.314 1.594.89 3.028-1.56 1.429-2.444-2.92-1.633-6.282-2.835-9.667-2.705-1.815.068-1.826 2.903 0 2.835z"/><path fill="#1C1917" d="m1.636 102.675.119-7.807v-2.836l.181-10.041V77.54c-.028-.948 0-1.894 0-2.836 0-.476 0-.952.051-1.423.051-.47.114-.947.165-1.423.085-.595.192-.516.396 0 .103.244.233.567.375 1.026.08.227.15.458.204.692.046.257.076.516.09.777l.08 1.451.034.726v3.623c0 1.94-.074 3.879-.153 5.83-.102 2.335-.028 4.757-.045 7.144l-.12 7.847-.05 4.843c0 2.443-.057 4.899-.035 7.325 0 1.883.12 3.731.136 5.597v1.225c0 1.536-.096 2.024-.368 2.353a1.579 1.579 0 0 1-.182.221c-.192.147-.396-.476-.493-1.599-.13-1.667-.278-3.402-.323-5.103-.045-1.701-.08-3.493-.096-5.257v-7.875l.034-.029zm.317 94.805.102-11.453v-4.168l.159-14.697c0-2.177 0-4.36-.034-6.521v-4.162c0-.691 0-1.383.051-2.081l.164-2.08c.08-.862.188-.749.392 0 .102.362.232.884.38 1.508.068.317.153.658.204 1.015.05.357.073.748.09 1.134l.085 2.12.034 1.061v5.313c0 2.835-.047 5.67-.141 8.505-.091 3.402 0 6.963 0 10.456 0 3.833-.017 7.671-.051 11.516 0 2.359-.015 4.721-.046 7.088 0 3.572-.045 7.167 0 10.722 0 2.755.13 5.46.153 8.193v1.792c0 2.268-.096 2.96-.368 3.447a1.982 1.982 0 0 1-.176.318c-.193.221-.397-.692-.499-2.336-.13-2.438-.283-4.945-.329-7.485a840.55 840.55 0 0 1-.113-7.7c0-3.84-.013-7.687-.04-11.539l-.017.034zM54.547 24.036a4.889 4.889 0 0 1-1.202 1.814c-.17.182-.596.13-.618-.153a5.274 5.274 0 0 1 .085-1.7c.328-1.01.804-1.966 1.412-2.836a23.298 23.298 0 0 1 2.59-3.164 48.063 48.063 0 0 1 3.573-3.226 45.103 45.103 0 0 1 3.969-3.045 24.203 24.203 0 0 1 2.2-1.344c.805-.44 1.65-.803 2.523-1.083a5.602 5.602 0 0 1 2.915-.147c.235.059.466.133.692.22l.566.267a5.7 5.7 0 0 1 1.044.726 4.774 4.774 0 0 1 1.468 2.234c.242.836.273 1.718.091 2.569a5.981 5.981 0 0 1-.97 2.268l-.266.34-.227.267a3.69 3.69 0 0 0-.408.567c-.32.407-.675.787-1.06 1.134-.29.266-.63.567-.987.856-.357.289-.754.567-1.134.89a26.463 26.463 0 0 1-3.73 2.302 38.275 38.275 0 0 1-6.34 2.24c-.303.108-.62.167-.941.175a7.072 7.072 0 0 0-2.053.239c-.47.085-.953.13-1.423.187-.47.056-.981.062-1.435.062a6.704 6.704 0 0 1-1.417-.255c-.414-.096-.188-.46-.046-.505.409-.136.068-.294.034-.442a.227.227 0 0 1 0-.159c0-.05 1.293-.3 2.569-.708a24.23 24.23 0 0 0 1.797-.664c.51-.221.902-.368 1.032-.408.029 0 .494-.147 1.168-.397l1.134-.448 1.31-.567 1.316-.64 1.185-.619a40.432 40.432 0 0 0 1.412-.822 9.026 9.026 0 0 1 1.168-.567c.865-.575 1.696-1.2 2.489-1.871a24.338 24.338 0 0 0 1.497-1.378c.391-.391.652-.692.624-.686.247-.285.425-.622.521-.987.086-.337.138-.683.153-1.032a.567.567 0 0 0-.119-.357 1.842 1.842 0 0 0-.64-.607 3.29 3.29 0 0 0-.488-.26c-.097-.051-.12 0-.182-.051a.41.41 0 0 0-.181-.046 5.562 5.562 0 0 0-2.455.567 17.57 17.57 0 0 0-2.739 1.531c-.164.108-.346.187-.51.284-.165.096-.431.243-.635.385a65.42 65.42 0 0 0-3.08 2.365c-1.02.833-2.069 1.667-2.993 2.563-.221.198-.879.742-1.537 1.292-.525.43-1.009.91-1.446 1.43-.238.26-1.179 1.071-1.275 1.4z"/><path fill="#1C1917" d="M49.09 18.45c-.38.058-.647-.294-.812-.725a.628.628 0 0 1 .148-.567c.204-.085.402-.181.567-.25.062-.04.533-.079 1.049-.232.516-.153 1.054-.38 1.326-.448.522-.187 1.05-.318 1.571-.476a14.133 14.133 0 0 0 1.57-.567 18.012 18.012 0 0 0 1.532-.732 4.06 4.06 0 0 1 .703-.289 6.044 6.044 0 0 0 2.228-1.372.663.663 0 0 0 .278-.352c.287-.377.606-.73.953-1.054.436-.465.839-.964.958-1.055a8.092 8.092 0 0 0 1.497-1.622c.068-.085.08-.192.227-.232.351-.102.38-.335.482-.567.121-.3.26-.594.414-.879.062-.153.272-.295.402-.46a.249.249 0 0 1 .369 0c.079.165.215.035.317 0a.256.256 0 0 1 .114 0c.087.12.163.247.226.38.093.29.163.586.21.885a5.787 5.787 0 0 1 0 1.503s-.05.25-.17.567c-.062.159-.142.346-.221.567-.08.221-.193.397-.29.607a19.644 19.644 0 0 1-1.065 1.78c-.12.165-.27.305-.443.414-.04.034-.459.567-.924 1.134a12.63 12.63 0 0 1-1.009 1.043 3.66 3.66 0 0 1-1.418.873.68.68 0 0 0-.283.165c-.78.535-1.62.973-2.506 1.304-.448.187-.88.403-1.327.567-.088.02-.177.031-.267.034a1.522 1.522 0 0 0-.329.057 21.133 21.133 0 0 1-3.402.691c-.12.012-.242.012-.362 0a2.138 2.138 0 0 1-.567-.09c-.392-.085-.783-.187-.93-.204-.148-.017-.698-.414-.817-.397z"/><path fill="#FF7C00" d="M232.922 64.345c-.539-1.23-.811-2.557-1.327-3.805a1.092 1.092 0 0 0-1.304-.737 1.059 1.059 0 0 0-.743 1.304c.567 1.418.918 2.91 1.536 4.315.567 1.248 2.382.17 1.838-1.077z"/><path fill="#1C1917" d="M183.591 88.052c-.465 1.134-.221 5.965-1.917 6.005a.638.638 0 0 0-.58.638.638.638 0 0 0 .58.637c3.102-.073 2.37-5.012 3.147-6.94.312-.76-.924-1.094-1.23-.34z"/><path fill="#1C1917" d="M183.963 89.634c1.134 1.56 3.55 2.739 4.78.533 1.004-1.786.38-4.077 1.214-5.903.34-.742-.76-1.389-1.1-.646-.522 1.134-.567 2.46-.72 3.686a7.86 7.86 0 0 1-.392 1.984c-.629 1.48-1.996.63-2.682-.295-.482-.657-1.587 0-1.1.64z"/><path fill="#1C1917" d="M188.854 83.289c.868 1.35 1.826 4.28 3.97 3.402 1.854-.754 2.234-3.481 2.506-5.194.13-.805-1.1-1.134-1.231-.34-.204 1.281-.385 3.204-1.406 4.117-1.242 1.133-2.24-1.843-2.75-2.626-.442-.686-1.548-.05-1.1.64h.011zm-14.403 103.503a1.834 1.834 0 0 0 2.189-.567c1.009-1.162 3.572-8.256 4.768-9.639 1.361-1.542 9.283 2.943 12.276 1.355 2.229-1.179-13.472-6.01-13.472-6.01l-5.761 14.861zm-7.008 57.983s5.977.686 7.848-.862c1.871-1.548 4.026-3.192 4.026-3.192s9.82.476 9.82 2.115c0 2.16-15.61 3.374-21.694 1.939z"/><path fill="#1C1917" d="M162.353 244.531a62.225 62.225 0 0 1-1.735-.311 62.563 62.563 0 0 1-1.73-.375c-.419-.09-.844-.141-1.258-.266a33.99 33.99 0 0 1-4.298-1.508c-.613-.295-1.259-.494-1.866-.783-.391-.176-.811-.312-1.191-.516a5.42 5.42 0 0 1-1.077-.737c-.397-.363 1.06-1.372 1.826-.941 1.434.748 2.909 1.434 4.445 2.149.473.196.958.361 1.452.493.505.125 1.021.227 1.519.357l1.673.374c.567.108 1.134.227 1.701.318.703.113 1.401.227 2.104.306 1.066.131 2.143.244 3.215.284.833 0 1.656-.051 2.489-.085.181 0 .363-.029.567-.029.686 0 .907.148 1.015.596.033.102.057.206.074.311.034.346-.267.607-.754.675a22.612 22.612 0 0 1-4.616.102 52.696 52.696 0 0 1-3.527-.368l-.028-.046zm28.61-67.951a54.569 54.569 0 0 1-3.056-1.055c-.363-.136-.749-.232-1.134-.385a40.67 40.67 0 0 1-3.759-1.792c-.533-.317-1.101-.567-1.628-.901l-.527-.301c-.17-.108-.34-.232-.505-.352a3.149 3.149 0 0 1-.47-.408 4.728 4.728 0 0 1-.392-.51c-.153-.227.165-.403.567-.476.2-.042.404-.055.607-.04.091.009.181.03.267.062a.9.9 0 0 1 .266.125 35.708 35.708 0 0 0 3.799 2.381c.85.437 1.734.805 2.642 1.101.987.374 1.985.731 2.994 1.048.624.199 1.248.392 1.877.568.95.269 1.913.486 2.886.652.376.06.754.098 1.134.113.374 0 .749.034 1.134.034h.488c.601 0 .782.102.913.476.034.081.062.165.085.25.062.283-.199.504-.681.567-1.453.12-2.916.014-4.337-.312a42.842 42.842 0 0 1-3.17-.8v-.045zm-77.319-24.994a19.07 19.07 0 0 0-4.27-2.313 14.748 14.748 0 0 0-1.701-.567l-1.519-.448c-.516-.119-1.038-.216-1.56-.329a29.422 29.422 0 0 0-3.169-.459 26.305 26.305 0 0 0-2.835-.068c-.607 0-1.214.068-1.82.102a14.26 14.26 0 0 1-1.826 0c-.766-.051.096-1.412 1.542-1.492a29.742 29.742 0 0 1 7.655.511c.754.187 1.531.317 2.307.47.777.153 1.548.38 2.302.613a22.262 22.262 0 0 1 4.724 2.239l.68.426.641.482c.436.31.854.645 1.253 1.003l.907.811.839.873c.284.284.567.567.806.896.238.329.527.601.776.913.777.958 1.571 1.883 2.297 2.835.164.216.329.42.487.641.567.811.669 1.134.488 1.508a2.183 2.183 0 0 1-.13.255c-.182.233-.567 0-1.072-.533-1.395-1.661-2.682-3.487-4.168-5.103a22.518 22.518 0 0 0-3.634-3.255v-.011zM77.63 98.706a1.366 1.366 0 0 1-.71-.958c-.045-.148.108-.425.244-.408.272.034.567.068.834.13.5.217.98.483 1.428.794a7.369 7.369 0 0 1 1.668 1.65c.553.846.866 1.825.907 2.835a8.775 8.775 0 0 1-1.701 5.528 5.23 5.23 0 0 1-.873.936 13.125 13.125 0 0 1-3.709 2.308 2.834 2.834 0 0 0-.697.283 4.032 4.032 0 0 1-.862.244c-.227 0-.488.057-.76.079-.272.023-.567 0-.867 0l-.862-.124a17.136 17.136 0 0 1-.76-.21 7.717 7.717 0 0 1-.89-.374 9.734 9.734 0 0 1-.822-.567c-.256-.199-.465-.358-.704-.567-.5-.42-.941-.907-1.31-1.446a1.238 1.238 0 0 1-.266-.494 4.54 4.54 0 0 0-.38-1.134 3.966 3.966 0 0 1-.238-1.57c.027-.258.092-.51.193-.749.074-.221.334-.096.368-.028.091.204.21.034.318 0a.396.396 0 0 1 .119 0c.14.408.317.802.527 1.179.23.37.5.712.805 1.021.106.131.222.255.346.369.277.254.581.476.908.663.55.356 1.15.627 1.78.805.176.048.345.116.505.204.423.064.853.064 1.276 0 .282-.038.56-.099.833-.181.227-.091.386-.148.408-.153.482-.153.896-.431 1.435-.567a.604.604 0 0 0 .272-.17 9.272 9.272 0 0 0 1.928-2.008 6.57 6.57 0 0 0 .624-1.281c.034-.08.085-.153.124-.227a1.85 1.85 0 0 0 .13-.3c.132-.533.2-1.079.205-1.628a3.79 3.79 0 0 0-.403-1.542c-.056-.102-.136-.459-.312-.805a2.811 2.811 0 0 0-.277-.482 1.239 1.239 0 0 0-.239-.3 2.049 2.049 0 0 1-.26-.415 1.136 1.136 0 0 0-.284-.34zM59.036 81.894s2.052-4.36 7.938-1.27c5.885 3.09 10.54 5.358 11.731 3.062 1.191-2.296-4.008-11.204-4.15-16.086-.142-4.882 1.134-15.69 11.397-18.145 0 0 37.349 11.063 47.799 0 0 0 19.052-12.831 4.009-32.626 0 0-11.828-14.782-37.1-1.134 0 0-14.38 9.27-19.437 17.867 0 0-2.631 4.167-5.205 5.216-2.195.896-11.67-4.859-20.282-.567 0 0-11.284 8.415-11.097 17.544.187 9.129 6.475 20.945 14.397 26.14z"/><path fill="#1C1917" d="M110.906 119.918c3.024.4 6.099.127 9.005-.799a17.189 17.189 0 0 0 7.581-4.78 16.474 16.474 0 0 0 3.232-5.716c1.275-3.725 1.434-7.836 1.19-11.879a119.24 119.24 0 0 0-1.582-12.202c-.618-3.6-1.344-7.218-1.967-10.819-.397-2.313-.777-4.638-1.032-6.985-.119-1.174-.244-2.359-.261-3.555-.017-1.197 0-2.325-.119-3.402-.068-.675 0-.981.176-1.015.175-.035.567.238.879.833.417.803.71 1.666.867 2.557.113.533.199 1.134.284 1.701.085.567.187 1.214.238 1.866.896 9.35 3.305 18.638 4.156 28.35.295 2.968.359 5.954.193 8.931a30.188 30.188 0 0 1-.681 4.536 21.744 21.744 0 0 1-1.57 4.349 17.419 17.419 0 0 1-6.935 7.286 21.544 21.544 0 0 1-9.565 2.836 22.745 22.745 0 0 1-6.136-.482c-1-.217-1.984-.507-2.942-.868l-1.429-.505c-.477-.181-.936-.391-1.401-.567a47.986 47.986 0 0 1-8.046-4.371 62.735 62.735 0 0 1-7.184-5.597 63.99 63.99 0 0 1-9.356-10.348c-.618-.822-1.134-1.667-1.7-2.546-1.997-3.294-2.314-4.536-2.206-5.471.01-.215.042-.428.096-.635.108-.244.403-.051.834.493.43.544.952 1.474 1.7 2.625a63.754 63.754 0 0 0 16.779 18.349 49.252 49.252 0 0 0 8.097 4.87c.348.183.706.348 1.071.494l1.089.465c.714.329 1.463.567 2.2.833l1.134.391 1.1.307 1.134.243c.374.074.754.119 1.134.176l-.057.051z"/><path fill="#1C1917" d="M143.334 40.774a22.512 22.512 0 0 1-6.396 7.853l-2.041 1.48-2.16 1.276c-.368.21-.746.4-1.134.567l-1.134.533c-.38.17-.743.369-1.135.522l-1.179.453a35.07 35.07 0 0 1-9.77 1.81 61.712 61.712 0 0 1-9.82-.336 110.432 110.432 0 0 1-13.994-2.506c-2.025-.493-4.037-1.032-6.028-1.542-.499-.125-.998-.25-1.474-.352-.25-.056-.47-.09-.692-.13-.119 0-.124-.028-.25.04l-1.343.635-.68.323c-.227.113-.431.25-.647.374l-1.287.766c-.42.266-.8.567-1.202.867l-.601.443-.539.498-.567.5a4.534 4.534 0 0 0-.516.521 12.985 12.985 0 0 0-2.965 4.962 13.404 13.404 0 0 0-.488 5.772c.122.974.343 1.933.658 2.863.329.953.697 1.911 1.077 2.87.766 1.91 1.582 3.81 2.387 5.72l.601 1.446a8.46 8.46 0 0 1 .516 1.605 3.97 3.97 0 0 1 0 1.865 2.91 2.91 0 0 1-1.134 1.65 5.449 5.449 0 0 1-3.033.8 11.6 11.6 0 0 1-2.909-.34 10.2 10.2 0 0 1-1.418-.437 6.181 6.181 0 0 1-.708-.34c-.272-.164-.437-.284-.624-.408a20.062 20.062 0 0 0-2.268-1.384 10.88 10.88 0 0 0-4.927-1.372 4.995 4.995 0 0 0-4.145 2.07 7.88 7.88 0 0 0-1.083 6.146 9.452 9.452 0 0 0 3.322 5.427 10.66 10.66 0 0 0 6.045 2.205 19.909 19.909 0 0 0 6.674-.822c1.366-.386 1.99-.505 2.024-.295.034.21-.533.703-1.662 1.299a15.38 15.38 0 0 1-5.052 1.644 13.531 13.531 0 0 1-3.697.051 11.306 11.306 0 0 1-4.088-1.321c-4.808-2.625-7.269-8.84-5.069-14.08a7.133 7.133 0 0 1 6.974-4.365 11.8 11.8 0 0 1 3.936.884 19.035 19.035 0 0 1 3.402 1.792c.266.165.516.352.782.527l.193.136.147.103.25.136c.46.21.941.373 1.434.487a9.152 9.152 0 0 0 3.108.25c.416-.035.82-.159 1.185-.363a.971.971 0 0 0 .465-.64 2.865 2.865 0 0 0-.103-1.214 16.43 16.43 0 0 0-.567-1.548c-.912-2.2-1.865-4.423-2.75-6.685-.442-1.134-.878-2.268-1.253-3.487a16.44 16.44 0 0 1-.629-3.805 14.584 14.584 0 0 1 .482-4.61c.197-.757.45-1.498.76-2.217.328-.708.707-1.393 1.134-2.047a19.45 19.45 0 0 1 6.832-6.163c.658-.39 1.338-.74 2.036-1.05l.516-.249.266-.13c.128-.074.268-.122.414-.142.15-.032.301-.053.454-.062h.425c.199.034.414.062.601.102 1.514.317 2.926.708 4.372 1.066 2.863.725 5.732 1.412 8.602 1.984 6.305 1.253 12.746 2.064 19.108 1.6a39.768 39.768 0 0 0 4.712-.67 27.677 27.677 0 0 0 4.536-1.383 30.146 30.146 0 0 0 8.057-4.91l1.078-.97.964-1.078.487-.567c.159-.181.284-.391.425-.567l.84-1.173a18.487 18.487 0 0 0 2.268-5.274l.193-.697c.051-.233.079-.476.119-.709l.226-1.429.063-1.451.034-.72-.023-.675-.113-1.452-.227-1.44-.113-.715-.182-.68-.357-1.417c-.227-.698-.482-1.395-.72-2.093-.238-.697-.596-1.36-.885-2.041a7.857 7.857 0 0 0-.504-.97l-.539-.947-.647-.878a6.877 6.877 0 0 0-.686-.845 19.032 19.032 0 0 0-7.195-4.922 30.528 30.528 0 0 0-17.453-1.338 41.23 41.23 0 0 0-6.583 1.94l-1.576.663-.788.328-.771.375-1.531.754c-.511.255-.998.567-1.497.822a61.746 61.746 0 0 0-11.046 7.95c-.737.686-1.48 1.343-2.189 2.04l-2.12 2.133c-.64.686-1.23 1.31-1.775 1.882-.544.573-.998 1.134-1.44 1.605-.885.964-1.56 1.775-2.15 2.421a17.26 17.26 0 0 1-2.596 2.495c-.298.234-.61.45-.936.646-.385.17-.175-.414.567-1.61.363-.567.834-1.36 1.475-2.217.64-.856 1.372-1.877 2.268-2.937 5.33-6.39 11.845-12.265 19.573-16.478.947-.567 1.968-.986 2.954-1.48.987-.493 2.042-.867 3.062-1.304 1.021-.436 2.098-.754 3.17-1.06 1.071-.306 2.149-.635 3.254-.822a31.121 31.121 0 0 1 6.737-.788c2.281-.034 4.56.156 6.804.567l1.242.277.618.142.612.176 1.225.363c.402.13.799.295 1.202.436.811.278 1.576.675 2.359 1.032.385.182.754.42 1.134.624.389.205.768.43 1.134.675l.992.76c.357.25.669.567 1.009.839a18.585 18.585 0 0 1 1.866 1.848c.3.324.538.698.811 1.05.272.345.52.708.742 1.088l.658 1.134c.221.38.357.771.539 1.134a27.6 27.6 0 0 1 2.546 9.917 21.159 21.159 0 0 1-1.889 10.11h-.045z"/><path fill="#1C1917" d="M43.45 57.008a21.024 21.024 0 0 1 2.868-11.16c.335-.623.749-1.19 1.134-1.79a20.56 20.56 0 0 1 1.304-1.65 18.57 18.57 0 0 1 12.928-6.493 30.364 30.364 0 0 1 6.464.193c2.721.32 5.38 1.039 7.893 2.132.777.351.477.782-.351 1.003-1.2.25-2.443.2-3.618-.147a33.604 33.604 0 0 0-7.74-1.276 20.935 20.935 0 0 0-7.643 1.089c-.363.136-.715.306-1.072.459-.181.085-.363.159-.538.25l-.51.3c-.335.21-.687.397-1.016.63l-.947.736c-.32.246-.621.515-.901.806-.284.283-.567.567-.862.844l-.805.919c-.267.312-.5.64-.754.958a18.91 18.91 0 0 0-3.828 9.81 22.197 22.197 0 0 0 .414 6.611 31.722 31.722 0 0 0 3.692 9.435 38.945 38.945 0 0 0 4.677 6.237l1.169 1.236c1.468 1.543 1.882 2.076 1.854 2.784a2.12 2.12 0 0 1-.029.471c-.113.437-1.015.09-2.234-.998a37.283 37.283 0 0 1-8.85-12.123 29.44 29.44 0 0 1-2.762-11.255l.062-.011zm38.109 50.901a8.762 8.762 0 0 1-2.15 2.722 9.87 9.87 0 0 1-2.982 1.633 9.749 9.749 0 0 1-2.404.521 8.2 8.2 0 0 1-2.171-.147 7.41 7.41 0 0 1-2.064-.715 7.162 7.162 0 0 1-1.758-1.264 8.148 8.148 0 0 1-1.355-1.633 8.464 8.464 0 0 1-1.299-3.527 7.23 7.23 0 0 1 .09-2.444 5.074 5.074 0 0 1 1.084-2.189c.34-.396.686 0 .896.568.242.612.303 1.281.176 1.927-.675 2.268.346 4.888 2.375 6.527 1.214.964 2.994 1.134 4.599.867a7.182 7.182 0 0 0 4.587-2.682 7.57 7.57 0 0 0 1.344-3.118 7.898 7.898 0 0 0 .04-2.609 6.48 6.48 0 0 0-.913-2.41 6.238 6.238 0 0 0-3.085-2.336c-.278-.09-.539-.181-.822-.255-1.032-.3-1.355-.442-1.514-1.009a2.07 2.07 0 0 1-.108-.385c-.062-.409.482-.698 1.435-.568a8.063 8.063 0 0 1 4.088 1.702 7.938 7.938 0 0 1 2.608 3.969 9.532 9.532 0 0 1-.652 6.861l-.045-.006zm29.052 26.321c2.421.289 4.871.493 7.371 1.009.984.154 1.939.452 2.836.885.221.117.431.254.629.408l.306.249c.097.102.193.216.284.323.317.401.554.859.697 1.35.242.84.362 1.711.357 2.586a41.453 41.453 0 0 1-.317 4.814 51.681 51.681 0 0 0-.272 4.15 39.21 39.21 0 0 0 .311 5.103c.074.499-.419.624-1.026.278a3.018 3.018 0 0 1-1.349-2.33c-.25-3.884.499-7.485.793-11.006a7.822 7.822 0 0 0-.26-2.994 2.577 2.577 0 0 0-.267-.567.771.771 0 0 0-.164-.204.662.662 0 0 0-.193-.176 4.222 4.222 0 0 0-1.23-.601 19.467 19.467 0 0 0-3.442-.737c-1.202-.176-2.421-.306-3.646-.437-1.508-.164-3.028-.329-4.536-.51a61.335 61.335 0 0 1-6.861-1.213 26.744 26.744 0 0 1-5.177-1.628 9.29 9.29 0 0 1-1.089-.567c-1.32-.799-1.593-1.287-1.485-1.877a1.69 1.69 0 0 1 .085-.396c.085-.193.3-.256.567-.21a4.3 4.3 0 0 1 1.083.448 29.343 29.343 0 0 0 8.76 2.835c2.348.431 4.769.72 7.218.958l.017.057zM63.1 193.353l2.67-7.083c.948-2.336 1.866-4.683 2.836-7.014l2.092-5.103c2.586-5.936 5.307-11.811 8.006-17.679a250.487 250.487 0 0 0 3.43-7.865c1.362-3.402 2.694-6.804 3.907-10.166.403-1.044.851-.783 1.032.283a8.323 8.323 0 0 1 0 2.132 11.893 11.893 0 0 1-.708 2.835 53.975 53.975 0 0 1-1.038 2.631l-1.089 2.608c-.754 1.702-1.502 3.431-2.268 5.132a476.654 476.654 0 0 1-4.802 10.172c-1.95 4.054-3.731 8.381-5.495 12.622l-1.485 3.499-1.407 3.515-1.4 3.521-1.327 3.55c-1.134 2.897-2.104 5.851-3.113 8.788-1.451 4.474-2.835 8.993-3.969 13.529-.227.879-.46 1.753-.652 2.631l-.527 2.643c-.335 1.757-.703 3.504-1.01 5.273-.124.777-.22 1.542-.357 2.33-.487 2.904-.788 3.805-1.417 4.344-.13.134-.275.254-.431.357-.454.221-.567-1.026-.295-3.192.204-1.605.42-3.232.669-4.877.25-1.644.64-3.266.98-4.921.171-.823.347-1.656.523-2.484.175-.828.413-1.65.623-2.478.431-1.644.862-3.305 1.293-4.961.715-2.444 1.474-4.876 2.217-7.315l2.45-7.246.062-.011zm72.193-10.451a457.146 457.146 0 0 1-4.167-6.35c-1.378-2.144-2.643-4.344-3.93-6.504-.947-1.576-1.939-3.107-2.931-4.627a48.48 48.48 0 0 0-5.88-7.53 44.853 44.853 0 0 0-3.436-3.305 27.734 27.734 0 0 0-3.867-2.711 24.724 24.724 0 0 0-7.887-2.704c-3.544-.613-7.173-.567-10.774-.528-1.134 0-1.032-.521-.09-1.066a8.57 8.57 0 0 1 1.99-.777 12.91 12.91 0 0 1 2.926-.317c3.907.028 7.779.73 11.448 2.075a26.763 26.763 0 0 1 5.205 2.784 30.117 30.117 0 0 1 4.428 3.811c.811.827 1.594 1.701 2.382 2.523.788.822 1.57 1.763 2.296 2.699a62.266 62.266 0 0 1 4.049 5.772c1.36 2.166 2.636 4.366 3.969 6.538a214.86 214.86 0 0 0 4.088 6.39c1.701 2.608 3.464 5.2 5.256 7.757 2.705 3.873 5.483 7.728 8.415 11.385 2.268 2.836 4.678 5.501 7.138 8.114l1.639 1.702c2.036 2.137 2.625 2.869 2.693 3.702.034.187.05.377.046.567-.085.488-1.185-.13-2.796-1.627-4.757-4.463-9.168-9.747-13.325-15.225-3.078-4.065-6.01-8.267-8.879-12.474l-.006-.074zm48.917-23.287c-.828 4.423-1.945 8.749-3.187 13.041l-.669 2.354c-.226.782-.47 1.559-.72 2.33a147.07 147.07 0 0 1-6.299 16.013c-.567 1.134-1.049 2.324-1.639 3.458l-.85 1.701-.42.857-.442.833c-.788 1.423-1.526 2.886-2.45 4.241-.459.686-.867 1.395-1.383 2.036a56.207 56.207 0 0 1-1.588 1.894c-.68.771-.975.317-.839-.664.1-.615.279-1.216.533-1.786.142-.334.323-.674.516-1.043.19-.391.404-.77.641-1.134l1.309-2.019 1.202-2.109.607-1.049c.204-.351.374-.72.567-1.077l1.134-2.161c.743-1.451 1.412-2.942 2.138-4.411.726-1.469 1.355-2.988 2.007-4.508a117.913 117.913 0 0 0 3.998-11.408c1.292-4.253 2.466-8.551 3.402-12.888l.414-2.008.357-2.018a31.07 31.07 0 0 0 .306-2.013c.074-.669.187-1.35.232-2.024a22.51 22.51 0 0 0 .085-3.028 40.866 40.866 0 0 0-.328-3.062c-.284-2.047-.652-4.088-1.004-6.135-.136-.8-.272-1.588-.386-2.399-.062-.397-.085-.845-.113-1.264-.004-.43.021-.86.074-1.287a8.752 8.752 0 0 1 .68-2.484c.335-.778.753-1.518 1.248-2.206.411-.593.858-1.161 1.338-1.701 1.826-1.973 2.534-2.398 3.288-2.438.172-.019.345-.019.516 0 .477.108-.068 1.134-1.326 2.529-1.838 2.087-3.618 4.309-3.828 6.804a7.503 7.503 0 0 0-.034.936c.034.323 0 .607.085.975.097.698.216 1.423.34 2.155l.766 4.434c.181 1.134.357 2.228.488 3.402.068.567.124 1.134.158 1.746.04.601.04 1.203 0 1.804l-.107 1.752-.21 1.701c-.119 1.134-.346 2.268-.522 3.402l-.085-.074z"/><path fill="#1C1917" d="M187.404 230.821a58.854 58.854 0 0 1-6.3 8.749 26.796 26.796 0 0 1-4.116 3.703 12.229 12.229 0 0 1-5.495 1.701c-2.648.24-5.317.133-7.938-.318a56.502 56.502 0 0 1-13.178-4.094 84.375 84.375 0 0 1-12.032-6.571 119.699 119.699 0 0 1-9.803-7.15 89.923 89.923 0 0 1-11.29-10.609c-1.06-1.208-.533-1.395.755-.754.845.445 1.651.961 2.409 1.542a32.251 32.251 0 0 1 3.04 2.557c7.518 7.105 15.808 13.438 25.113 18.145a55.699 55.699 0 0 0 8.783 3.526 45.217 45.217 0 0 0 9.322 1.86c1.698.158 3.409.135 5.103-.068a13.032 13.032 0 0 0 2.426-.567c.38-.126.749-.28 1.106-.459l.499-.295c.17-.113.335-.255.505-.374a23.402 23.402 0 0 0 3.731-3.538l.845-.993c.272-.334.533-.691.799-1.032.567-.686 1.038-1.411 1.542-2.126a94.975 94.975 0 0 0 6.521-11.25 179.96 179.96 0 0 0 7.785-18.144c1.747-4.791 3.215-9.571 4.536-14.414.295-1.066.567-2.115.828-3.192 1.032-4.003 1.316-5.228 1.968-6.022a4.3 4.3 0 0 1 .419-.567c.216-.192.38.148.431.953a16.739 16.739 0 0 1-.38 3.521 127.389 127.389 0 0 1-3.629 13.467 197.654 197.654 0 0 1-4.899 13.461 145.856 145.856 0 0 1-9.355 19.352h-.051zm19.073-95.735a.193.193 0 0 0 .04-.108c0-.034.034-.04 0-.125 0-.163-.014-.326-.04-.487a7.02 7.02 0 0 0-.249-1.032 5.377 5.377 0 0 0-.329-.652 2.164 2.164 0 0 0-.267-.42.355.355 0 0 0-.215-.147.437.437 0 0 0-.153 0c-.088.02-.173.049-.255.085-.2.094-.39.208-.567.34-.347.264-.66.571-.93.913a4.592 4.592 0 0 1-1.265 1.281c-.187.102-.436-.255-.612-.663-.176-.408-.295-.862-.08-1.106.408-.468.849-.906 1.322-1.31.265-.222.547-.423.844-.601.35-.213.733-.365 1.134-.448a2.05 2.05 0 0 1 1.753.403c.37.309.668.697.873 1.134.384.824.615 1.712.68 2.62a2.75 2.75 0 0 1-.663 1.769 9.962 9.962 0 0 1-1.826 1.604c-.482.363-.93.772-1.423 1.134-.108.08-.21.165-.323.233-.431.255-.636.215-.908-.148a2.075 2.075 0 0 1-.187-.249.668.668 0 0 1 .131-.862c.737-.697 1.593-1.259 2.336-1.871.26-.208.505-.435.731-.68a1.7 1.7 0 0 0 .397-.607h.051zm-9.04 21.79a45.388 45.388 0 0 1 2.348-4.899c.32-.61.68-1.199 1.077-1.763.102-.125.227-.255.335-.386l.176-.187.147-.147.595-.567c.386-.392.766-.794 1.134-1.202a35.977 35.977 0 0 0 2.098-2.609c.29-.387.559-.791.806-1.207.209-.393.364-.813.459-1.248a4.537 4.537 0 0 0 .045-1.655 4.323 4.323 0 0 0-.482-1.446c-.147-.273.176-.618.766-.624.163.001.324.032.476.091.181.062.348.158.493.283.351.289.591.689.681 1.134a6.097 6.097 0 0 1-.063 2.444 6.65 6.65 0 0 1-.93 2.189c-.119.181-.204.295-.306.436l-.3.397-.613.794a24.334 24.334 0 0 1-1.332 1.542l-1.667 1.832-.425.459c-.131.142-.318.318-.403.431a9.226 9.226 0 0 0-.629.856 33.152 33.152 0 0 0-2.365 4.627 47.643 47.643 0 0 0-1.185 3.017 42.706 42.706 0 0 0-1.389 4.717 28.721 28.721 0 0 0-.471 3.72c0 .272 0 .538-.056.811-.08 1.015-.222 1.321-.726 1.508a3.285 3.285 0 0 1-.346.119c-.386.074-.652-.374-.686-1.134-.027-2.415.302-4.82.975-7.139a52.03 52.03 0 0 1 1.701-5.177l.062-.017z"/><path fill="#1C1917" d="M201.136 125.713c.21-.096.431-.181.652-.261l.34-.113.442-.125a1.898 1.898 0 0 1 1.384.193c.186.1.364.214.533.34.129.102.247.218.352.346a6.56 6.56 0 0 1 1.179 2.756c.098.428.173.862.227 1.298.042.305.042.614 0 .919a1.442 1.442 0 0 1-.477.884c-.181.153-.499-.204-.816-.567-.318-.363-.68-.601-.663-.714a7.58 7.58 0 0 0-.12-2.229 2.59 2.59 0 0 0-.759-1.281l-.074-.074-.034-.034-.091-.073a.38.38 0 0 0-.238-.046c-.091.017-.18.042-.266.074-.108.034-.222.068-.335.113a6.908 6.908 0 0 0-1.06.505 7.954 7.954 0 0 0-1.48 1.072 6.542 6.542 0 0 0-.845 1.134c-.057.09-.096.181-.159.266-.232.301-.397.318-.822.068-.102-.057-.198-.108-.295-.17a.698.698 0 0 1-.323-.839 5.779 5.779 0 0 1 1.814-2.268 10.721 10.721 0 0 1 1.917-1.219l.017.045zm-8.652 52.183a82.121 82.121 0 0 1-3.51-.987c-.42-.13-.856-.21-1.276-.352a53.135 53.135 0 0 1-4.377-1.701c-.641-.277-1.299-.516-1.945-.782a13.795 13.795 0 0 1-1.259-.567 3.173 3.173 0 0 1-1.134-.975c-.215-.346.261-.511.72-.675.459-.165.941-.357 1.31-.142 1.367.754 3.005 1.435 4.576 2.223.996.42 2.023.762 3.073 1.02 1.134.346 2.268.681 3.442.976.714.181 1.429.363 2.149.51 1.086.245 2.183.434 3.289.567.849.063 1.7.078 2.551.045h.567c.692 0 .902.148 1.032.641.034.11.06.222.079.335.051.38-.249.674-.782.754a17.178 17.178 0 0 1-4.871-.148c-1.213-.181-2.421-.442-3.617-.708l-.017-.034zm-40.457-1.792a192.177 192.177 0 0 1-3.431-3.743c-.419-.453-.862-.884-1.264-1.349-1.429-1.639-2.796-3.323-4.168-5.001a61.89 61.89 0 0 0-1.894-2.177 14.8 14.8 0 0 1-2.313-2.921c-.187-.357.238-.567.799-.567a2.154 2.154 0 0 1 1.701.698c1.571 1.888 3.147 3.805 4.633 5.834.896 1.208 2.007 2.303 3.033 3.442a449.505 449.505 0 0 0 3.403 3.726c.708.759 1.44 1.491 2.166 2.234l1.701 1.633a44.9 44.9 0 0 0 1.752 1.553 27.805 27.805 0 0 0 2.931 2.03l.658.408c.822.488 1.009.754.935 1.287-.006.121-.021.24-.045.358-.108.38-.612.425-1.304.107a23.936 23.936 0 0 1-5.613-3.94c-1.282-1.134-2.501-2.353-3.703-3.567l.023-.045zm11.987-20.6a107.56 107.56 0 0 1-1.304 4.145c-.176.499-.284 1.021-.471 1.514a71.518 71.518 0 0 1-2.143 5.171c-.182.378-.352.756-.51 1.134l-.516 1.134c-.21.488-.471.975-.726 1.463a4.283 4.283 0 0 1-1.168 1.299c-.312.232-.533-.199-.669-.721a3.88 3.88 0 0 1-.119-.765 1.22 1.22 0 0 1 .175-.748c.135-.199.258-.406.369-.619.119-.215.249-.413.363-.646.221-.459.476-.884.692-1.361l1.4-2.835a28.06 28.06 0 0 0 1.333-3.651c.453-1.356.901-2.716 1.298-4.094.25-.851.493-1.701.703-2.552.17-.652.329-1.298.476-1.95.148-.652.29-1.31.386-1.962.176-1.021.199-2.036.272-3.051v-.669c.074-.833.227-1.077.732-1.208.113 0 .226-.068.34-.085.385-.039.652.335.68.976a23.339 23.339 0 0 1-.567 5.772c-.283 1.434-.646 2.835-1.02 4.269l-.006.04zm20.099-67.407a15.077 15.077 0 0 1-.89-4.485c-.034-.533-.114-1.066-.114-1.599a23.57 23.57 0 0 1 .165-2.835c.098-.964.3-1.914.601-2.835.156-.503.433-.96.805-1.332a8.595 8.595 0 0 1 4.258-1.701c.38 0 .335.493.148.975a1.84 1.84 0 0 1-.998 1.168c-.414.136-.828.295-1.219.465a6.224 6.224 0 0 0-.992.527c0-.034-.08.068-.171.233a4.35 4.35 0 0 0-.249.612c-.161.491-.296.991-.403 1.497a14.758 14.758 0 0 0-.136 3.714c.04 1.362.23 2.716.567 4.037.099.38.238.749.414 1.1.076.149.169.287.278.414.08.096.184.17.301.215a.69.69 0 0 0 .209.057l.068-.034a1.54 1.54 0 0 0 .273-.64c.127-.625.203-1.258.226-1.894-.003-1.066.082-2.13.256-3.181a4.38 4.38 0 0 1 .238-.755c.143-.37.409-.68.754-.878a.63.63 0 0 1 .686.085c.097.065.187.14.266.227a.735.735 0 0 1 .125.504 1.614 1.614 0 0 1-.125.516 8.457 8.457 0 0 0-.351 2.228c-.057.88-.074 1.81-.204 2.836a5.83 5.83 0 0 1-.301 1.31 4 4 0 0 1-.187.402c-.047.08-.098.158-.153.232-.055.085-.12.163-.193.233a1.828 1.828 0 0 1-1.298.567 2.309 2.309 0 0 1-1.055-.216 3.317 3.317 0 0 1-.454-.255 3.853 3.853 0 0 1-.362-.312 4.496 4.496 0 0 1-.8-1.236l.017.034z"/><path fill="#1C1917" d="M178.488 92.565a7.71 7.71 0 0 1-.249-1.134 13.496 13.496 0 0 1-.119-1.049 24.634 24.634 0 0 1-.062-2.04c0-.489-.029-.976 0-1.464.062-.862.164-1.7.311-2.563.074-.425.165-.856.267-1.281a7.76 7.76 0 0 1 .181-.652c.067-.241.159-.475.272-.698.227-.42.547-.783.936-1.06a5.48 5.48 0 0 1 1.089-.635c.9-.461 1.897-.7 2.909-.698.612.046.068 1.86-.868 2.076a6.405 6.405 0 0 0-2.126.81 1.435 1.435 0 0 0-.267.233c-.034.034-.045.068-.085.102-.04.034-.074.159-.108.255-.147.375-.277.817-.408 1.26a14.79 14.79 0 0 0-.334 3.401 19.022 19.022 0 0 0 .164 3.748c.05.301.12.599.21.89a.843.843 0 0 0 .357.494c.048.023.1.038.153.045.318.04.533-.255.618-.567a1.39 1.39 0 0 0 .068-.227 7.48 7.48 0 0 0 .08-.385c.045-.261.085-.533.119-.805.043-.988.18-1.97.408-2.932.067-.24.158-.471.272-.692.16-.326.426-.588.754-.743a.613.613 0 0 1 .641.137 1.7 1.7 0 0 1 .261.232 1.015 1.015 0 0 1 0 .998 7.173 7.173 0 0 0-.425 1.973l-.137 1.248c-.052.478-.13.953-.232 1.423a3.62 3.62 0 0 1-.834 1.7 2.149 2.149 0 0 1-1.564.647 2.676 2.676 0 0 1-.766-.17 1.317 1.317 0 0 1-.34-.187 1.623 1.623 0 0 1-.306-.255 3.692 3.692 0 0 1-.879-1.497l.039.062zm16.49-22.21a28.5 28.5 0 0 0-1.049.125l-.84.13c-.334.057-.663.12-.975.199a6.585 6.585 0 0 0-.873.278c-.114.045-.224.1-.329.164l-.108.068s-.028 0-.034.034a.127.127 0 0 0-.045.074 2.05 2.05 0 0 0-.079.278c-.052.221-.091.46-.125.709-.063.499-.102 1.02-.125 1.542-.034.89 0 1.792.045 2.693.035 1.579.19 3.152.465 4.707a9.07 9.07 0 0 0 .63 2.126.807.807 0 0 0 .346.397.452.452 0 0 0 .493-.165 1.12 1.12 0 0 0 .153-.215c.077-.135.145-.276.204-.42.126-.308.23-.624.312-.947.169-.67.291-1.353.363-2.041.144-1.767.183-3.541.119-5.313-.034-.482.425-.595.97-.17a3.293 3.293 0 0 1 1.043 2.5 24.334 24.334 0 0 1-.193 2.943 15.74 15.74 0 0 1-.641 2.966 7.354 7.354 0 0 1-.289.76c-.051.13-.125.26-.181.39-.057.131-.08.131-.114.2a2.556 2.556 0 0 1-.17.266 3.131 3.131 0 0 1-.918.913 2.75 2.75 0 0 1-.567.226c-.201.035-.404.05-.607.046a2.129 2.129 0 0 1-1.106-.488c-.141-.164-.295-.3-.419-.476a3.554 3.554 0 0 1-.335-.567 7.695 7.695 0 0 1-.522-1.542 37.993 37.993 0 0 1-.85-7.105c0-.845 0-1.701.062-2.546.034-.43.068-.862.142-1.304.04-.221.079-.442.142-.686.071-.294.194-.572.363-.822.108-.138.234-.262.374-.369.115-.092.236-.175.363-.25a5.42 5.42 0 0 1 .709-.328 9.438 9.438 0 0 1 1.389-.391l.601-.114.232-.04h.136l.567-.062.618-.045a.955.955 0 0 0 .301-.051l-.244-.142a11.232 11.232 0 0 1-1.151-.794c-.41-.314-.798-.655-1.162-1.02a5.017 5.017 0 0 1-.993-1.316 2.143 2.143 0 0 1-.238-.941 1.703 1.703 0 0 1 .301-.987c.173-.244.388-.455.635-.624.133-.08.271-.152.414-.215.133-.056.272-.1.414-.13a4.968 4.968 0 0 1 1.548-.063c.95.086 1.887.276 2.795.567.397.125.788.244 1.174.403 1.429.606 1.814 1.02 1.831 1.599.02.13.02.261 0 .391-.113.386-.709.306-1.701-.051a19.404 19.404 0 0 0-4.445-1.134 4.884 4.884 0 0 0-.493 0h-.205a.528.528 0 0 0-.17.034c-.034 0-.119 0-.113.034.006.034 0 0-.057 0-.056.043-.11.09-.159.142v.056c.112.245.263.47.448.664.333.355.693.683 1.078.98l.153.12.329.244c.232.158.453.323.703.482.476.317 1.009.623 1.559.93l.391.3c.068.09.108.181.165.266l.13.239c.03.06.047.126.051.193 0 .238-.13.323-.136.567a.564.564 0 0 1-.193.272c-.104.13-.233.238-.38.317-.34.233-1.236.255-1.916.346l-.011-.006zM84.16 239.893H63.595l-7.496.063-26.44-.08c-3.913 0-7.842.04-11.726.085-4.99.051-9.98.244-14.998-.079a2.995 2.995 0 0 1-.935-.187c-.233-.097-.295-.199-.25-.284a1.06 1.06 0 0 1 .414-.272 5.69 5.69 0 0 1 .783-.329 22.358 22.358 0 0 1 6.571-.935c10.167 0 20.345-.034 30.62.158 6.14.108 12.525-.034 18.807-.056l20.713-.046 12.747-.034c6.435-.034 12.899-.034 19.278-.124 4.962-.063 9.832-.244 14.743-.363l3.232-.085c4.042-.057 5.33.079 6.197.606.201.1.39.22.567.358.386.408-1.259.737-4.213.867-8.772.391-18.02.533-27.307.624l-20.747.13.005-.017zm125.516-.385-4.904-.074c-.567 0-1.191.045-1.786.034l-6.317-.142c-.935 0-1.877 0-2.801.057a16.093 16.093 0 0 1-3.578 0c-.743-.136.216-2.03 1.571-2.047a71.224 71.224 0 0 1 7.275.227c1.463.13 2.982 0 4.479 0l4.939.028h3.045c1.531 0 3.079.028 4.604 0 1.185-.034 2.342-.176 3.521-.261.255 0 .51-.056.771-.062.97-.028 1.276.108 1.474.635.055.117.098.238.131.363.085.402-.312.737-1.01.85a46.517 46.517 0 0 1-6.481.437h-4.938l.005-.045zM.446 199.227l.158-12.854c0-1.565-.028-3.125 0-4.69l.25-16.523c.028-2.443 0-4.899-.046-7.325a85.782 85.782 0 0 1 0-4.678c0-.777 0-1.56.08-2.342l.244-2.336c.119-.97.283-.845.567 0 .153.408.346.992.567 1.701.102.351.226.731.306 1.134.068.417.115.837.142 1.259l.119 2.381.056 1.191v5.971c-.03 3.182-.104 6.377-.22 9.582-.142 3.833-.03 7.825-.046 11.749-.034 4.309-.064 8.622-.09 12.939l-.069 7.967c-.028 4.02-.074 8.063-.04 12.049 0 3.107.193 6.14.222 9.208 0 .675.04 1.333.034 2.013 0 2.529-.142 3.334-.567 3.884-.079.13-.17.251-.273.363-.283.249-.595-.771-.742-2.62-.097-1.366-.193-2.755-.29-4.156a87.94 87.94 0 0 1-.198-4.247c-.085-2.835-.13-5.755-.159-8.653-.045-4.315-.04-8.647-.056-12.967h.05zm-.357-95.469.21-9.02v-3.295c.096-3.873.22-7.746.289-11.618.028-1.701 0-3.442-.051-5.143a70.672 70.672 0 0 1-.04-3.289c0-.567 0-1.094.057-1.639.056-.544.13-1.088.198-1.638.091-.675.261-.607.567-.046.231.373.443.757.635 1.151.282.525.443 1.106.47 1.701l.137 1.701.062.84v4.224a149.366 149.366 0 0 1-.232 6.747c-.153 2.7-.057 5.506-.085 8.267l-.159 9.084c-.034 1.866-.068 3.737-.096 5.602-.04 2.835-.102 5.67-.074 8.477 0 2.177.181 4.315.204 6.475 0 .471.04.936.034 1.418 0 1.775-.142 2.336-.567 2.722a1.867 1.867 0 0 1-.272.255c-.29.17-.595-.567-.743-1.849-.198-1.928-.42-3.906-.482-5.919a270.633 270.633 0 0 1-.136-6.084c-.034-3.034 0-6.079 0-9.124H.09zM79.12 20.583a7.145 7.145 0 0 0 1.411-3.635 2.835 2.835 0 0 0-.408-1.582 1.383 1.383 0 0 0-1.338-.692c-.34.063-.567.125-.613 0-.045-.124 0-.181.12-.323.17-.19.4-.319.651-.363a2.223 2.223 0 0 1 1.747.46c.46.354.82.82 1.049 1.355a5.137 5.137 0 0 1 .204 3.277 9.588 9.588 0 0 1-1.831 3.521 19.478 19.478 0 0 1-2.456 2.5 38.035 38.035 0 0 1-3.13 2.501 47.984 47.984 0 0 1-7.172 4.327 28.035 28.035 0 0 1-6.34 2.268 13.45 13.45 0 0 1-5.04.187 9.071 9.071 0 0 1-2.609-.89c-.21-.102-.402-.244-.606-.369a4.662 4.662 0 0 1-.567-.414l-.567-.465c-.176-.17-.352-.385-.522-.567a6.174 6.174 0 0 1-1.27-2.835 8.386 8.386 0 0 1 0-2.835 15.599 15.599 0 0 1 1.7-4.718c.2-.38.421-.747.664-1.1.13-.187.255-.38.392-.567l.402-.493a12.2 12.2 0 0 1 .834-.936c.283-.3.567-.567.861-.856a35.208 35.208 0 0 1 3.663-3.022 42.932 42.932 0 0 1 3.93-2.574 33.81 33.81 0 0 1 4.252-2.126 18.065 18.065 0 0 1 4.854-1.327 10.07 10.07 0 0 1 2.722.08 5.933 5.933 0 0 1 1.502.447 4.95 4.95 0 0 1 1.48 1.038c.43.468.759 1.02.964 1.621.091.28.162.566.21.857 0 .272.057.567.068.81a7.335 7.335 0 0 1-.67 2.966 13.347 13.347 0 0 1-3.231 4.11A27.486 27.486 0 0 1 71 22.795a38.152 38.152 0 0 1-3.635 2.081 42.435 42.435 0 0 1-6.657 2.66 24.99 24.99 0 0 1-7.258 1.224 11.714 11.714 0 0 1-3.969-.663 7.677 7.677 0 0 1-3.385-2.535 8.427 8.427 0 0 1-1.593-3.918 8.92 8.92 0 0 1 .476-4.145 12.9 12.9 0 0 1 1.168-2.381c.46-.732.953-1.412 1.44-2.059a25.363 25.363 0 0 1 5.977-5.16 33.966 33.966 0 0 1 5.721-3.005 16.347 16.347 0 0 1 3.493-.97 7.138 7.138 0 0 1 2.126 0c.457.076.9.22 1.316.426.225.128.44.272.646.43.186.18.362.37.527.568.18.245.332.51.454.788.12.272.208.558.26.85.094.535.08 1.082-.039 1.611a6.51 6.51 0 0 1-.998 2.223 15.497 15.497 0 0 1-2.376 2.653 30.051 30.051 0 0 1-3.237 2.524 31.663 31.663 0 0 1-5.546 3.05 26.511 26.511 0 0 1-6.135 1.809 14.62 14.62 0 0 1-3.357.147 8.244 8.244 0 0 1-3.447-1.032 5.274 5.274 0 0 1-2.512-3.028 7.598 7.598 0 0 1-.193-3.611 10.407 10.407 0 0 1 1.225-3.573 18.638 18.638 0 0 1 2.427-3.147 20.633 20.633 0 0 1 2.886-2.597 22.31 22.31 0 0 1 4.672-2.62A17.749 17.749 0 0 1 56.694.046a9.64 9.64 0 0 1 5.216.959c1.4.788.448.669-.028.482-1.474-.443-.352.147-.29.317 0 .057.057.13 0 .142-.056.011-.306-.108-.816-.21a8.846 8.846 0 0 0-2.126-.187 15.31 15.31 0 0 0-6.407 1.633 20.753 20.753 0 0 0-5.722 4.043 13.984 13.984 0 0 0-2.415 3.135c-.2.366-.373.745-.522 1.134a9.39 9.39 0 0 0-.612 2.864c-.035.565.04 1.13.221 1.667.172.507.517.936.975 1.213a4.79 4.79 0 0 0 1.928.675c.808.099 1.625.099 2.433 0 1.755-.258 3.47-.74 5.103-1.434a26.963 26.963 0 0 0 4.36-2.269 29.585 29.585 0 0 0 4.769-3.72c.53-.51 1.015-1.063 1.451-1.655.298-.35.495-.776.567-1.23a.714.714 0 0 0-.056-.17l-.051-.04c-.051-.04-.029 0-.034 0-.006 0-.097 0-.17-.051a5.341 5.341 0 0 0-2.087.204 22.726 22.726 0 0 0-6.617 3.13 25.097 25.097 0 0 0-5.517 4.678 11.344 11.344 0 0 0-1.77 2.835 5.104 5.104 0 0 0 .273 5.052 4.07 4.07 0 0 0 1.848 1.565c.89.366 1.835.577 2.796.624.858.038 1.718-.02 2.563-.176a29.623 29.623 0 0 0 5.585-1.554 41.066 41.066 0 0 0 5.347-2.438 33.63 33.63 0 0 0 4.887-3.232 13.797 13.797 0 0 0 1.968-1.928 5.875 5.875 0 0 0 1.134-2.092l.074-.26a2.101 2.101 0 0 0 0-.262v-.499a1.525 1.525 0 0 0-.221-.725 1.338 1.338 0 0 0-.567-.443 3.503 3.503 0 0 0-1.084-.25 8.446 8.446 0 0 0-1.315 0 6.17 6.17 0 0 0-.67.086c-.226.045-.436.05-.668.119-.46.113-.915.249-1.361.408l-.686.238-.68.29c-.658.26-1.316.567-1.974.867l-1.219.63-1.123.657a42.455 42.455 0 0 0-5.76 4.275 20.664 20.664 0 0 0-2.365 2.495l-.43.641c-.142.244-.29.493-.42.748a14.1 14.1 0 0 0-.703 1.543 8.506 8.506 0 0 0-.647 3.067c.003.445.082.886.233 1.305.15.383.385.727.686 1.009 1.36 1.332 3.55 1.655 5.778 1.31a21.787 21.787 0 0 0 2.772-.567 30.658 30.658 0 0 0 4.225-1.571 41.225 41.225 0 0 0 6.804-3.895c.567-.426 1.877-1.26 3.062-2.183a13.042 13.042 0 0 0 2.5-2.461zm30.759 60.778a5.578 5.578 0 0 1-.743 1.701 4.295 4.295 0 0 1-.63.732l-.368.323c-.136.096-.278.176-.414.26a5.058 5.058 0 0 1-3.527.5c-.408-.063-.782-.187-1.174-.284a9.981 9.981 0 0 1-1.077-.442 16.562 16.562 0 0 1-5.67-5.24 66.375 66.375 0 0 1-1.917-2.744 17.013 17.013 0 0 1-2.07-3.685c-.288-.84 1.9-.732 2.677.624a48.02 48.02 0 0 0 4.536 6.804 9.542 9.542 0 0 0 1.815 1.627c.336.228.686.435 1.049.618l.538.278.567.221a4.88 4.88 0 0 0 2.382.369 2.442 2.442 0 0 0 1.797-1.135 5.056 5.056 0 0 0 .511-3.016 13.335 13.335 0 0 0-.533-2.523c-.244-.845-.567-1.701-.874-2.5-.51-1.282-1.134-2.518-1.633-3.85-.102-.29-.226-.568-.311-.88-.324-1.134-.239-1.53.226-1.865.102-.083.21-.157.324-.221.385-.17.782.215 1.071.958.431 1.134.896 2.217 1.378 3.362.482 1.146.987 2.354 1.423 3.63.344.975.611 1.976.8 2.993a8.932 8.932 0 0 1-.051 3.402l-.102-.017zm14.831-4.315a4.371 4.371 0 0 1-.857 1.423 3.258 3.258 0 0 1-1.582.976 4.304 4.304 0 0 1-3.164-.488 8.748 8.748 0 0 1-1.701-1.134 27.989 27.989 0 0 1-4.15-5.058c-.539-.788-1.1-1.553-1.65-2.313a15.108 15.108 0 0 1-1.939-3.034c-.295-.697 1.82-.924 2.574.216 1.338 2.007 2.608 4.02 3.924 6.027a13.186 13.186 0 0 0 2.959 3.056 4.426 4.426 0 0 0 1.809.907 1.514 1.514 0 0 0 1.509-.504 4.872 4.872 0 0 0 .81-2.484 16.854 16.854 0 0 0-.209-4.456 21.43 21.43 0 0 0-.947-3.335c-.08-.238-.182-.47-.261-.708-.295-.89-.278-1.174.142-1.554.09-.085.181-.187.277-.26.329-.267.828 0 1.134.697a19.27 19.27 0 0 1 1.804 6.554c.09.884.114 1.773.073 2.66a9.851 9.851 0 0 1-.521 2.835l-.034-.023z"/><path fill="#1C1917" d="M112.051 72.624a45.882 45.882 0 0 1-3.345-6.238 11.274 11.274 0 0 1-.93-2.625 5.453 5.453 0 0 1 .176-2.739 4.13 4.13 0 0 1 .261-.64c.102-.193.209-.369.312-.567a8.44 8.44 0 0 1 .697-1.021 11.145 11.145 0 0 1 3.697-3.028 14.415 14.415 0 0 1 3.941-1.434 10.534 10.534 0 0 1 2.716-.233 6.334 6.334 0 0 1 2.653.76c.516.283.153.771-.453 1.134-.323.193-.665.35-1.021.47a2.217 2.217 0 0 1-.567.12 1.859 1.859 0 0 1-.567 0 10.928 10.928 0 0 0-8.131 2.835c-.159.159-.334.312-.482.487l-.414.567a5.4 5.4 0 0 0-.567 1.134 4.093 4.093 0 0 0 .165 2.461 25.09 25.09 0 0 0 1.321 3.04 42.868 42.868 0 0 0 1.616 2.976 39.61 39.61 0 0 0 2.359 3.453 33.038 33.038 0 0 0 4.298 4.656c1.243 1.052 2.57 2 3.969 2.835.3.198.612.351.913.567 1.134.72 1.4 1.049 1.315 1.7a2.886 2.886 0 0 1-.057.454c-.136.471-.811.5-1.74.068a25.18 25.18 0 0 1-3.97-2.415 33.266 33.266 0 0 1-3.617-3.158 39.075 39.075 0 0 1-4.536-5.58l-.012-.04zM87.09 68.807c3.051-3.657 8.614-9.19 13.898-7.507 1.48.47 2.115-1.854.641-2.325-6.237-1.979-12.605 3.765-16.245 8.131-.987 1.186.709 2.898 1.701 1.701h.006zm38.292 23.356c-2.62-.278-7.763 2.002-7.763 2.002s2.053 7.79 5.347 9.106a1.698 1.698 0 0 0 2.149-.834c.641-1.321 1.446-3.26.267-10.274zM92.477 170.32c1.701 1.219 3.363 2.529 5.194 3.578 1.582.913 3.011-1.536 1.43-2.444-1.832-1.054-3.477-2.364-5.195-3.583-1.491-1.061-2.909 1.4-1.429 2.449zm31.51 17.601c1.44-.794 2.761-1.77 4.122-2.688 1.134-.76.062-2.603-1.077-1.837-1.361.918-2.677 1.894-4.117 2.687-1.196.664-.125 2.501 1.072 1.838zm-42.933 19.17c1.407-1.253 3.13-2.069 4.474-3.402.975-.964-.527-2.466-1.502-1.502-1.339 1.326-3.068 2.149-4.474 3.402-1.027.913.482 2.41 1.502 1.502zm20.554 14.312c2.03 1.378 4.105 2.682 6.089 4.116 1.134.806 2.172-1.037 1.072-1.831-1.985-1.44-4.06-2.744-6.084-4.122-1.134-.771-2.2 1.071-1.077 1.837zm58.052 5.919a23.164 23.164 0 0 1 3.186-2.874c1.134-.766.062-2.609-1.072-1.838a25.952 25.952 0 0 0-3.617 3.21 1.062 1.062 0 1 0 1.503 1.502zm25.889-17.792a22.072 22.072 0 0 0-1.956 2.721c-.703 1.174 1.134 2.268 1.837 1.072a17.964 17.964 0 0 1 1.628-2.268 1.098 1.098 0 0 0 0-1.503 1.072 1.072 0 0 0-1.509 0v-.022zm1.337-21.712a38.033 38.033 0 0 0 2.439 4.911c.697 1.174 2.54.108 1.837-1.072a34.414 34.414 0 0 1-2.223-4.4c-.522-1.247-2.58-.697-2.053.567v-.006zM82.98 240.636l-19.075.096-6.957.097-24.523.045c-3.63 0-7.275.074-10.87.136-4.627.08-9.27.272-13.898.046-2.88-.148.783-2.019 6.096-2.064 9.435-.085 18.87-.131 28.39 0 5.67.085 11.613-.091 17.436-.136l19.216-.136 11.823-.091c5.97-.063 11.969-.091 17.889-.199 4.604-.085 9.118-.283 13.671-.414l2.994-.102c3.747-.062 4.944.068 5.755.567.188.1.367.218.533.352.357.408-1.168.754-3.907.89-8.131.42-16.71.567-25.323.72l-19.245.216-.005-.023zm124.994-.527-3.771-.318c-.459-.034-.919 0-1.378-.062-1.61-.148-3.226-.312-4.836-.426a24.932 24.932 0 0 0-2.149-.034c-.912.087-1.83.073-2.739-.039-.567-.108.142-1.701 1.213-1.735a35.621 35.621 0 0 1 5.67.397c1.134.175 2.303.147 3.459.226l3.799.29 2.336.164c1.18.074 2.365.159 3.533.159.913 0 1.809-.097 2.705-.165.198 0 .391-.045.567-.051.737-.034.975.08 1.134.522.043.099.079.202.107.306.074.346-.227.63-.771.726a24.465 24.465 0 0 1-5.058.272c-1.27-.034-2.546-.119-3.821-.187v-.045zm-61.146-71.014c-.448.267-.096 1.792.618 3.493.715 1.701 9.044 11.312 12.265 10.893 3.22-.42-.862-2.575-3.13-4.661-2.268-2.087-9.753-9.725-9.753-9.725zm10.885.573c.028-.051 2.268-1.616 3.192-3.288.924-1.673 4.298-10.207 3.941-11.738-.357-1.531-1.287-.952-1.287-.952l-5.846 15.978z"/><circle cx="194.5" cy="123.5" r="5.5" fill="#FF7C00"/><path fill="#1C1917" d="M197.599 124.664a31.048 31.048 0 0 0-2.898 2.648c-.329.346-.606.737-.941 1.089a28.395 28.395 0 0 0-3.079 4.037 10.48 10.48 0 0 0-.567.986 70.23 70.23 0 0 1-.437 1.027c-.17.442-.277.907-.436 1.355-.121.455-.28.899-.476 1.327-.136.266-.567.142-.964-.216a1.661 1.661 0 0 1-.516-1.565 15.905 15.905 0 0 1 3.073-5.534c.828-.947 1.52-2.035 2.376-2.982a31.504 31.504 0 0 1 2.971-2.932 26 26 0 0 1 2.024-1.616c.278-.187.567-.374.851-.567l.47-.249c.198-.079.403-.137.613-.176a4.45 4.45 0 0 1 2.149.21 4.128 4.128 0 0 1 2.358 2.404c.094.227.172.46.233.697.181.885.028 1.18-.442 1.367a2.554 2.554 0 0 1-.329.113c-.38.074-.675-.244-.839-.731a4.357 4.357 0 0 0-.964-1.781 1.93 1.93 0 0 0-1.497-.533 2.838 2.838 0 0 0-.369.029h-.091c-1.292.504-2.005-.196-2.872.929s-.893 2.299-2.299 2.5c-1.406.201-1.554 3.337-2.701 2.5-1.147-.837 1.738-1.1 1.5-2.5.5-1 .694.169 1.5-1s.607-1.725 2-2c1.393-.275.089-.353.497-1.043 1.19.775 1.967-1.339 2.279.047v.107l.028.193.034.187v.097h-.034c-.239.12-.47.256-.691.408-.528.349-1.035.728-1.52 1.134l.006.034z"/></svg>