<svg xmlns="http://www.w3.org/2000/svg" width="529" height="388" fill="none"><path fill="#1C1917" d="M209.919 20.654c1.801-.79 3.591-1.604 5.415-2.35 1.823-.747 3.646-1.472 5.491-2.076 1.362-.462 2.691-1 4.053-1.428 2.45-.648 4.855-1.395 7.348-1.846 1.253-.241 2.472-.56 3.724-.724l3.745-.539c1.099-.175 2.197-.197 3.295-.33 1.099-.131 2.197-.296 3.295-.285 1.439 0 2.867-.11 4.306-.066s2.856.33 4.273.582c.878.165.692.583-.099.989a8.722 8.722 0 0 1-3.746.879c-2.8.23-5.59.175-8.38.538l-2.109.198-2.087.318c-1.406.209-2.823.319-4.229.604a64.745 64.745 0 0 0-10.094 2.768c-1.823.637-3.668 1.23-5.491 1.977l-2.691 1.099-2.658 1.175c-2.197.933-4.295 2.054-6.415 3.13-1.582.89-3.163 1.768-4.712 2.68-1.549.912-3.086 1.878-4.514 2.966a63.717 63.717 0 0 0-6.283 5.283c-.439.417-.846.835-1.296 1.241-1.614 1.527-2.197 1.878-3.031 1.845a1.971 1.971 0 0 1-.517 0c-.472-.11-.12-1.098.868-2.493 3.119-4.13 7.436-7.425 11.917-10.336a99.66 99.66 0 0 1 10.424-5.799h.198z"/><path fill="#1C1917" d="M184.489 50.551a13.22 13.22 0 0 1-2.383.583 5.494 5.494 0 0 1-3.021-.33 7.595 7.595 0 0 1-.791-.516 5.356 5.356 0 0 1-.626-.692 3.52 3.52 0 0 1-.395-.747 2.386 2.386 0 0 1-.242-.736 6.231 6.231 0 0 1-.143-.703v-.659a9.18 9.18 0 0 1 0-1.241c.11-1.098.198-2.197.363-3.207a63.014 63.014 0 0 1 2.823-10.852 39.183 39.183 0 0 1 1.922-4.657 12.713 12.713 0 0 1 4.053-5.075c.571-.395.769.066.67.791a4.94 4.94 0 0 1-.319 1.22 5.408 5.408 0 0 1-.67 1.361 42.507 42.507 0 0 0-4.69 11.105 45.021 45.021 0 0 0-1.296 7.568 11.876 11.876 0 0 0-.077 3.767 1.103 1.103 0 0 0 .67.813 3.098 3.098 0 0 0 1.582 0 20.485 20.485 0 0 0 4.745-1.68c2.405-1.099 4.8-2.351 7.194-3.56a38.429 38.429 0 0 1 5.778-2.636 9.96 9.96 0 0 1 1.449-.35 4.863 4.863 0 0 1 1.241 0c.301.014.596.089.868.219a1.097 1.097 0 0 1 .703.933c.026.171.026.345 0 .517a.816.816 0 0 1-.571.56 5.317 5.317 0 0 1-1.098.23 10.32 10.32 0 0 0-2.274.638c-.791.285-1.593.658-2.416 1.032-1.626.79-3.295 1.67-4.998 2.56a67.857 67.857 0 0 1-8.029 3.777l-.022-.033zm154.537 319.323c-1.439.692-2.867 1.428-4.394 2.021l-2.196.934-2.263.813c-.549.197-1.098.417-1.637.626-.538.208-1.098.362-1.68.527a55.077 55.077 0 0 1-12.148 2.076c-1.823 0-3.647.263-5.492.164a21.784 21.784 0 0 1-3.482-.142 39.494 39.494 0 0 1-3.416-.67c-.702-.187-.527-.593.132-.989a6.295 6.295 0 0 1 3.098-.791c1.098.066 2.251-.066 3.372 0 1.124.048 2.25.03 3.372-.055 1.098-.076 2.262-.076 3.383-.186 1.12-.11 2.262-.22 3.405-.308a36.36 36.36 0 0 0 4.096-.802c1.362-.362 2.691-.856 4.042-1.241 1.351-.384 2.922-1.043 4.394-1.592a37.044 37.044 0 0 0 4.251-1.912l2.57-1.285 2.504-1.428c1.274-.713 2.471-1.537 3.723-2.306 1.253-.769 2.406-1.637 3.548-2.526 1.78-1.384 3.361-2.944 4.998-4.394.362-.329.692-.67 1.098-.999 1.384-1.187 1.977-1.395 2.669-1.252.157.023.311.06.461.109.418.187.132.978-.68 2.12a44.14 44.14 0 0 1-9.392 8.556c-1.285.967-2.691 1.791-4.042 2.669-1.351.879-2.789 1.648-4.239 2.373l-.055-.11z"/><path fill="#1C1917" d="M360.358 343.568a15.35 15.35 0 0 1 2.372-.494 5.604 5.604 0 0 1 2.966.318c.296.115.571.278.813.484.261.196.484.438.659.714.185.24.327.511.417.801.111.252.185.518.22.791l.088.736c.011.22.011.44 0 .659a8.92 8.92 0 0 1-.154 1.252c-.209 1.099-.406 2.12-.67 3.164a63.835 63.835 0 0 1-3.855 10.577 39.978 39.978 0 0 1-2.373 4.393 12.877 12.877 0 0 1-4.547 4.679c-.604.33-.747-.142-.593-.856.101-.411.249-.809.439-1.187.207-.469.481-.905.813-1.296a42.681 42.681 0 0 0 5.755-10.632 44.815 44.815 0 0 0 2.021-7.436c.354-1.2.495-2.453.418-3.701a.851.851 0 0 0-.615-.736 3.817 3.817 0 0 0-1.648 0c-1.673.323-3.307.82-4.877 1.483-2.46.988-4.942 2.075-7.425 3.141a38.776 38.776 0 0 1-5.953 2.251 9.19 9.19 0 0 1-1.483.242 4.144 4.144 0 0 1-1.252-.055 2.201 2.201 0 0 1-.856-.285 1.1 1.1 0 0 1-.626-.989 1.664 1.664 0 0 1 0-.527.825.825 0 0 1 .626-.505c.361-.076.729-.12 1.098-.132a9.624 9.624 0 0 0 2.307-.472c.801-.231 1.636-.55 2.482-.879 1.68-.67 3.405-1.439 5.162-2.197a81.697 81.697 0 0 1 8.216-3.295l.055-.011z"/><path fill="#FF7C00" d="M165.816 185.146c1.399.314 2.761.774 4.064 1.373.518.22 1.014.489 1.482.802.311.231.595.496.846.791.3.356.521.771.648 1.219.231 1.098.472 2.197.703 3.35.15.789.26 1.584.33 2.384a4.515 4.515 0 0 1-.594 3.075c-.186.275-.516.099-.845-.264a2.97 2.97 0 0 1-.791-1.34 35.27 35.27 0 0 0-.692-5.228 14.328 14.328 0 0 0-.286-1.329c0-.187-.472-.582-1.021-.89a13.671 13.671 0 0 0-3.438-1.318 20.089 20.089 0 0 0-2.318-.461 14.408 14.408 0 0 0-3.569-.132 6.592 6.592 0 0 0-2.45.813c-.146.08-.286.172-.417.275-.472.307-.659.208-1.241 0-.11 0-.231 0-.308-.088-.077-.088-.219-.165-.307-.462a1.036 1.036 0 0 1 .252-.955 5.491 5.491 0 0 1 2.757-1.593 12.264 12.264 0 0 1 2.933-.417 21.421 21.421 0 0 1 4.273.373l-.011.022zm-15.509 61.663c.005.991.278 1.963.791 2.812l.121.121.066.066c-.154.23.34-.539-.33.538l.077-.11c.088-.143.187-.308.253-.439h.054l.22.087a22.31 22.31 0 0 0 4.734 1.099c.73.079 1.463.116 2.197.11h1.428c.483.014.962.088 1.428.219.296.099.285.374 0 .769-.26.51-.704.903-1.242 1.099a17.16 17.16 0 0 1-6.03-.121c-.593-.121-1.219-.176-1.856-.253l-.977-.121a5.264 5.264 0 0 1-1.154-.329 4.071 4.071 0 0 1-1.867-2.01 8.204 8.204 0 0 1-.67-2.197 14.476 14.476 0 0 1-.165-2.647c.047-1.298.193-2.591.44-3.866.127-1.015.321-2.021.582-3.01.053-.229.127-.453.22-.67.329-.835.845-.922 1.449-.648.143.05.282.109.418.176.207.131.368.323.461.549a1.1 1.1 0 0 1 .11.725c-.242 1.461-.582 2.955-.747 4.558a15.575 15.575 0 0 0-.066 3.493h.055z"/><path fill="#1C1917" d="M164.3 384.818a21.945 21.945 0 0 1-1.438-2.087 8.055 8.055 0 0 1-.484-.768 28.942 28.942 0 0 1-1.285-2.933c-.164-.45-.373-.868-.527-1.307a5.179 5.179 0 0 1-.472-1.725c0-.197.252-.252.571-.186a1.26 1.26 0 0 1 .868.494l.834 1.505c.198.527.418 1.098.593 1.614a9.294 9.294 0 0 0 1.099 1.835c.417.648.835 1.318 1.307 1.933.286.383.594.75.923 1.098.471.534 1.014 1 1.614 1.384.462.243.965.399 1.483.461.103.012.206.031.307.055.363.077.462.275.55.67 0 .099.055.187.066.275 0 .285-.154.549-.605.692a4.193 4.193 0 0 1-.988.066 6.745 6.745 0 0 1-.923-.264 6.649 6.649 0 0 1-1.603-.934 12.49 12.49 0 0 1-1.89-1.845v-.033zm12.053-6.37a25.233 25.233 0 0 0 2.746 1.823c.363.187.736.308 1.099.495a22.98 22.98 0 0 0 3.844 1.625l.889.176.89.066c.385 0 .692-.055 1.099-.121h.417l.066.176a.2.2 0 0 0 0 .077c0 .055.066.11 0 .11h-.341a.103.103 0 0 0 0-.055v-.143c0-.088-.077-.187-.12-.297-.044-.11.087-.307.395-.252.193.037.38.096.56.175a.591.591 0 0 1 .187.165c0 .099.143.121.088.494a.756.756 0 0 1-.242.407 1.482 1.482 0 0 1-.198.132l-.461.23a2.225 2.225 0 0 1-.253.088l-.351.088-.725.143c-.475.033-.953.033-1.428 0a10.211 10.211 0 0 1-2.592-.824 31.566 31.566 0 0 1-2.9-1.34 57.6 57.6 0 0 1-2.976-1.79 49.158 49.158 0 0 1-1.747-1.209c-.867-.626-1.713-1.307-2.548-1.966-.648-.505-1.351-.944-1.999-1.482a6.025 6.025 0 0 1-.428-.352c-.484-.494-.495-.791-.264-1.175a1.8 1.8 0 0 1 .154-.242.79.79 0 0 1 1.01 0 37.707 37.707 0 0 1 3.449 2.625c.857.681 1.725 1.373 2.647 1.988l.033.165zm-86.041-38.114a93.75 93.75 0 0 1 .626-3.053c.077-.374.11-.758.198-1.099.319-1.296.67-2.581 1.022-3.866.167-.563.303-1.135.406-1.713.106-.759.32-1.499.637-2.197.11-.22.395-.121.67.143.311.284.5.678.527 1.098a17.091 17.091 0 0 1-.307 2.197c-.139.75-.348 1.486-.626 2.197-.265.895-.464 1.81-.594 2.735a94.2 94.2 0 0 0-.593 3.02c-.11.626-.22 1.241-.296 1.867-.155.938-.25 1.884-.286 2.834 0 .736.143 1.45.176 2.197v.472a.834.834 0 0 1-.461.945 1.03 1.03 0 0 1-.198.121c-.22.087-.472-.121-.747-.561a9.015 9.015 0 0 1-.582-4.239 27.58 27.58 0 0 1 .34-3.164l.088.066zm43.289-54.522a45.073 45.073 0 0 1-5.899-3.108c-.681-.429-1.395-.813-2.054-1.263a54.24 54.24 0 0 1-6.59-5.382c-.901-.879-1.823-1.714-2.691-2.615a19.287 19.287 0 0 1-2.965-3.767c-.242-.439 0-.571.582-.439.72.197 1.378.576 1.911 1.098 2.284 2.142 4.503 4.317 6.865 6.437a32.65 32.65 0 0 0 4.712 3.415 44.09 44.09 0 0 0 5.579 3.131 29.67 29.67 0 0 0 3.647 1.439c1.838.626 3.789.854 5.722.67a5.337 5.337 0 0 0 1.977-.67 4.4 4.4 0 0 0 1.384-1.252c.109-.185.191-.385.242-.594.05-.29.12-.576.209-.856.148-.244.342-.457.571-.626l.351-.275a.561.561 0 0 1 .681.121 1.77 1.77 0 0 1 .593 1.285 4.094 4.094 0 0 1-.955 2.812 5.943 5.943 0 0 1-2.197 1.636 9.874 9.874 0 0 1-5.019.692 26.176 26.176 0 0 1-6.711-1.823l.055-.066zm55.527-15.531a13.4 13.4 0 0 0-2.515.428 9.313 9.313 0 0 0-.878.308c-1.09.288-2.147.689-3.153 1.197a9.461 9.461 0 0 0-1.263.813 9.813 9.813 0 0 1-1.527 1.098c-.362.198-.845-1.098-.263-1.647a11.19 11.19 0 0 1 3.569-2.197c.791-.286 1.549-.747 2.373-1.021a16.755 16.755 0 0 1 2.768-.648 13.26 13.26 0 0 1 1.746-.154 17.75 17.75 0 0 1 2.658.121c.341.054.681.076 1.033.098a8.44 8.44 0 0 1 1.021.198c.153.021.301.065.44.132.538.231.648.417.56.857-.017.1-.039.199-.066.296a.74.74 0 0 1-.802.44c-1.098 0-2.131-.264-3.229-.33h-1.219c-.407 0-.835 0-1.253.088v-.077zM68.537 206.477s-15.663 6.744-22.352-9.358c-.56-1.34-1.44-1.45-1.79-2.867-.956-3.91-4.493-12.357.955-19.573 3.625-4.778 7.689-4.393 8.359-6.777.56-1.955-4.218-3.932-5.086-5.777a8.897 8.897 0 0 1-.835-3.932s-3.514-16.036 13.532-26.548a12.155 12.155 0 0 1 4.668-1.68 31.22 31.22 0 0 1 10.138.252 12.082 12.082 0 0 0 12.554-5.349c3.296-5.195 9.666-10.983 22.056-12.082a11.745 11.745 0 0 1 3.042.132c1.889.33 5.086 2.12 7.81 3.416 3.47 1.658 6.436 2.482 9.885.659 11.643-6.261 26.987-12.576 38.069-3.965a28.28 28.28 0 0 1 7.689 8.995c6.282 11.885-.297 29.777-12.324 35.28a29.996 29.996 0 0 1-28.118-1.516c-1.878-1.098-7.502-4.569-7.502-4.569-1.274.417-2.252 3.625-5.217 4.866-1.725.714-3.394 1.768-5.305 1.977-6.129.659-9.413-6.733-17.003-3.218-7.59 3.514-16.113 6.118-16.377 20.462-.263 14.345 1.736 19.639-.208 20.869-3.295 2.032-8.502-7.535-13.752-4.613-8.6 4.657-2.888 14.916-2.888 14.916zm79.991 21.824a30.55 30.55 0 0 1-4.822 9.886 23.495 23.495 0 0 1-8.589 6.853 26.467 26.467 0 0 1-7.59 2.461c-4.634.65-9.355.256-13.817-1.154a43.77 43.77 0 0 1-12.258-6.128 56.929 56.929 0 0 1-9.117-7.986 38.238 38.238 0 0 1-8.27-13.037c-.528-1.527 0-1.461.933-.429a37.894 37.894 0 0 1 1.802 2.197c.351.451.746.934 1.098 1.45.42.538.808 1.099 1.164 1.681a52.318 52.318 0 0 0 9.886 11.357 46.29 46.29 0 0 0 12.817 7.985 27.794 27.794 0 0 0 18.091 1.186 23.7 23.7 0 0 0 8.896-4.624 20.934 20.934 0 0 0 1.824-1.725 22.167 22.167 0 0 0 1.57-1.966 23.634 23.634 0 0 0 2.494-4.393 45.64 45.64 0 0 0 3.13-12.302 158.961 158.961 0 0 0 1.164-19.518c0-5.063 0-10.05.286-15.102.11-1.099.154-2.197.307-3.295.144-1.487.423-2.958.835-4.394.224-.673.6-1.286 1.098-1.79.165-.176.33-.407.451-.505.351-.319.615 1.449.318 4.393-.208 2.197-.34 4.394-.417 6.689-.077 2.296-.154 4.547-.198 6.854-.066 4.624 0 9.347-.187 14.125-.087 3.537-.34 7.128-.768 10.676a64.437 64.437 0 0 1-2.043 10.555h-.088z"/><path fill="#1C1917" d="M89.017 167.419c-2.845 5.678-3.515 12.357-2.987 18.848.186 2.383.549 4.745.977 7.128l.352 1.911.066.67a2.243 2.243 0 0 1-.11.604c-.175.39-.42.744-.725 1.044a2.508 2.508 0 0 1-2.384.582 5.037 5.037 0 0 1-1.23-.483 9.206 9.206 0 0 1-.813-.505 61.662 61.662 0 0 0-5.162-3.746 5.987 5.987 0 0 0-5.283-.725 6.273 6.273 0 0 0-3.295 4.284 9.116 9.116 0 0 0 .099 5.173 7.61 7.61 0 0 0 1.164 2.285 12.78 12.78 0 0 0 1.845 1.922 15.08 15.08 0 0 0 6.085 3.119 18.17 18.17 0 0 0 6.887.451c1.417-.264 1.406.098.242.878-.83.491-1.725.861-2.659 1.099a8.849 8.849 0 0 1-4.13.164 17.469 17.469 0 0 1-7.48-3.295 15.125 15.125 0 0 1-2.92-2.998 9.978 9.978 0 0 1-1.714-4.064 11.38 11.38 0 0 1 1.515-8.348 7.685 7.685 0 0 1 3.493-2.943 7.286 7.286 0 0 1 4.526-.231c3.415.945 5.755 3.361 8.138 4.976.747.472.736.472 1.099.505a.42.42 0 0 0 .362-.538l-.384-1.846a42.604 42.604 0 0 1-.44-2.306 43.576 43.576 0 0 1 .978-20.584 27.689 27.689 0 0 1 6.59-10.983 19.82 19.82 0 0 1 1.78-1.67 22.926 22.926 0 0 1 1.9-1.505c.626-.505 1.384-.878 2.076-1.329a20.84 20.84 0 0 1 2.262-1.021 14.431 14.431 0 0 1 4.91-.78c1.635.075 3.253.367 4.811.868 2.394.736 4.613 1.823 6.799 2.548a7.61 7.61 0 0 0 3.185.406 11.783 11.783 0 0 0 3.207-.823 12.39 12.39 0 0 0 2.526-1.406 16.19 16.19 0 0 0 2.812-2.559 4.733 4.733 0 0 1 1.472-1.165 4.3 4.3 0 0 1 .637-.318c.308-.077.374.285.231 1.098a7.275 7.275 0 0 1-1.747 3.141 13.856 13.856 0 0 1-5.986 3.867 12.55 12.55 0 0 1-3.668.659h-.989l-1.01-.154a18.792 18.792 0 0 1-1.802-.516c-2.262-.813-4.217-1.78-6.249-2.406a13.26 13.26 0 0 0-5.975-.67 11.916 11.916 0 0 0-4.174 1.417 23.063 23.063 0 0 0-3.79 2.779 24.259 24.259 0 0 0-5.722 7.513l-.198-.022zM49.091 141.97a29.643 29.643 0 0 1 3.196-4.833 28.243 28.243 0 0 1 4.12-4.064l.812-.67.868-.615a12.66 12.66 0 0 1 1.79-1.099 25.635 25.635 0 0 1 3.394-1.559l1.801-.527c.593-.187 1.22-.242 1.823-.374a21.376 21.376 0 0 1 7.382 0l.812.121.791.187 1.582.384c1.032.341 2.076.648 3.064 1.098l1.879.857c.616.303 1.218.636 1.8 1a15.66 15.66 0 0 1 3.296 2.493c.615.593.22.879-.67.901a7.226 7.226 0 0 1-1.626-.176 10.104 10.104 0 0 1-1.9-.736c-4.525-2.449-9.39-4.207-14.542-3.811a17.948 17.948 0 0 0-8.787 3.185 24.83 24.83 0 0 0-7.414 7.447 24.029 24.029 0 0 0-2.867 5.843 23.073 23.073 0 0 0-1.098 4.866 18.06 18.06 0 0 0 .175 4.932 14.866 14.866 0 0 0 3.186 6.678c.327.433.695.833 1.098 1.197.352.362.637.67.868.933.21.204.409.42.593.648.25.31.374.702.351 1.099.023.182.023.367 0 .549-.12.538-1.098.319-2.482-.659a15.937 15.937 0 0 1-4.822-6.096 19.054 19.054 0 0 1-1.537-7.853 25.722 25.722 0 0 1 2.965-11.368l.099.022z"/><path fill="#1C1917" d="M43.46 184.916a22.695 22.695 0 0 0 1.868 9.699 28.606 28.606 0 0 0 1.768 3.207 25.585 25.585 0 0 0 9.183 9.039c.848.474 1.725.896 2.625 1.264l1.373.483.68.23c.231.066.473.099.704.154l1.812.363c.604.131 1.23.088 1.834.186 1.22.22 2.45.143 3.713.264.78.077.736.45.099.934-.434.306-.903.56-1.395.758-.297.109-.626.219-.978.318-.361.072-.73.101-1.098.088-.692 0-1.395 0-2.087-.088-.692-.088-1.362-.253-2.054-.384l-1.021-.22c-.341-.088-.66-.22-.99-.33l-1.976-.692c-.626-.296-1.252-.615-1.867-.922l-.923-.494-.857-.594c-.57-.406-1.098-.79-1.691-1.208l-1.538-1.395a33.872 33.872 0 0 1-6.37-7.787 25.36 25.36 0 0 1-3.12-10.522 9.677 9.677 0 0 1 0-1.692v-1.702c.132-1.099.297-2.197.505-3.35a21.227 21.227 0 0 1 4.559-9.084 13.672 13.672 0 0 1 6.656-4.393 9.627 9.627 0 0 1 1.78-.352 4.61 4.61 0 0 1 1.416 0c.325.02.644.094.945.22.37.159.69.418.922.747.088.113.165.235.23.362.133.33-.79.582-2.196.769a11.599 11.599 0 0 0-5.722 1.955 13.74 13.74 0 0 0-4.218 4.701 20.398 20.398 0 0 0-1.878 4.514l-.297 1.209-.175 1.219-.176 1.219c-.022.413-.022.828 0 1.241l-.044.066zm131.77-73.393c.725.67 1.318 1.45 1.977 2.197l.967 1.098c.308.396.593.824.89 1.241l.878 1.242c.286.417.484.9.725 1.34.495.886.907 1.816 1.231 2.778a25.776 25.776 0 0 1 1.285 11.797l-.297 2.142c-.154.703-.329 1.395-.494 2.098l-.242 1.098-.351 1.01-.714 2.021a35.921 35.921 0 0 1-8.48 12.258l-.67.637-.736.593-1.46 1.165a52.803 52.803 0 0 1-3.153 2.021 27.247 27.247 0 0 1-6.996 2.636 32.38 32.38 0 0 1-6.591.714 34.98 34.98 0 0 1-6.524-.714 36.337 36.337 0 0 1-7.952-2.625 31.87 31.87 0 0 1-6.931-4.635c-1.307-1.099-.922-1.209.44-.627 1.362.583 3.767 1.681 6.59 2.867a36.74 36.74 0 0 0 7.568 2.636c2.598.578 5.259.826 7.919.736a24.95 24.95 0 0 0 14.762-5.206c.626-.516 1.296-.967 1.889-1.538l1.757-1.724a32.522 32.522 0 0 0 7.151-12.994 26.95 26.95 0 0 0 .824-10.742 20.095 20.095 0 0 0-4.086-9.797 32.951 32.951 0 0 0-10.171-8.787c-6.03-3.142-13.378-2.933-19.771-.516a68.645 68.645 0 0 0-14.136 7.227l-2.899 1.966c-3.658 2.427-4.877 3.119-6.151 2.965a4.418 4.418 0 0 1-.835-.098c-.714-.264.472-1.725 3.053-3.746a84.437 84.437 0 0 1 12.621-8.117 45.419 45.419 0 0 1 15.014-4.942 24.956 24.956 0 0 1 12.082 1.46 29.38 29.38 0 0 1 10.006 6.788l.011.077z"/><path fill="#1C1917" d="M94.686 116.576a30.578 30.578 0 0 1 7.689-3.812c.494-.186.999-.34 1.505-.483a10.402 10.402 0 0 1 1.537-.373c1.81-.34 3.653-.465 5.492-.374a21.61 21.61 0 0 1 5.492.945 28.355 28.355 0 0 1 4.547 1.757 16.662 16.662 0 0 1 4.976 3.636c.439.472.055.747-.648.769a5.396 5.396 0 0 1-2.658-.769 25.791 25.791 0 0 0-10.643-4.02 18.282 18.282 0 0 0-7.074.725 27.893 27.893 0 0 0-7.326 3.097 29.528 29.528 0 0 0-3.998 2.922 24.78 24.78 0 0 0-4.877 5.678 17.476 17.476 0 0 0-1.988 5.25c-.066.396-.099.791-.175 1.187-.198 1.471-.297 1.911-.956 2.273-.154.077-.297.187-.44.242-.472.198-.955-.483-1.02-1.801a14.137 14.137 0 0 1 1.097-5.756 21.644 21.644 0 0 1 3.02-5.118 30.377 30.377 0 0 1 6.371-6.019l.077.044zm71.231 176.957c-1.011-1.537-2.01-3.075-3.054-4.591-.373-.56-.813-1.098-1.197-1.625a172.355 172.355 0 0 0-4.141-5.778c-.615-.846-1.296-1.658-1.977-2.449a38.544 38.544 0 0 1-2.537-3.12c-.231-.351 0-.527.538-.483.66.071 1.273.37 1.736.846a47.806 47.806 0 0 1 5.349 6.337c.944 1.362 2.108 2.648 3.141 3.998 1.032 1.351 2.197 2.999 3.295 4.548l1.933 2.866 2.823 4.394c.725 1.098 1.549 2.197 2.274 3.35.177.238.339.487.483.747.527.999.516 1.406 0 1.867a4.325 4.325 0 0 1-.33.319c-.406.274-.966 0-1.439-.583-1.361-1.867-2.614-3.932-3.954-6.008a239.623 239.623 0 0 0-3.02-4.613l.077-.022zm41.033 13.17c.472 3.789.89 7.578 1.23 11.39.121 1.395.297 2.778.385 4.173.335 4.923.335 9.862 0 14.784a52.625 52.625 0 0 1-.901 6.591 17.502 17.502 0 0 1-3.295 7.809c-.571.703-.725.384-.615-.417.055-.407.219-.89.34-1.505.121-.615.352-1.252.56-1.988a34.6 34.6 0 0 0 1.505-7.963c.242-2.735.44-5.492.527-8.326a84.202 84.202 0 0 0-.527-10.325 258.328 258.328 0 0 0-1.241-11.368 296.875 296.875 0 0 0-.956-6.996c-.516-3.526-1.01-7.074-1.581-10.578-.44-2.734-1-5.382-1.351-8.138-.055-.605-.176-1.198-.187-1.824a6.133 6.133 0 0 1 .22-2.537c.08-.237.199-.46.351-.659.151-.158.335-.282.538-.362.15-.072.309-.12.473-.143.219 0 .329.274.428.615.07.226.121.457.154.692 0 .252.088.593.121.977.164 2.252.615 4.723.999 7.184.385 2.46.813 5.019 1.219 7.545.605 3.768 1.099 7.59 1.67 11.402l-.066-.033zm-25.732-31.49-.076.132c-.106.22-.188.453-.242.691a15.72 15.72 0 0 0-.33 1.747 38.469 38.469 0 0 0-.274 3.767v2.812a94.385 94.385 0 0 0 .395 9.962c.165 1.461.363 2.944.637 4.394.363 1.834.824 3.657 1.285 5.415.154.549-.208.659-.779.351a4.014 4.014 0 0 1-1.703-2.197 40.04 40.04 0 0 1-1.472-5.788 44.29 44.29 0 0 1-.505-5.909c0-2.373-.352-4.811-.341-7.238a34.964 34.964 0 0 1 .769-8.117c.127-.501.339-.977.626-1.406a2.41 2.41 0 0 1 .648-.637l.605-.33c.746-.395 1.504-.736 2.284-1.098a36.292 36.292 0 0 1 7.216-2.065 21.216 21.216 0 0 1 5.866-.461l.67.065.67.154c.367.068.72.198 1.043.385.232.106.447.247.637.417a1.096 1.096 0 0 1 .341.967c-.009.156-.035.31-.077.461a.65.65 0 0 1-.637.329 5.455 5.455 0 0 1-1.099-.186c-2.757-.659-6.15-.121-9.369.725a34.459 34.459 0 0 0-3.558 1.164c-.583.209-1.099.472-1.703.725l-.824.406-.395.22-.187.11-.121.033zm6.544-58.62a37.343 37.343 0 0 1 .999 12.895l-.077 1.175-.153 1.153-.33 2.318-.922 4.053a9.611 9.611 0 0 0 0 3.602 35.16 35.16 0 0 0 2.306 7.502c.901 2.197 1.944 4.339 2.977 6.459.659 1.372 1.362 2.734 1.955 4.151a26.389 26.389 0 0 1 1.417 4.394c.208.955-.099.879-.648.22a23.866 23.866 0 0 1-2.263-3.372 247.216 247.216 0 0 1-4.02-8.37 49.105 49.105 0 0 1-3.295-8.952 14.014 14.014 0 0 1-.352-6.129c.363-1.867.835-3.69 1.033-5.557a36.65 36.65 0 0 0-.209-12.247 28.08 28.08 0 0 0-2.394-7.128 22.835 22.835 0 0 0-3.12-4.745 14.14 14.14 0 0 0-.966-1.022c-.165-.165-.33-.296-.494-.439a5.122 5.122 0 0 0-.484-.286 12.406 12.406 0 0 0-2.603-.758 24.968 24.968 0 0 0-8.622.055c-.604.121-1.197.253-1.779.429l-.747.197a5.49 5.49 0 0 1-.593.209c-.374.088-.637.209-.89.242-.434.074-.879.04-1.296-.099-.187 0-.396-.066-.538-.121-.143-.055-.231-.341 0-.868.138-.328.357-.615.637-.835a4.07 4.07 0 0 1 1.153-.735 14.427 14.427 0 0 1 4.251-1.264 24.472 24.472 0 0 1 4.393-.307c1.5.011 2.997.158 4.47.439.782.133 1.55.335 2.296.604.423.161.835.351 1.23.571.242.143.473.297.703.462.231.165.33.296.494.439a27.009 27.009 0 0 1 6.591 11.687l-.11-.022z"/><path fill="#1C1917" d="M160.699 212.331a28.91 28.91 0 0 1 4.91-1.538c.604-.131 1.197-.318 1.812-.406a20.764 20.764 0 0 1 3.295-.22 9.457 9.457 0 0 1 3.405.637c.259.105.509.23.747.374l.626.417c.382.284.749.589 1.099.912a18.795 18.795 0 0 1 2.526 2.504c.22.286 0 .538-.527.637a2.404 2.404 0 0 1-1.78-.406 45.39 45.39 0 0 0-2.746-1.999l-.318-.198a1.737 1.737 0 0 1-.253-.132 5.098 5.098 0 0 0-.626-.219 13.44 13.44 0 0 0-1.526-.286c-1.397-.099-2.8.034-4.152.396a26.998 26.998 0 0 0-4.537 1.296c-.897.34-1.764.755-2.592 1.241a7.913 7.913 0 0 0-1.351 1.098 1.023 1.023 0 0 0-.351 1c.06.12.151.222.263.296.386.239.804.42 1.242.538a9.44 9.44 0 0 0 1.537.297h.648c.791 0 .747.099 1.187.549.098.088.23.165.351.253a.456.456 0 0 1 .195.3.451.451 0 0 1-.085.348 1.684 1.684 0 0 1-1.022.681 7.29 7.29 0 0 1-3.295-.066 7.437 7.437 0 0 1-1.614-.56 4.614 4.614 0 0 1-.527-.319 4.099 4.099 0 0 1-.528-.439 3.634 3.634 0 0 1-.769-1.099 3.36 3.36 0 0 1 0-1.713c.049-.19.119-.375.209-.549.066-.193.163-.375.286-.538.11-.165.219-.341.34-.495l.308-.318a7.8 7.8 0 0 1 1.175-.978 15.906 15.906 0 0 1 2.394-1.34l.044.044z"/><path fill="#1C1917" d="M159.757 219.888a40.762 40.762 0 0 1 3.954-2.197c.494-.241.967-.527 1.483-.725a12.059 12.059 0 0 1 2.998-.79 6.173 6.173 0 0 1 3.186.692c.794.379 1.568.801 2.317 1.263.486.293.945.627 1.373.999.48.38.833.897 1.011 1.483.12.384-.319.516-.879.571-.275 0-.593.055-.901.066a1.183 1.183 0 0 1-.725-.231 14.834 14.834 0 0 0-2.295-1.515 12.606 12.606 0 0 0-2.373-1.044 2.893 2.893 0 0 0-1.494.231c-.56.198-1.098.472-1.702.725a33.31 33.31 0 0 0-3.712 1.977c-.759.442-1.492.926-2.197 1.45-.507.381-.991.792-1.45 1.23-.45.461-.714.802-.67 1.186a.756.756 0 0 0 .549.593c.387.133.789.214 1.197.242h.593c.758 0 1 .318 1.165.868.05.117.09.238.121.362a.589.589 0 0 1-.187.549c-.205.226-.48.376-.78.429a5.269 5.269 0 0 1-1.615 0 6.53 6.53 0 0 1-.878-.154l-.473-.154c-.186-.088-.373-.165-.56-.275a3.033 3.033 0 0 1-1.515-2.196 5.004 5.004 0 0 1 0-.714c.034-.238.085-.473.153-.703.074-.22.166-.433.275-.637l.143-.297.153-.198a8.704 8.704 0 0 1 1.802-1.834 27.386 27.386 0 0 1 1.878-1.362l.055.11z"/><path fill="#1C1917" d="M168.462 231.794a2.468 2.468 0 0 0-1.175-.198c-.58.01-1.158.076-1.725.198-1.219.231-2.482.615-3.888.868a9.588 9.588 0 0 1-1.648.154 4.68 4.68 0 0 1-.922-.099 3.467 3.467 0 0 1-1.099-.484 1.86 1.86 0 0 1-.834-1.79c.049-.35.161-.688.329-.999.136-.257.302-.497.494-.714a10.99 10.99 0 0 1 2.043-1.846 23.826 23.826 0 0 1 4.537-2.57 17.688 17.688 0 0 1 2.196-.791 5.165 5.165 0 0 1 2.505-.164 6.43 6.43 0 0 1 2.79 1.428c.742.633 1.419 1.34 2.021 2.108.373.462.098.648-.506.539a6.106 6.106 0 0 1-2.328-1.099 6.245 6.245 0 0 0-2.142-1.098 2.694 2.694 0 0 0-1.011-.088c-.403.05-.801.142-1.186.275a25.801 25.801 0 0 0-4.975 2.394 9.672 9.672 0 0 0-2.505 2.12c-.516.626-.373.89.363.977 1.209-.003 2.411-.2 3.558-.582a16.52 16.52 0 0 1 4.097-.758c.487-.002.971.065 1.439.198.515.163.98.454 1.351.846a5.711 5.711 0 0 1 1.263 2.493c.45 2.474.59 4.994.418 7.502a6.588 6.588 0 0 0 2.306 4.393c.266.241.553.458.857.648.384.25.751.525 1.098.824.22.224.359.513.396.824.04.159.069.32.088.483.077.495-.758.824-2.032.319a8.621 8.621 0 0 1-5.031-7.26v-2.757a23.182 23.182 0 0 0-.187-3.658 3.886 3.886 0 0 0-1.032-2.438l.077-.198z"/><path fill="#FF7C00" d="M154.868 187.091c.154-.352.308-.714.472-1.099.196-.382.42-.749.67-1.098a4.589 4.589 0 0 1 1-1.011 2.86 2.86 0 0 1 1.571-.648 20.626 20.626 0 0 1 4.393.154c1 .121 1.999.209 2.977.407 1.754.335 3.477.816 5.151 1.438.894.329 1.74.776 2.515 1.329.47.342.847.795 1.099 1.319.105.264.179.541.219.823.055.242.066.473.099.714a26.16 26.16 0 0 1-.176 4.756 16.675 16.675 0 0 1-1.45 5.767c-.285.571-.593.351-.845-.253a5.934 5.934 0 0 1-.407-2.691c.339-1.857.533-3.737.582-5.624a13.02 13.02 0 0 0 0-1.34 11.242 11.242 0 0 0-.109-1.098s-.066-.22-.363-.461a5.981 5.981 0 0 0-1.032-.681 22.405 22.405 0 0 0-6.744-1.769 35.955 35.955 0 0 0-3.888-.395 9.802 9.802 0 0 0-1.747 0c-.242 0-.604.395-.923.835a11.951 11.951 0 0 0-1.449 4.316 20.982 20.982 0 0 0 0 7.227c.145.748.4 1.47.758 2.142.253.259.566.452.911.56a7.52 7.52 0 0 0 1.384.363c.374.077.747.088 1.098.132 1.428.142 1.758.274 2.197.801.099.088.231.154.297.22.066.066.077.275-.22.604a2.278 2.278 0 0 1-1.45.615 9.204 9.204 0 0 1-3.042-.175 7.678 7.678 0 0 1-1.582-.528 5.841 5.841 0 0 1-.857-.494c-.142-.132-.307-.274-.472-.439-.165-.165-.274-.363-.395-.549a11.12 11.12 0 0 1-.989-2.867 20.144 20.144 0 0 1-.351-2.779 23.253 23.253 0 0 1 1.098-8.611v.088zm-6.327 62.079c.023.595.261 1.161.67 1.593.241.121.501.199.769.23.406.088.846.165 1.296.22.89.121 1.801.198 2.724.264.923.066 2.12.077 3.174.121 1.055.044 2.197.065 3.218 0 .528 0 1.044-.055 1.527-.121a4.78 4.78 0 0 0 .67-.132c.121 0 .209 0 .275-.143.066-.143.143-.176.252-.307.108-.141.207-.287.297-.44.197-.313.374-.64.527-.977.332-.714.618-1.447.857-2.197a31.338 31.338 0 0 0 1.153-4.844c.176-1.098.308-2.12.439-3.185.132-1.065.308-2.12.517-3.152.11-.637.384-.593.758 0 .539.902.817 1.936.801 2.987a42.633 42.633 0 0 1-.889 6.733 26.79 26.79 0 0 1-.989 3.295 12.079 12.079 0 0 1-1.746 3.295c-.077.11-.198.231-.275.363a3.285 3.285 0 0 1-.67.494 2.733 2.733 0 0 1-.395.176l-.308.099a9.815 9.815 0 0 1-1.098.241c-.703.121-1.384.198-2.076.253a42 42 0 0 1-4.064.176 38.492 38.492 0 0 1-3.921-.22 31.578 31.578 0 0 1-1.977-.275c-.341-.054-.67-.12-1.033-.208-.175 0-.362-.099-.549-.154a3.436 3.436 0 0 1-.681-.319 10.365 10.365 0 0 1-.703-.593c-.208-.197-.362-.461-.538-.703a6.361 6.361 0 0 1-.802-3.152c-.011-.986.062-1.971.22-2.944.236-1.409.544-2.806.922-4.184l.264-1c.101-.374.226-.74.374-1.098a5.49 5.49 0 0 1 1.449-1.966 7.143 7.143 0 0 1 3.296-1.538 10.861 10.861 0 0 1 3.525-.088 9.984 9.984 0 0 1 1.505.275c1.878.527 2.263 1.197 2.274 1.944a2.78 2.78 0 0 1 0 .516c-.099.472-.956.571-2.076.297a11.35 11.35 0 0 0-4.943-.22 3.994 3.994 0 0 0-1.823.835c-.46.4-.777.94-.901 1.537-.351 1.45-.714 2.878-.966 4.262a12.512 12.512 0 0 0-.253 3.954h-.077z"/><path fill="#1C1917" d="M176.782 346.013a61.996 61.996 0 0 1-3.416-4.602c-.406-.571-.846-1.098-1.219-1.691a106.607 106.607 0 0 1-3.68-6.294c-.527-.945-1.098-1.867-1.625-2.779a24.663 24.663 0 0 1-1.944-3.602c-.154-.407.175-.528.659-.396a3.05 3.05 0 0 1 1.603 1.099c1.538 2.295 3.087 4.558 4.449 6.974a36.424 36.424 0 0 0 2.91 4.141c1.099 1.483 2.197 2.955 3.438 4.393a50.141 50.141 0 0 0 2.263 2.56c.593.626 1.219 1.23 1.834 1.834.615.604 1.285 1.153 1.944 1.691.659.539 1.098.769 1.626 1.099l1.691.988.736.44c.89.593 1.098.933 1.011 1.537v.418c-.121.417-.681.505-1.505.252a14.304 14.304 0 0 1-3.504-1.581 21.714 21.714 0 0 1-3.174-2.318 45.6 45.6 0 0 1-4.086-4.185l-.011.022zm-86.916-6.008c.143-1.307.33-2.603.516-3.888.077-.472.1-.945.176-1.406.308-1.647.648-3.295 1.098-4.921a54.05 54.05 0 0 0 .506-2.196 7.139 7.139 0 0 1 1.098-2.735c.198-.264.417-.055.604.307.103.196.184.402.242.615.05.243.05.493 0 .736a46.452 46.452 0 0 1-1.197 5.492 23.798 23.798 0 0 0-.583 3.449 86.457 86.457 0 0 0-.494 3.822c-.088.78-.153 1.571-.208 2.362a29.826 29.826 0 0 0-.066 3.569c.083.897.22 1.788.406 2.669 0 .187.077.374.099.572a1.096 1.096 0 0 1-.264 1.208c-.066.066-.12.132-.175.176-.055.043-.495-.077-.857-.605a11.752 11.752 0 0 1-1.099-5.261 36.63 36.63 0 0 1 .154-3.965h.044zm86.933 23.659a61.458 61.458 0 0 0-9.413-2.329 51.376 51.376 0 0 0-4.8-.582 29.349 29.349 0 0 0-4.712.275c-2.362.274-4.723.736-7.107 1.098-8.402 1.307-16.816 2.834-25.317 3.811-3.778.44-7.568.857-11.313 1.198-4.811.45-9.655.812-14.487.823-1.505 0-1.308-.274 0-.648a39.589 39.589 0 0 1 6.315-1.175c4.888-.483 9.765-1.098 14.63-1.68 4.866-.582 9.721-1.384 14.631-2.076 5.865-.835 11.895-2.197 17.914-3.153a49.31 49.31 0 0 1 10.215-.9c3.387.295 6.744.864 10.039 1.702a54.834 54.834 0 0 1 11.73 4.394c.714.351 1.395.791 2.087 1.175.692.384 1.351.857 1.999 1.34.653.471 1.28.977 1.878 1.516.325.271.633.56.923.867.286.319.527.627.769.945.483.637.945 1.285 1.384 1.944l.659 1.033c.285.461.571.944.813 1.428.459.802.722 1.701.769 2.625a1.362 1.362 0 0 1-.44 1.098 1.824 1.824 0 0 1-1.208.242 4.785 4.785 0 0 1-1.933-.681 12.891 12.891 0 0 1-1.944-1.505 28.443 28.443 0 0 0-1.351-1.175l-1.373-1.099a23.946 23.946 0 0 0-5.712-3.723c-.922-.407-1.867-.736-2.833-1.099-3.614-1.219-4.723-1.46-5.492-2.13-.176-.165-.418-.275-.549-.407-.132-.132-.099-.219.054-.329.256-.158.546-.252.846-.275a10.707 10.707 0 0 1 3.416.297 33.567 33.567 0 0 1 6.371 2.065 27.912 27.912 0 0 1 5.777 3.822l1.296 1.098c.22.176.472.407.681.593l.538.484-.362-.55a39.78 39.78 0 0 0-1.373-1.955c-.242-.307-.483-.626-.714-.9l-.143-.165-.154-.143-.428-.373a24.318 24.318 0 0 0-3.789-2.746 43.447 43.447 0 0 0-8.787-3.91v-.165z"/><path fill="#1C1917" d="M190.619 379.283c.407.272.862.466 1.34.571h.209a.198.198 0 0 0 .11-.099.337.337 0 0 0 0-.23 4.373 4.373 0 0 0-.308-.725 7.874 7.874 0 0 0-1.01-1.483 24.916 24.916 0 0 0-1.912-1.988 42.194 42.194 0 0 0-3.767-3.196 22.888 22.888 0 0 0-2.043-1.384 13.207 13.207 0 0 0-2.197-.989c-1.384-.505-2.833-.912-4.272-1.296-.923-.231-1.857-.439-2.79-.659-.934-.22-1.845-.538-2.768-.791-.56-.165-.461-.373.088-.582a7.276 7.276 0 0 1 2.68-.362c1.982.252 3.947.619 5.887 1.098.985.294 1.953.642 2.9 1.043.503.216.991.466 1.461.747.45.286.867.571 1.285.879a36.004 36.004 0 0 1 5.722 4.811 16.881 16.881 0 0 1 2.504 3.416c.189.347.337.716.44 1.098a2.274 2.274 0 0 1-.11 1.527 2.413 2.413 0 0 1-2.581 1.01 7.478 7.478 0 0 1-2.483-1.098c-.724-.461-1.383-.967-2.053-1.472a60.939 60.939 0 0 0-5.965-4.338 51.254 51.254 0 0 0-5.074-2.45l-1.098-.494a6.741 6.741 0 0 1-1.395-.78 1.515 1.515 0 0 1-.451-.769c0-.132-.11-.274-.131-.395-.121-.374.779-.648 1.922-.308a27.838 27.838 0 0 1 4.909 2.043 33.91 33.91 0 0 1 4.712 2.856c2.197 1.582 4.24 3.46 6.283 4.69l-.044.099z"/><path fill="#1C1917" d="M182.734 379.744c.932.459 1.907.827 2.91 1.099.297.098.614.125.923.076 0-.054.088.132.198.198h-.253s0-.11-.077-.209a7.682 7.682 0 0 0-1.285-1.647 47.007 47.007 0 0 0-3.01-2.878 18.549 18.549 0 0 0-3.36-2.46 37.632 37.632 0 0 0-3.383-1.681l-2.197-.977a22.268 22.268 0 0 1-2.197-1.241c-.439-.297-.264-.473.242-.539a7.019 7.019 0 0 1 2.295.088 62.178 62.178 0 0 1 4.745 1.758c.779.386 1.538.811 2.274 1.274.745.46 1.45.982 2.109 1.559a35.297 35.297 0 0 1 4.613 4.394c.416.52.75 1.102.988 1.724.169.458.169.96 0 1.417a1.417 1.417 0 0 1-.505.681 1.951 1.951 0 0 1-.604.341 3.934 3.934 0 0 1-2.12 0 15.942 15.942 0 0 1-1.724-.527 37.447 37.447 0 0 1-3.877-1.747c-1.901-.944-3.735-2.01-5.58-3.02-1.428-.78-2.889-1.461-4.317-2.197-.307-.165-.626-.33-.922-.516a3.824 3.824 0 0 1-1.099-.901 1.195 1.195 0 0 1-.208-.824 3.254 3.254 0 0 1 0-.395c0-.187.23-.275.527-.286.381-.002.757.084 1.098.253 2.647 1.098 5.184 2.702 7.82 4.141 1.945 1.098 3.9 2.196 5.888 3.042h.088zm-11.149 6.645a1.874 1.874 0 0 1-.56.582l-.714.165c-.197.11-.549-.055-.834-.099a2.796 2.796 0 0 1-.89-.264l-.89-.439a3.191 3.191 0 0 1-.406-.231l-.264-.197a8.402 8.402 0 0 1-.944-.802 14.822 14.822 0 0 1-1.242-1.252 29.603 29.603 0 0 1-3.152-5.075 46.439 46.439 0 0 1-1.153-2.35 10.972 10.972 0 0 1-1.098-3.174c0-.352.252-.374.637-.198.487.24.889.623 1.153 1.098a49.49 49.49 0 0 0 1.527 2.823c.538.934.988 1.911 1.482 2.878a14.711 14.711 0 0 0 2.417 3.097c.475.505.993.968 1.548 1.384l.253.198.209.132c.153.08.315.142.483.186a.275.275 0 0 0 .401-.146.268.268 0 0 0 .005-.161 1.986 1.986 0 0 0-.153-.648l-.11-.264-.22-.472-.461-.934-.967-1.9a14.486 14.486 0 0 1-1.373-3.163 6.713 6.713 0 0 1-.099-.824c-.02-.392.093-.778.319-1.098a.762.762 0 0 1 .615-.308c.106-.011.213-.011.319 0 .318.077.417.494.571.978a25.037 25.037 0 0 0 2.12 4.821c.362.67.692 1.297 1.098 2.098.323.633.549 1.311.67 2.01a2.373 2.373 0 0 1-.198 1.626l-.099-.077zM6.653 288.865a119.353 119.353 0 0 0 19.056 43.089 120.622 120.622 0 0 0 11.083 13.279 91.971 91.971 0 0 0 24.164 18.354 111.687 111.687 0 0 0 13.938 6.239 130.214 130.214 0 0 0 14.674 4.393 143.687 143.687 0 0 0 26.965 3.647c11.557.45 23.13-.33 34.522-2.329 3.449-.648 3.295-.066.527 1.692a28.69 28.69 0 0 1-6.085 2.625 42.192 42.192 0 0 1-9.16 1.68 154.458 154.458 0 0 1-36.301-1.46 129.512 129.512 0 0 1-34.895-10.534 114.861 114.861 0 0 1-19.123-11.423l-1.098-.835-1.099-.889-2.196-1.78c-1.44-1.219-2.812-2.515-4.207-3.778l-3.965-3.998a397.232 397.232 0 0 0-3.746-4.174 122.274 122.274 0 0 1-23.593-42.77 128.828 128.828 0 0 1-5.777-29.579A133.803 133.803 0 0 1 4.84 225.16a156.775 156.775 0 0 1 5.646-16.541 138.797 138.797 0 0 1 7.688-15.597c1.352-2.197 2.549-4.394 4.053-6.492a61.998 61.998 0 0 1 6.195-8.073 18.117 18.117 0 0 1 1.977-1.867 9.141 9.141 0 0 1 1.615-.999c.42-.24.852-.457 1.296-.648 1.032-.297-1.098 3.009-5.064 8.545a139.386 139.386 0 0 0-14.893 27.239 145.975 145.975 0 0 0-5.13 15.037 141.93 141.93 0 0 0-3.295 15.652 128.056 128.056 0 0 0 1.801 47.46l-.076-.011zm238.489-4.064a154.139 154.139 0 0 0 2.12-39.068c-.33-4.767-1.022-9.501-1.824-14.202a122.712 122.712 0 0 0-18.221-46.747 118.71 118.71 0 0 0-13.928-17.574c-1.647-1.735-3.383-3.383-5.096-5.052l-2.658-2.395c-.89-.801-1.769-1.603-2.702-2.35-3.614-3.13-7.458-5.964-11.204-8.941-2.262-1.977-1.801-1.977.67-1.098a36.957 36.957 0 0 1 11.182 6.59 123.78 123.78 0 0 1 20.682 21.517 122.292 122.292 0 0 1 15.081 25.878l1.735 4.162 1.582 4.273c.56 1.417 1.01 2.878 1.472 4.339.461 1.46.988 2.899 1.351 4.393a132.732 132.732 0 0 1 3.822 18.024 154.085 154.085 0 0 1 .373 40.222 143.894 143.894 0 0 1-5.052 24.252 123.536 123.536 0 0 1-15.828 33.819 108.959 108.959 0 0 1-8.787 11.445c-1.526 1.845-3.24 3.526-4.887 5.25-.846.846-1.747 1.648-2.614 2.472-.868.823-1.758 1.636-2.702 2.383l-2.417 2.032c-.813.67-1.68 1.274-2.537 1.911s-1.527 1.098-2.197 1.593l-1.933 1.197a30.704 30.704 0 0 1-2.965 1.669 9.466 9.466 0 0 1-3.68 1.099 6.713 6.713 0 0 1-1.252 0c-.494-.121-.11-.703.999-1.604 1.11-.9 2.933-2.098 5.229-3.734a104.814 104.814 0 0 0 33.621-38.531 131.862 131.862 0 0 0 12.455-37.213l.11-.011zm-104.499.615a26.858 26.858 0 0 1-9.446-2.954c-1.099-.517-2.12-1.033-3.12-1.637a53.49 53.49 0 0 1-9.742-7.568c-1.296-1.274-2.603-2.559-3.778-3.954a19.281 19.281 0 0 1-3.68-5.964c-.253-.703.121-.725.714-.34.836.59 1.577 1.305 2.197 2.119a71.212 71.212 0 0 0 9.501 9.699 39.77 39.77 0 0 0 7.018 4.668 31.755 31.755 0 0 0 8.534 3.383c1.755.435 3.594.393 5.328-.121a5.108 5.108 0 0 0 1.636-.977c.422-.377.688-.898.747-1.461a6.426 6.426 0 0 0-1.417-3.603c-1.252-1.812-2.889-3.35-4.393-5.151-.319-.396-.648-.791-.945-1.219a5.017 5.017 0 0 1-.923-1.901 1.562 1.562 0 0 1 .308-1.164c.095-.143.206-.276.329-.395.209-.165.473-.088.78.11.431.295.803.667 1.099 1.098 1.098 1.494 2.504 2.944 3.822 4.602.659.824 1.329 1.692 1.955 2.647a11.72 11.72 0 0 1 1.593 3.372 5.8 5.8 0 0 1 .175 1.67 4.38 4.38 0 0 1-.494 1.801 5.574 5.574 0 0 1-2.339 2.274 10.029 10.029 0 0 1-5.492 1.098l.033-.132z"/><path fill="#1C1917" d="M60.894 311.558a115.894 115.894 0 0 1 7.622-16.926c1.099-1.977 2.197-3.965 3.372-5.866a113.904 113.904 0 0 1 6.91-9.731 69.877 69.877 0 0 1 8.127-8.787 41.196 41.196 0 0 1 8.787-6.107 28.936 28.936 0 0 1 6.436-2.427 27.94 27.94 0 0 1 3.416-.506l1.703-.109c.571 0 1.098.077 1.713.12 1.417.121 1.209.407 0 .923a50.657 50.657 0 0 1-5.492 1.999 33.211 33.211 0 0 0-11.466 5.646 56.362 56.362 0 0 0-4.91 4.206c-1.57 1.538-3.141 3.131-4.613 4.833a90.867 90.867 0 0 0-9.48 13.554 123.204 123.204 0 0 0-4.393 8.018 111.77 111.77 0 0 0-3.778 8.337 110.004 110.004 0 0 0-3.734 10.643 108.068 108.068 0 0 0-3.548 16.695 66.737 66.737 0 0 0-.286 12.983c.066.944.176 1.867.286 2.812.186 1.757.362 2.91.373 3.734a4.387 4.387 0 0 1-.318 1.779c-.088.198-.143.44-.22.561-.077.12-.319 0-.659-.637a9.329 9.329 0 0 1-1-2.922c-1.57-7.875-1.032-16.476.396-24.691a116.578 116.578 0 0 1 4.734-18.145l.022.011zm83.758-18.848a23.307 23.307 0 0 1-6.348-.747c-.736-.187-1.494-.33-2.197-.582a35.69 35.69 0 0 1-7.216-3.361 41.35 41.35 0 0 1-2.944-1.923 12.982 12.982 0 0 1-3.295-3.119c-.264-.395 0-.494.45-.384a4.985 4.985 0 0 1 1.758.911 26.904 26.904 0 0 0 3.591 2.406 71.616 71.616 0 0 0 3.855 2.087 25.806 25.806 0 0 0 5.086 1.779c1.896.517 3.846.808 5.81.868a12.43 12.43 0 0 0 3.504-.396 5.915 5.915 0 0 0 3.932-3.031 7.214 7.214 0 0 0 .472-3.866c0-.297-.109-.572-.131-.868-.077-1.099.088-1.505.593-1.845.109-.087.222-.168.34-.242.374-.187.813.231 1.209 1.098a8.539 8.539 0 0 1 .34 4.394 7.896 7.896 0 0 1-2.285 4.393 8.28 8.28 0 0 1-1.493 1.099 9.192 9.192 0 0 1-1.659.724 12.347 12.347 0 0 1-3.372.638v-.033zm-20.198-98.82a8.791 8.791 0 0 1-.637 2.998 4.48 4.48 0 0 1-1.099 1.505 3.512 3.512 0 0 1-1.724.857 5.228 5.228 0 0 1-2.383-.066 12.084 12.084 0 0 1-5.701-4.196 41.964 41.964 0 0 1-1.856-2.361 10.27 10.27 0 0 1-1.736-3.416c-.098-.396.231-.451.692-.297a3.216 3.216 0 0 1 1.439 1.033c.352.483.725.944 1.099 1.406.373.461.724.944 1.098 1.394a30.222 30.222 0 0 0 2.416 2.593 5.979 5.979 0 0 0 3.57 1.669 1.743 1.743 0 0 0 1.516-.384 3.116 3.116 0 0 0 .758-1.758c.139-.975.158-1.964.055-2.943a26.693 26.693 0 0 0-.813-4.602c-.308-1.176-.846-2.263-1.241-3.405-.099-.253-.209-.495-.286-.758-.329-.945-.143-1.373.406-1.725.11-.077.198-.164.286-.219.088-.055.33 0 .593.076.299.128.547.352.703.638a21.717 21.717 0 0 1 2.318 6.491c.403 1.802.592 3.645.56 5.492l-.033-.022zm18.671-.901a6.332 6.332 0 0 1-1.669 2.559 3.108 3.108 0 0 1-1.769.78 3.59 3.59 0 0 1-1.768-.297 6.39 6.39 0 0 1-.977-.527l-.462-.318-.373-.374a8.99 8.99 0 0 1-1.747-2.987 20.172 20.172 0 0 1-.867-3.098c-.187-.911-.407-1.823-.55-2.724a14.547 14.547 0 0 1-.296-3.514c.055-.736 1.702.054 1.966 1.318.549 2.196.868 4.481 1.406 6.59a5.932 5.932 0 0 0 1.999 3.13c.393.352.9.551 1.428.56.21-.045.404-.148.56-.296.218-.219.4-.471.538-.747a9.449 9.449 0 0 0 .857-2.57c.29-1.447.444-2.918.461-4.394a31.463 31.463 0 0 0-.285-3.372c0-.252-.066-.494-.077-.736 0-.933.241-1.252.835-1.461a2.9 2.9 0 0 1 .351-.131c.308-.088.868.274 1.098.955.552 2.114.701 4.312.44 6.481a20.787 20.787 0 0 1-1.044 5.085l-.055.088z"/><path fill="#1C1917" d="M127.947 189.397a36.55 36.55 0 0 1-1.274-9.292 24.577 24.577 0 0 1 .209-3.482 19.152 19.152 0 0 1 1.878-5.876 7.695 7.695 0 0 1 2.197-2.548 12.085 12.085 0 0 1 2.746-1.582 20.135 20.135 0 0 1 5.272-1.34 14.056 14.056 0 0 1 3.526 0 5.496 5.496 0 0 1 3.295 1.615c.549.637.055.78-.681.835-.341 0-.813.098-1.263.142a5.334 5.334 0 0 1-1.45 0 11.806 11.806 0 0 0-2.922 0c-1.003.09-1.996.274-2.965.55a12.073 12.073 0 0 0-5.119 2.625l-.483.626-.439.845a14.185 14.185 0 0 0-.692 1.813 18.777 18.777 0 0 0-.714 3.855 29.284 29.284 0 0 0 .604 8.787c.379 1.807.866 3.59 1.461 5.338a38.146 38.146 0 0 0 3.295 7.689 21.107 21.107 0 0 0 4.053 4.799c.329.308.692.583 1.098.868 1.318 1.099 1.659 1.538 1.67 2.197.016.146.016.293 0 .439 0 .209-.253.275-.615.22a4.034 4.034 0 0 1-1.472-.582 22.364 22.364 0 0 1-8.04-9.589 55.092 55.092 0 0 1-3.295-8.787l.12-.165zm-8.814-20.715c-5.393-1.867-12.95.593-17.003 4.394-1.68 1.57.857 4.097 2.526 2.526 3.153-2.944 9.348-4.899 13.532-3.46 2.197.758 3.109-2.691.945-3.438v-.022zm12.041 53.392a2.689 2.689 0 0 0 1.362 2.724 2.119 2.119 0 0 0 2.823-.736 3.295 3.295 0 0 0 .472-1.769 2.076 2.076 0 0 0-1.505-1.988 2.336 2.336 0 0 0-2.702 1.099 2.077 2.077 0 0 0 .736 2.812 2.119 2.119 0 0 0 2.823-.736l.066-.11-.736.747.088-.055-1.099.274h-.329l-1.516-1.977a.994.994 0 0 0 0 .308c-.077-.154.363-1 .088-.615l2.823-.736c.362.198.538 1.571.637 1.153.011-.109.011-.22 0-.329a2.078 2.078 0 0 0-2.065-2.065 2.109 2.109 0 0 0-2.054 2.065l.088-.066zm-119.959 14.18c-.374 1.79-.626 3.613-.923 5.426a57.064 57.064 0 0 0-.604 5.492l-.242 4.02c-.285 4.723-.318 9.468-.164 14.212.142 2.109.252 4.229.527 6.294.176 1.34.351 2.669.516 4.009.233 1.331.34 2.68.319 4.031-.088.857-.396.791-1 .154a5.967 5.967 0 0 1-1.615-3.427 106.969 106.969 0 0 1-.867-16.684c.12-3.35.066-6.832.296-10.248.154-1.878.275-3.756.528-5.624l.34-2.811.461-2.79a58.47 58.47 0 0 1 .637-3.416c.242-1.131.429-2.274.747-3.394.429-1.703.835-3.416 1.384-5.086l.868-2.504c.296-.824.593-1.647.879-2.471.417-1.285.944-2.526 1.417-3.779.472-1.252 1.032-2.471 1.592-3.701.264-.527.461-1.098.758-1.604 1.098-1.922 1.549-2.482 2.197-2.603a2.63 2.63 0 0 1 .428-.099c.363 0 .297 1-.417 2.395a99.424 99.424 0 0 0-5.371 13.488c-.517 1.757-1.099 3.525-1.472 5.327-.373 1.801-.813 3.591-1.175 5.404l-.044-.011z"/><path fill="#FF7C00" d="M438.265 71.243c.549-1.01 1.098-1.999 1.779-2.965.231-.352.407-.736.659-1.099a20.076 20.076 0 0 1 3.12-3.295 16.005 16.005 0 0 1 1.658-1.252 3.353 3.353 0 0 1 1.296-.516c.454-.163.944-.2 1.417-.11.308 0 .22.538 0 1.033-.22.494-.373 1.021-.659 1.098-.285.077-.373.582-.67.637-.296.055-.516.352-.78.55-.549.395-1.098.812-1.757 1.295a8.863 8.863 0 0 0-1.757 2.197 32.39 32.39 0 0 0-1.725 2.724c-.34.582-.659 1.175-.944 1.78a18.27 18.27 0 0 0-1.099 2.79c-.088.35-.165.8-.077.878.114.257.258.5.429.725l.285.351c.352.45.319.725 0 1.187a3.237 3.237 0 0 1-.23.296.87.87 0 0 1-1.198 0 4.996 4.996 0 0 1-.889-.912 3.345 3.345 0 0 1-.692-1.515 2.773 2.773 0 0 1 0-.605v-.406c0-.099.077-.45.12-.648.088-.417.198-.79.319-1.175a25.132 25.132 0 0 1 1.34-3.218l.055.175zm-15.767 44.869c.218.541.603.999 1.098 1.307.688.487 1.424.903 2.197 1.241.571.263 1.197.439 1.801.681a48.039 48.039 0 0 0 6.678 2.01c1.011.241 2.065.34 3.076.505l1.988.264c.66.116 1.31.285 1.944.505.406.143.319.527-.077.944-.51.533-1.19.87-1.922.956a24.168 24.168 0 0 1-8.227-1.549c-1.592-.593-3.295-.889-4.986-1.493a22.876 22.876 0 0 1-2.691-1.176 9.443 9.443 0 0 1-2.538-1.856 3.676 3.676 0 0 1-.999-2.021 6.571 6.571 0 0 1 .066-1.999 24.598 24.598 0 0 1 1.735-5.14c.538-1.252 1.033-2.516 1.67-3.735.143-.263.274-.538.428-.791.626-.966 1.011-1.153 1.637-.955.146.036.289.084.428.143.439.219.472.801.176 1.504-.879 2.109-1.835 4.295-2.625 6.47-.282.781-.51 1.581-.681 2.394a4.225 4.225 0 0 0-.088 1.769l-.088.022z"/><path fill="#1C1917" d="M412.116 268.4a22.988 22.988 0 0 0 6.887-.846c.835-.23 1.625-.538 2.449-.823l1.099-.396c.152-.052.311-.082.472-.088a.9.9 0 0 1 .483 0l.571.099c.747.132 1.505.242 2.274.352 1.527.219 3.097.417 4.657.779 1.368.332 2.702.788 3.987 1.362 1.626.616 3.295 1.099 4.921 1.626.505.143.395.472-.132.714a3.719 3.719 0 0 1-2.493.077 37.932 37.932 0 0 1-2.603-.901l-1.275-.516a12.458 12.458 0 0 0-1.175-.45 31.452 31.452 0 0 0-5.096-1.099l-3.295-.461-.659-.099a5.591 5.591 0 0 0-.572.209 29.32 29.32 0 0 1-1.581.593 26.794 26.794 0 0 1-7.315 1.45 20.196 20.196 0 0 1-4.613-.275 16.915 16.915 0 0 1-6.47-2.57l-.505-.297a1.462 1.462 0 0 0-.428 0c-.41.013-.817.058-1.22.132-.823.132-1.669.319-2.504.494l-1.098.242c-1.406.253-1.878.22-2.197-.132a1.67 1.67 0 0 1-.242-.241c-.186-.286.341-.637 1.351-.923a38.683 38.683 0 0 1 4.69-1.098 8.43 8.43 0 0 1 1.373-.121c.349.001.695.064 1.022.187l.681.395.966.582c.33.209.692.33 1.033.505a16.53 16.53 0 0 0 6.59 1.505l-.033.033zm12.037-66.517.703 2.944.846 2.911c.527 1.955 1.197 3.855 1.867 5.766.461 1.406 1.098 2.746 1.625 4.119a88.787 88.787 0 0 0 6.854 13.993c.56 1.011 1.252 1.933 1.911 2.889a32.235 32.235 0 0 0 2.076 2.735l1.406 1.691c.472.56 1.011 1.098 1.505 1.593.977 1.098 2.065 2.043 3.075 3.108.626.67.319.89-.538.714a7.192 7.192 0 0 1-3.624-1.999 54.65 54.65 0 0 1-10.534-15.234c-1.636-3.295-3.295-6.766-4.712-10.27-.791-1.922-1.417-3.899-2.131-5.843-.714-1.944-1.219-3.965-1.779-5.964-.604-2.472-1.296-4.932-1.757-7.436l-.571-2.845c-.187-.945-.297-1.9-.451-2.856l-.428-2.856c-.132-.955-.198-1.911-.319-2.866-.395-2.955-.615-5.866-.856-8.787 0-.648 0-1.285-.055-1.944 0-2.428.142-3.208.747-3.702a1.86 1.86 0 0 1 .362-.318c.373-.22.813.779.901 2.526a148.15 148.15 0 0 0 1.57 15.97c.352 1.999.593 4.02 1.044 6.008l.593 2.988c.198.999.483 1.977.714 2.965h-.044zm-66.638 30.93a42.38 42.38 0 0 1 1.263-3.987c.176-.472.286-.978.484-1.428.67-1.647 1.483-3.218 2.251-4.789.352-.692.659-1.406.967-2.109.332-.933.79-1.816 1.362-2.625.384-.494 1.669 1 1.274 2.043-.395 1.044-.758 1.835-1.175 2.735-.418.901-.923 1.747-1.439 2.614a23.2 23.2 0 0 0-1.395 3.295c-.45 1.253-.912 2.505-1.252 3.779a25.415 25.415 0 0 0-.549 2.383 14.438 14.438 0 0 0-.209 3.636c.033.462.118.919.253 1.362l.164.648.242.626c.066.187.143.362.198.549a1.19 1.19 0 0 1-.132 1.329c-.066.077-.121.165-.176.22-.055.055-.571 0-1.098-.44a3.998 3.998 0 0 1-.802-1.241 6.903 6.903 0 0 1-.538-1.395 5.27 5.27 0 0 1-.275-1.471 8.578 8.578 0 0 1-.055-1.494 21.4 21.4 0 0 1 .56-4.306l.077.066zm33.095-47.614a2.102 2.102 0 0 0-.692 1.527 1.506 1.506 0 0 0 1.505 1.505 2.434 2.434 0 0 0 2.442-1.945 2.423 2.423 0 0 0-.037-1.12 1.516 1.516 0 1 0-2.911.813c-.065-.264.187-.516.319-.692a.41.41 0 0 1 .187-.088c-.165 0-.165 0 0 0l1.515 1.516-.186.604a1.518 1.518 0 0 0 0-2.131 1.55 1.55 0 0 0-2.142 0v.011zm1.789 14.97c.31-.285.567-.623.758-.999a1.55 1.55 0 0 0-.538-2.065 1.533 1.533 0 0 0-1.149-.157 1.53 1.53 0 0 0-.927.695.83.83 0 0 1-.275.385 1.52 1.52 0 0 0-.361 1.041c.015.38.172.741.44 1.011.269.269.629.428 1.009.445.38.017.752-.11 1.043-.356zm65.268-9.973c-.473-1.329-.835-2.691-1.253-4.031-.417-1.34-.735-2.723-1.098-4.096l-.67-3.01a91.044 91.044 0 0 1-1.351-10.753l-.176-2.394-.099-2.395a45.758 45.758 0 0 1 .099-6.129c0-.637.264-.538.484 0 .317.859.485 1.765.494 2.68v1.549l.099 1.538.11 3.086c.164 2.054.241 4.13.483 6.184.109 1.257.289 2.508.538 3.745.22 1.263.461 2.516.758 3.757l.45 2.043.527 2.032c.33 1.362.747 2.702 1.154 4.031.241.834.538 1.647.823 2.46.286.813.55 1.626.879 2.427a81.709 81.709 0 0 0 3.131 7.173c.9 1.801 1.911 3.515 2.921 5.228.22.384.429.758.659 1.098.294.503.554 1.024.78 1.56.09.269.124.553.099.835.007.095.007.19 0 .285 0 .11-.176 0-.407-.164a5.851 5.851 0 0 1-.911-1.099 64.034 64.034 0 0 1-5.492-9.786c-1.175-2.581-2.197-5.228-3.174-7.919l.143.065zm-17.596-45.198a35.505 35.505 0 0 0-4.021.132c-.494 0-.966.154-1.46.209a40.696 40.696 0 0 0-5.13.89c-.758.175-1.483.461-2.196.703-.923.351-1.813.768-2.757 1.098-.308.088-.396-.187-.286-.56.173-.475.518-.867.967-1.099a19.275 19.275 0 0 1 5.964-1.878c1.241-.209 2.504-.505 3.778-.67a41.38 41.38 0 0 1 4.207-.307c.868 0 1.735 0 2.603.077a19.39 19.39 0 0 1 1.955.175c.659.066 1.307.198 1.955.308.648.11.989.187 1.494.274a8.744 8.744 0 0 1 1.483.396c.208.077.439.121.648.219.758.396.944.627.911 1.033.006.095.006.19 0 .286-.087.285-.505.351-1.043.186a49.81 49.81 0 0 0-5.042-1.098 30.031 30.031 0 0 0-3.987-.275l-.043-.099z"/><path fill="#FF7C00" d="M441.112 63.467a8.083 8.083 0 0 1 4.316-2.197h1.253c.368.017.735.057 1.098.12a20.88 20.88 0 0 1 2.087.418c.984.216 1.955.483 2.911.802a47.093 47.093 0 0 1 9.445 4.558 16.01 16.01 0 0 1 3.801 3.054c.201.26.37.545.505.845.085.184.137.381.154.583.011.171.011.344 0 .516a8.37 8.37 0 0 1-.45 1.614 10.327 10.327 0 0 1-1.384 2.702c-.407.539-.747.165-.912-.494a4.801 4.801 0 0 1 .088-2.625c.072-.2.131-.406.176-.615.011-.19.011-.381 0-.571a.81.81 0 0 0 0-.209.688.688 0 0 1 .219 0 1.31 1.31 0 0 0 .44-.088h.054l-.604.198h-.186a.128.128 0 0 1-.055-.077.39.39 0 0 0-.11-.143l-.165-.175a2.338 2.338 0 0 0-.406-.396 11.074 11.074 0 0 0-1-.79 47.771 47.771 0 0 0-4.855-3.098 31.84 31.84 0 0 0-6.59-2.614 28.555 28.555 0 0 0-3.723-.879l-.912-.077a2.946 2.946 0 0 0-.769 0 4.551 4.551 0 0 0-1.526.571 11.463 11.463 0 0 0-3.296 3.175 22.446 22.446 0 0 0-3.295 6.392c-.143.468-.254.945-.329 1.428a4.361 4.361 0 0 0 0 .626.56.56 0 0 0 .143.352l.055.054.098.132.187.242.396.472c.255.297.53.576.823.835.265.233.552.438.857.615.538.33.901.461 1.164.637.237.171.43.397.56.66.055.13.154.263.198.384.044.12 0 .395-.373.549a2.407 2.407 0 0 1-1.593.055 6.513 6.513 0 0 1-2.515-1.406 10.26 10.26 0 0 1-.978-.978l-.439-.505-.209-.264-.285-.373c-.11-.198-.187-.418-.286-.615a3.65 3.65 0 0 1-.11-.681 3.403 3.403 0 0 1 0-.571v-.462c.068-.548.175-1.092.319-1.625.277-.998.625-1.975 1.043-2.922a22.11 22.11 0 0 1 4.844-7.15l.121.01z"/><path fill="#1C1917" d="M464.672 134.992s-5.723-2.021-2.735-5.953c2.987-3.932 13.18-6.239 14.377-15.135 0 0 .286-4.471-2.834-16.18-.615-2.328 1.099-5.008.253-7.918l-4.393-9.523-4.679-2.197.812-5.217a4.391 4.391 0 0 0-1.559-4.075l-4.537-3.713s-14.564 4.075-17.167-7.414c0 0-2.57-15.849-5.118-20.693 0 0-8.996-9.171-20.452-1.406 0 0-21.078 15.377-28.096 17.574-7.744 2.406-28.558-1.175-27.756-19.77.44-10.863 20.012-31.535 51.689-31.49 0 0 27.207-2.406 33.72 25.965l.439 2.833s14.191-13.345 28.272-.307c0 0 13.071 10.984 10.094 22.934-2.976 11.95-10.445 23.549-7.842 34.73 2.603 11.182 6.744 24.79 5.723 31.282-1.022 6.491-18.211 15.673-18.211 15.673zm-103.907-21.319s4.58.978 4.207-3.295c-.351-3.932-6.371-2.856-8.095-10.467-1.812-8.007 17.464-22.638 19.529-24.296 2.065-1.659 3.141-12.906 3.141-12.906s-10.709 8.853-15.223 13.103c-4.514 4.251-15.136 12.082-14.015 21.968 1.12 9.885 1.856 13.488 10.456 15.893z"/><path fill="#1C1917" d="M281.223 132.807a124.097 124.097 0 0 0 1.581 45.198 122.945 122.945 0 0 0 4.767 15.882l1.307 3.416c.45 1.098.967 2.197 1.439 3.361.934 2.251 2.076 4.393 3.13 6.59a120.068 120.068 0 0 0 7.502 12.565 107.376 107.376 0 0 0 19.397 21.814 95.49 95.49 0 0 0 10.622 7.491 110.027 110.027 0 0 0 11.521 5.964 134.446 134.446 0 0 0 15.608 5.7c5.316 1.593 10.709 2.889 16.091 4.262 3.35.934 2.834 1.285-.208 1.505a44.5 44.5 0 0 1-6.25-.11c-1.285-.132-2.658-.362-4.119-.615-1.461-.253-2.988-.659-4.558-1.098a118.143 118.143 0 0 1-31.754-14.114 89.68 89.68 0 0 1-13.73-10.885 110.917 110.917 0 0 1-11.445-13.181 123.87 123.87 0 0 1-24.921-84.069l.274-3.591.417-3.581c.242-2.394.703-4.756 1.099-7.128.86-4.727 1.982-9.402 3.361-14.005a132.015 132.015 0 0 1 19.056-38.937 110.958 110.958 0 0 1 23.066-23.966c1.933-1.494 3.822-2.954 5.843-4.393a80.215 80.215 0 0 1 8.183-5.174c.759-.41 1.54-.777 2.34-1.098a10.71 10.71 0 0 1 1.735-.45c.473-.077 1.099-.242 1.351-.242.989 0-1.9 2.35-7.359 6.019a149.294 149.294 0 0 0-22.934 18.99c-1.757 1.802-3.416 3.702-5.03 5.635-1.615 1.934-3.087 4.02-4.602 6.063a125.54 125.54 0 0 0-8.15 12.994 127.4 127.4 0 0 0-14.477 43.188h-.153zm247.571 10.786a130.851 130.851 0 0 1-4.196 36.092c-1.098 4.284-2.274 8.556-3.789 12.708a122.613 122.613 0 0 1-23.395 40.167 95.066 95.066 0 0 1-15.279 13.994 75.542 75.542 0 0 1-11.335 6.941c-1.966 1.022-4.042 1.834-6.096 2.669a46.782 46.782 0 0 1-6.403 1.802c-2.735.461-2.45-.077-.473-1.45.495-.363 1.099-.725 1.802-1.099.703-.373 1.461-.911 2.317-1.395 1.725-.911 3.713-1.966 5.931-2.965a82.89 82.89 0 0 0 21.375-14.641 94.804 94.804 0 0 0 8.962-9.556 115.203 115.203 0 0 0 7.821-10.654 122.187 122.187 0 0 0 13.466-29.491 136.185 136.185 0 0 0 6.315-35.225 113.593 113.593 0 0 0-1.351-21.967c-.351-2.768-1.021-5.492-1.548-8.238l-1.022-4.075-.516-2.032-.604-1.999-1.23-4.042-1.417-3.943-.714-1.966-.802-1.933c-.538-1.274-1.098-2.56-1.604-3.845a131.015 131.015 0 0 0-12.752-22.143l-3.295-4.503c-4.261-5.547-5.711-7.227-6.063-8.94a7.566 7.566 0 0 1-.285-1.099c-.132-.813 2.328.879 5.744 4.855a128.209 128.209 0 0 1 23.747 41.869 126.173 126.173 0 0 1 6.821 36.082l-.132.022zM375.365 93.222a62.367 62.367 0 0 0 .142 15.08 28.435 28.435 0 0 0 1.329 5.217 14.89 14.89 0 0 0 5.075 7.48 19.45 19.45 0 0 0 8.853 2.955c2.859.277 5.742.184 8.578-.275a42.489 42.489 0 0 0 5.349-1.263 30.801 30.801 0 0 0 5.118-1.922c1.022-.472 1.099-.088.484.791a10.046 10.046 0 0 1-4.24 3.064 35.751 35.751 0 0 1-11.698 2.274c-4.101.163-8.18-.69-11.873-2.482a15.713 15.713 0 0 1-5.678-5.064 21.951 21.951 0 0 1-3.032-6.832 51.719 51.719 0 0 1-1.098-15.827c.186-3.23.56-6.437 1.01-9.622.692-4.822 1.692-9.61 2.713-14.279.802-3.668 1.527-7.27 2.515-10.851.209-.791.396-1.571.637-2.351.923-2.91 1.384-3.79 2.032-4.273.134-.118.277-.225.429-.318.428-.176.351 1.098-.077 3.295-.648 3.295-1.34 6.59-2.054 9.885-.714 3.295-1.505 6.722-2.197 10.116a144.188 144.188 0 0 0-2.197 15.257l-.12-.055z"/><path fill="#1C1917" d="m363.954 21.07-1.515 1.966c-.516.648-.879 1.395-1.329 2.076l-.648 1.098c-.196.357-.372.723-.528 1.099l-.516 1.098c-.183.35-.331.718-.439 1.098a17.826 17.826 0 0 0-.912 9.413 16.57 16.57 0 0 0 4.196 8.392 19.474 19.474 0 0 0 8.073 5.074 25.944 25.944 0 0 0 14.191.44 39.02 39.02 0 0 0 11.796-5.196c3.724-2.317 7.25-4.997 10.841-7.688a63.73 63.73 0 0 1 11.456-7.26 22.33 22.33 0 0 1 6.678-1.9 15.555 15.555 0 0 1 6.997.78 10.31 10.31 0 0 1 4.953 3.975 18.12 18.12 0 0 1 2.329 5.745c.956 3.954 1.219 7.93 1.9 11.73a21.202 21.202 0 0 0 2.197 6.876 8.126 8.126 0 0 0 2.274 2.537 11.135 11.135 0 0 0 3.053 1.67 16.552 16.552 0 0 0 13.762-1.46l.758-.561c.22-.165.363-.319.495-.428.131-.11.428-.286.472-.231.044.055-.176.857-1.098 1.922a11.44 11.44 0 0 1-4.888 3.12c-2.7.936-5.602 1.13-8.403.56a17 17 0 0 1-2.065-.582 15.98 15.98 0 0 1-1.966-.912l-.944-.55-.879-.67a5.283 5.283 0 0 1-.846-.735 6.168 6.168 0 0 1-.769-.835 17.577 17.577 0 0 1-3.295-7.744c-1.098-5.228-1.098-10.434-2.614-15.025a9.706 9.706 0 0 0-3.745-5.415 10.986 10.986 0 0 0-6.535-1.494 19.134 19.134 0 0 0-6.964 1.78 42.806 42.806 0 0 0-6.59 3.734c-5.086 3.394-9.886 7.568-15.377 11.072a46.736 46.736 0 0 1-8.71 4.514 28.955 28.955 0 0 1-9.688 2.01h-1.362a8.066 8.066 0 0 1-1.362 0l-2.735-.23-2.691-.561c-.89-.198-1.746-.571-2.625-.846a21.244 21.244 0 0 1-8.908-6.381 19.161 19.161 0 0 1-4.207-10.116 21.742 21.742 0 0 1 1.736-10.742 34.627 34.627 0 0 1 7.579-10.797 50.137 50.137 0 0 1 10.544-7.766l2.197-1.175 2.251-1.098 1.099-.528 1.098-.45 2.296-.922a75.842 75.842 0 0 1 9.479-2.757 70.177 70.177 0 0 1 19.55-1.692 47.863 47.863 0 0 1 14.828 3.076l.901.33.857.416 1.702.857c1.099.571 2.197 1.34 3.295 2l1.571 1.306a14.64 14.64 0 0 1 1.461 1.252c.942.877 1.819 1.82 2.625 2.823l1.098 1.318c.33.45.626.934.934 1.395.307.461.637.934.912 1.428.274.494.516 1 .779 1.505.458.855.858 1.739 1.198 2.647.318.74.589 1.5.812 2.274.379 1.138.662 2.306.846 3.492.253 1.312.275 2.657.066 3.976-.033.402-.088.802-.165 1.198-.23.823-1.098-2.46-2.921-7.953a30.676 30.676 0 0 0-6.591-10.983 28.957 28.957 0 0 0-10.829-7.085c-8.293-3.075-17.761-3.36-26.79-2.043a70.235 70.235 0 0 0-19.54 5.833 46.253 46.253 0 0 0-16.08 12.005l-.066-.099z"/><path fill="#1C1917" d="M476.547 92.453a38.28 38.28 0 0 1-.9-6.239 31.85 31.85 0 0 1 .45-6.326 60.83 60.83 0 0 1 3.581-11.874l1.647-4.119a42.962 42.962 0 0 0 1.45-4.03 31.55 31.55 0 0 0 .659-14.96 22.839 22.839 0 0 0-2.768-6.975 21.8 21.8 0 0 0-2.098-3.152l-1.186-1.428c-.417-.462-.901-.868-1.351-1.307a21.068 21.068 0 0 0-11.906-5.69 24.572 24.572 0 0 0-12.588 1.637 20.45 20.45 0 0 0-1.9.944 7.78 7.78 0 0 0-.856.582 5.853 5.853 0 0 0-.835.627c-1.175 1.164-1.439.856-.637-.627a12.003 12.003 0 0 1 6.755-4.514 25.261 25.261 0 0 1 9.413-.813c1.582.16 3.148.459 4.679.89l2.197.824c.382.122.75.284 1.098.483l1.098.55 1.099.56c.34.22.659.46.988.68.637.473 1.318.901 1.922 1.417a24.968 24.968 0 0 1 3.295 3.427 22.07 22.07 0 0 1 1.45 1.89l1.208 2.02a21.746 21.746 0 0 1 1.999 4.295 30.135 30.135 0 0 1 1.582 11.291 38.216 38.216 0 0 1-.703 5.7c-.198.945-.384 1.846-.67 2.802-.285.955-.626 1.823-.966 2.701a119.23 119.23 0 0 0-4.251 11.369 40 40 0 0 0-1.307 5.843 29.86 29.86 0 0 0-.297 2.954c-.038.982-.016 1.965.066 2.944.418 4.866 1.966 9.688 3.24 14.543.495 1.845.956 3.712 1.318 5.612.363 1.9.923 3.691 1.165 5.624.285 1.943.307 3.916.066 5.865a17.332 17.332 0 0 1-1.802 5.613 19.02 19.02 0 0 1-2.669 3.723 22.913 22.913 0 0 1-3.383 2.977 33.725 33.725 0 0 1-7.864 4.152c-1.219.461-2.416.911-3.68 1.263-1.641.525-3.33.893-5.041 1.098a6.675 6.675 0 0 1-2.351-.264 6.391 6.391 0 0 1-.736-.241c-.252-.165.088-.407.901-.758a25.737 25.737 0 0 1 3.746-1.263 57.255 57.255 0 0 0 7.282-2.439 32.23 32.23 0 0 0 6.7-3.679 17.39 17.39 0 0 0 4.964-5.492 14.954 14.954 0 0 0 1.78-7.117 24.993 24.993 0 0 0-.692-5.701c-.209-.966-.483-1.933-.703-3.031a64.36 64.36 0 0 0-.637-2.922c-.934-3.91-2.197-7.82-3.076-11.906l.055-.033zm-127.321 1.823a25.989 25.989 0 0 1 6.118-11.203c1.01-1.099 1.999-2.307 3.086-3.35 3.834-3.713 7.941-6.964 11.874-10.39a71.145 71.145 0 0 0 4.997-4.779c1-1.098 1.944-2.197 2.867-3.295.922-1.098 1.878-2.197 2.757-3.394.571-.714.856-.406.791.483a8.051 8.051 0 0 1-1.483 3.867 51.51 51.51 0 0 1-6.239 6.864c-2.197 2.11-4.569 4.065-6.964 5.954a83.476 83.476 0 0 0-8.127 7.523 29.477 29.477 0 0 0-6.69 9.754 15.725 15.725 0 0 0-1.032 7.073 19.097 19.097 0 0 0 1.263 5.35 11.555 11.555 0 0 0 3.119 4.393 18.69 18.69 0 0 0 7.535 3.603c.593.175 1.208.285 1.813.439 2.273.571 2.987.879 3.394 1.527.101.134.189.277.263.428.154.417-.879.659-2.68.472a25.882 25.882 0 0 1-8.018-2.262 18.392 18.392 0 0 1-3.745-2.439 13.743 13.743 0 0 1-2.966-3.536 9.852 9.852 0 0 1-.78-1.549l-.34-.791-.242-.791a21.336 21.336 0 0 1-.791-3.229 18.524 18.524 0 0 1 .154-6.689l.066-.033z"/><path fill="#1C1917" d="M446.958 97.835c-1.384-.593-2.856-2.68-1.768-4.13a2.79 2.79 0 0 1 .9-.89c.181-.123.372-.23.572-.318l.296-.143.209-.088a10.781 10.781 0 0 1 1.614-.44 20.359 20.359 0 0 1 2.197-.384 31.229 31.229 0 0 1 3.921-.066c.658.017 1.315.072 1.966.165.709.07 1.407.23 2.076.472.228.087.437.218.615.385l1.044 1.098c.329.374.648.74.955 1.099a14 14 0 0 1 1.264 1.845c.317.665.578 1.356.779 2.065.132.44-.186.516-.659.33a5.257 5.257 0 0 1-1.691-1.209 23.689 23.689 0 0 0-1.45-1.955 32.029 32.029 0 0 0-.813-.912l-.428-.45-.22-.22-.11-.12c.154 0-.395-.176-.9-.253-.505-.077-1.099-.132-1.626-.198a19.899 19.899 0 0 0-5.162.253c-.896.105-1.776.311-2.625.615a.998.998 0 0 0-.505.318.479.479 0 0 0 0 .583c.078.116.179.217.296.296.192.148.402.27.626.362a7.258 7.258 0 0 0 1.593.473c1.735.34 3.558.373 5.492.549.195.02.389.049.582.088.217.03.43.081.637.154.404.163.776.398 1.098.692a5.905 5.905 0 0 1 1.395 1.999c.147.295.275.6.385.911.395 1.165.252 1.516-.187 1.911-.097.095-.2.183-.308.264-.318.242-.9-.143-1.241-.912a7.19 7.19 0 0 0-1.604-2.68c-.34-.252-.395-.22-1.021-.307-.626-.088-1.219-.088-1.867-.12-.989 0-2.01-.11-3.065-.265a12.43 12.43 0 0 1-3.295-.9l.033.033z"/><path fill="#1C1917" d="M473.021 86.28a59.966 59.966 0 0 1 1.68 7.49c.077.66.176 1.286.198 2.01a8.783 8.783 0 0 1-.242 2.198 14.35 14.35 0 0 1-1.57 3.734 35.484 35.484 0 0 1-3.186 4.635c-4.14 5.086-8.874 9.435-13.18 14.158a42.595 42.595 0 0 0-5.151 6.667c-.421.76-.749 1.568-.978 2.406-.253.85-.451 1.716-.593 2.592-.329 1.757-.395 3.548-.725 5.404-.132.593-.34.835-.428.769-.088-.066-.121-.374-.187-.857a19.148 19.148 0 0 1-.165-4.877 20.33 20.33 0 0 1 1.439-5.645c.099-.209.143-.253.198-.374l.187-.318c.109-.22.241-.429.362-.626.253-.418.516-.824.791-1.209a35.744 35.744 0 0 1 1.691-2.306c2.351-2.966 4.932-5.679 7.524-8.381a96.365 96.365 0 0 0 8.897-10.259 17.366 17.366 0 0 0 3.196-6.337 5.873 5.873 0 0 0 .077-1.648 20.763 20.763 0 0 0-.242-1.801 52.317 52.317 0 0 0-.757-3.647c-.363-1.482-.769-2.965-1.264-4.393a17.112 17.112 0 0 0-.845-2.054c-.15-.306-.322-.6-.517-.879-.098-.088-.142-.153-.263-.263l-.472-.308a22.721 22.721 0 0 0-6.151-2.954 31.944 31.944 0 0 0-6.722-1.395 30.752 30.752 0 0 0-4.921-.121c-.813 0-1.615.11-2.416.209-.396 0-.791.098-1.176.164-.29.037-.574.11-.845.22-.066.088-.154.132-.187.23a.326.326 0 0 0-.07.204c0 .073.024.145.07.203a.628.628 0 0 0 .154.143l.34.274a26.406 26.406 0 0 0 2.548 1.44c.424.216.799.52 1.099.889.117.126.224.262.318.406.187.374-1.098.385-3.218-.373a14.2 14.2 0 0 1-1.197-.527 6.16 6.16 0 0 1-1.263-.813 2.565 2.565 0 0 1-.945-1.89 2.706 2.706 0 0 1 1.098-1.855c.242-.11.495-.264.736-.352l.549-.154.978-.22a16.508 16.508 0 0 1 1.922-.263 34.886 34.886 0 0 1 3.866-.12c2.62.056 5.226.387 7.777.988a28.026 28.026 0 0 1 7.403 2.943c.571.352 1.098.736 1.691 1.099.395.255.738.583 1.011.966l.351.516.253.495a24.16 24.16 0 0 1 1.439 3.767h.033z"/><path fill="#FF7C00" d="M420.332 116.573c.082.604.398 1.153.879 1.527a9.132 9.132 0 0 0 2.197 1.461 26.313 26.313 0 0 0 5.492 1.966c1.395.351 2.834.56 4.261.78 1.248.198 2.506.326 3.768.384.584.051 1.172.051 1.757 0 .264-.055.297 0 .462-.176.084-.053.165-.112.241-.176l.297-.307a23.197 23.197 0 0 0 2.262-2.977 133.298 133.298 0 0 0 2.065-3.295c1.186-1.977 2.197-4.064 3.295-6.107l1.966-3.976c.67-1.318 1.395-2.614 2.109-3.899.44-.791.769-.549.879.352a9.394 9.394 0 0 1-.593 4.096 71.141 71.141 0 0 1-9.106 16.059c-.329.384-.604.757-.977 1.098l-.549.571a5.934 5.934 0 0 1-.791.593 2.69 2.69 0 0 1-1 .385 5.986 5.986 0 0 1-.834.098h-1.516a37.065 37.065 0 0 1-5.778-.527 38.87 38.87 0 0 1-6.161-1.537 15.49 15.49 0 0 1-5.866-3.175 5.775 5.775 0 0 1-1.263-1.955 4.08 4.08 0 0 1-.088-2.394 30.657 30.657 0 0 1 1.241-3.746 74.207 74.207 0 0 1 2.34-5.338c.428-.867.857-1.735 1.351-2.592.24-.443.504-.872.791-1.285a4.34 4.34 0 0 1 .527-.659c.214-.226.467-.412.747-.549.395-.22.821-.379 1.263-.473.421-.07.847-.103 1.274-.098.405.003.809.039 1.208.109.394.055.784.139 1.165.253 1.479.406 2.906.984 4.25 1.725.582.318 1.165.615 1.725.988 2.076 1.373 2.559 2.076 2.559 2.889.022.178.022.359 0 .538-.165.505-1.098.143-2.57-.725a26.758 26.758 0 0 0-6.832-3.042 4.086 4.086 0 0 0-2.768 0l-.198.109c-.219-.296.473.648-.483-.648v.088l.11.176.253.319s-.275.395-.44.67a26.61 26.61 0 0 0-.911 1.691 72.854 72.854 0 0 0-2.439 5.492 47.397 47.397 0 0 0-1.032 2.79c-.154.472-.286.922-.407 1.362l-.132.582c-.016.109-.016.22 0 .329v.176z"/><path fill="#1C1917" d="M432.034 135.498c-.176.637-.33 1.274-.462 1.922 0 .231 0 .472-.088.714-.175.824-.362 1.669-.494 2.504a8.101 8.101 0 0 0-.099 1.099c.035.48-.013.963-.142 1.427-.055.154-.374.132-.703 0-.33-.131-.67-.384-.714-.659a7.072 7.072 0 0 1 .142-2.998c.109-.606.168-1.219.176-1.834.077-.67.187-1.351.297-2.021l.23-1.231c.121-.626.286-1.252.396-1.878.038-.509.108-1.015.208-1.515a.971.971 0 0 1 .143-.33c.253-.384.506-.45.835-.329l.22.076a.978.978 0 0 1 .439.648 4.3 4.3 0 0 1 0 2.472c-.099.626-.231 1.263-.362 1.9l-.022.033zm-11.996 36.048a136.749 136.749 0 0 0 3.164 21.55c.593 2.592 1.307 5.152 2.01 7.689a140.807 140.807 0 0 0 9.885 26.262 68.724 68.724 0 0 0 6.59 10.511 36.712 36.712 0 0 0 5.382 5.679 16.088 16.088 0 0 0 6.59 3.514c1.494.231 1.406.637-.099 1.011a7.808 7.808 0 0 1-3.174-.132 11.097 11.097 0 0 1-4.031-1.955 34.138 34.138 0 0 1-6.052-6.019 57.423 57.423 0 0 1-4.723-6.92 98.407 98.407 0 0 1-7.128-15.025 193.967 193.967 0 0 1-6.415-19.255 150.068 150.068 0 0 1-4.119-21.967 104.747 104.747 0 0 1-.604-13.763 55.85 55.85 0 0 1 1.791-13.18c.074-.214.162-.423.263-.626.121-.176.264-.33.396-.494.263-.266.558-.498.878-.692a9.303 9.303 0 0 1 1.824-.89c1.21-.463 2.455-.83 3.723-1.098a66.511 66.511 0 0 1 15.948-1.209c1.184.051 2.365.161 3.537.33 4.394.67 5.92 1.966 6.195 3.141.075.242.101.496.077.747 0 .143-.143.165-.319.121-.175-.044-.362-.165-.692-.275a20.536 20.536 0 0 0-3.075-.966 37.119 37.119 0 0 0-6.821-.714 69.838 69.838 0 0 0-7.117.198c-2.38.175-4.746.502-7.085.977a23.379 23.379 0 0 0-3.295.923 8.67 8.67 0 0 0-1.395.659 1.548 1.548 0 0 0-.593.483 68.96 68.96 0 0 0-1.461 21.264l-.055.121z"/><path fill="#1C1917" d="m456.676 192.163-.813-2.384c-.252-.802-.472-1.614-.714-2.416a62.886 62.886 0 0 1-.692-2.428l-.571-2.449-.45-1.779a32.532 32.532 0 0 1-.341-1.802l-.527-3.196-.351-3.207c-.286-2.131-.33-4.284-.44-6.426l-.087-1.427v-1.439l-.066-2.845a28.467 28.467 0 0 1 .088-3.636 45.36 45.36 0 0 1 .362-3.624c.11-.747.472-.615.835 0a7.316 7.316 0 0 1 .758 3.218v7.282c0 1.208.098 2.427.131 3.636.033 1.208 0 2.449.176 3.668.121 1.461.297 2.944.527 4.394.231 1.45.593 2.954.879 4.393l1.153 4.811c.473 1.582.901 3.185 1.417 4.756.659 1.922 1.307 3.844 2.109 5.722a81.953 81.953 0 0 0 3.943 8.37c1.099 2.098 2.439 4.042 3.702 6.052.274.45.56.879.813 1.34a7.77 7.77 0 0 1 .878 1.911c.081.365.059.746-.066 1.098a2.066 2.066 0 0 1-.121.374c-.087.143-.285.066-.593-.165a4.452 4.452 0 0 1-1.153-1.197 73.789 73.789 0 0 1-6.898-11.335 85.973 85.973 0 0 1-4.009-9.347l.121.077zm17.697 8.863a185.146 185.146 0 0 0-2.395-11.95c-.329-1.439-.758-2.856-1.098-4.295a118.591 118.591 0 0 0-4.789-14.872 41.894 41.894 0 0 0-3.119-6.139 23.914 23.914 0 0 0-2.604-3.438 11.814 11.814 0 0 0-3.185-2.603c-.736-.396-.626-.725.286-.824a5.017 5.017 0 0 1 4.009 1.614 29.8 29.8 0 0 1 5.305 7.854 57.795 57.795 0 0 1 3.405 8.655c1.098 3.537 2.306 7.172 3.295 10.819a191.72 191.72 0 0 1 2.68 12.137c.461 2.493.879 5.008 1.263 7.523.582 3.812 1.022 7.689 1.406 11.467.297 2.966.615 5.877.703 8.853v1.966c.004.878-.103 1.753-.319 2.603a2.015 2.015 0 0 1-.779 1.099 2.752 2.752 0 0 1-.44.263c-.472.143-.681-.856-.703-2.57a157.256 157.256 0 0 0-1.098-15.981c-.483-4.042-1.099-8.106-1.779-12.137l-.044-.044zm-85.268-31.424c.582 1.45 2.394 2.384 4.393 2.724.361.076.73.113 1.099.11.365.021.732.021 1.098 0a19.864 19.864 0 0 0 7.82-1.834 19.37 19.37 0 0 0 3.186-1.802c1.252-.922 2.471-1.867 3.712-2.823.384-.285.582 0 .549.506a3.776 3.776 0 0 1-.966 2.196c-.295.317-.607.618-.934.901l-1.021.78c-.733.491-1.465.952-2.197 1.384a19.325 19.325 0 0 1-4.778 1.878 22.42 22.42 0 0 1-6.283.978 11.705 11.705 0 0 1-3.526-.637 7.7 7.7 0 0 1-3.174-1.944 6.347 6.347 0 0 1-1.57-4.284c.07-2.157.535-4.283 1.373-6.272.56-1.527 1.098-3.031 1.724-4.492.143-.319.264-.648.417-.967.56-1.175.879-1.461 1.527-1.439a2.78 2.78 0 0 1 .428 0c.462.099.55.736.231 1.648-.934 2.669-2.197 5.294-2.933 7.952-.549 1.944-.823 4.009-.109 5.415l-.066.022zm-47.494 28.294c2.9-5.151 6.151-10.083 9.501-14.927 1.274-1.735 2.428-3.559 3.757-5.25 2.306-3.02 4.69-5.964 7.227-8.787l1.9-2.12c.648-.703 1.329-1.373 1.988-2.054.659-.681 1.318-1.362 2.032-2.01.714-.648 1.384-1.318 2.131-1.933a44.356 44.356 0 0 1 8.49-5.678 38.926 38.926 0 0 1 6.019-2.56 22.96 22.96 0 0 1 3.218-.779 16.525 16.525 0 0 1 1.659-.209c.56 0 1.098.088 1.68.121 1.406.131 1.099.505 0 .933-.549.198-1.274.703-2.141 1.022-.868.318-1.857.758-2.955 1.098a42.334 42.334 0 0 0-5.733 2.46 48.803 48.803 0 0 0-5.492 3.087 63.808 63.808 0 0 0-9.523 8.424 119.034 119.034 0 0 0-9.984 12.39c-3.493 4.723-6.689 9.655-9.765 14.652-1.801 3.13-3.646 6.25-5.25 9.479a142.107 142.107 0 0 0-6.733 14.949c-.714 1.988-1.318 3.987-1.955 5.975-.637 1.988-1.032 4.02-1.571 6.03-.219.879-.439 1.757-.593 2.658-.703 3.295-1.098 4.393-1.856 4.987a4.926 4.926 0 0 1-.516.406c-.538.242-.637-1.208-.275-3.756a93.105 93.105 0 0 1 6.711-22.605c.538-1.384 1.219-2.713 1.823-4.086.605-1.373 1.22-2.724 1.923-4.042 1.384-2.647 2.702-5.327 4.217-7.897l.066.022zm14.624 35.06a38.867 38.867 0 0 1 1.725-5.228c.241-.615.439-1.252.703-1.857.944-2.119 2.02-4.162 3.086-6.194.461-.901.923-1.824 1.351-2.735a18.56 18.56 0 0 1 1.834-3.416c.483-.659 1.626 1.098 1.044 2.438-.583 1.34-1.099 2.384-1.67 3.559-.571 1.175-1.263 2.295-1.944 3.438a35.036 35.036 0 0 0-1.966 4.393 45.571 45.571 0 0 0-1.757 4.943 20.633 20.633 0 0 0-.649 3.13 9.678 9.678 0 0 0 .352 4.635 6.015 6.015 0 0 0 2.098 2.614l.637.396c.78.516.988.835 1.043 1.274.006.099.006.198 0 .297 0 .274-.494.384-1.362.252a6.597 6.597 0 0 1-3.383-2.197 7.834 7.834 0 0 1-1.614-3.899 16.546 16.546 0 0 1 .373-5.832l.099-.011zm51.874 14.696c3.814-.523 7.653-.846 11.5-.966h2.197c.736 0 1.417.109 2.131.197 2.458.375 4.879.96 7.238 1.747a42.824 42.824 0 0 1 6.865 2.987 42.356 42.356 0 0 1 5.59 3.57c.579.414 1.136.858 1.67 1.329.553.454 1.071.95 1.549 1.483a13.502 13.502 0 0 1 2.35 3.602c.363.835 0 .835-.681.407a25.496 25.496 0 0 1-2.933-2.197 42.932 42.932 0 0 0-13.663-8.633 35.061 35.061 0 0 0-15.432-2.197c-1.889.132-3.779.319-5.668.538-2.336.279-4.664.586-6.985.923-3.526.516-7.074 1.032-10.556 1.647-2.713.473-5.36 1.099-8.029 1.582-.593.11-1.164.253-1.768.319-2.197.274-2.966.197-3.515-.253a3.708 3.708 0 0 1-.362-.275c-.253-.318.593-.823 2.196-1.252 2.34-.703 4.8-1.098 7.283-1.625 2.482-.527 5.008-.912 7.556-1.34a382.58 382.58 0 0 1 11.401-1.714l.066.121z"/><path fill="#1C1917" d="M440.357 261.414a33.264 33.264 0 0 0-3.196-2.273 5.753 5.753 0 0 0-1.187-.506 34.809 34.809 0 0 0-4.909-1.384 24.86 24.86 0 0 0-2.197-.351c-.956-.088-1.944-.099-2.812-.209-.263 0-.34-.296-.132-.659a1.775 1.775 0 0 1 1.362-.846 19.865 19.865 0 0 1 3.142.099c1.028.152 2.041.388 3.031.703 1.186.385 2.439.538 3.724 1.022a17.76 17.76 0 0 1 3.624 2.306c.681.517 1.34 1.099 1.999 1.593 1 .824 1.955 1.691 2.911 2.537.758.659 1.549 1.252 2.274 1.977.168.15.326.312.472.484.582.637.494 1.098.22 1.416a1.508 1.508 0 0 1-.209.242c-.253.209-.67.088-1.098-.22-1.187-1.098-2.516-2.196-3.867-3.394a69.686 69.686 0 0 0-3.119-2.504l-.033-.033zm-21.409 4.46c.912-.242 1.791-.549 2.691-.879l.769-.274c.209-.088.45 0 .659-.143.218-.007.436.015.648.066l1.417.219c1.9.286 3.877.451 5.909.89.743.164 1.477.37 2.197.615.758.264 1.395.56 2.032.824a33.89 33.89 0 0 0 3.438 1.285c.562.181 1.134.328 1.713.439a7.1 7.1 0 0 0 .78.121c.113.011.227.011.341 0 .091.002.18-.02.26-.064a.512.512 0 0 0 .19-.188.435.435 0 0 0 0-.176 1.31 1.31 0 0 0-.187-.319 4.355 4.355 0 0 0-.362-.406 22.3 22.3 0 0 0-2.812-2.329 16.067 16.067 0 0 0-1.362-.889 7.52 7.52 0 0 0-1.34-.67c-1.098-.286-2.197-.67-3.229-1.022l-4.053-1.34c-1.34-.439-2.713-.944-3.976-1.307l-.242-.088a.354.354 0 0 1-.11-.066.489.489 0 0 1-.11-.241c0-.154.176-.429.616-.571a6.85 6.85 0 0 1 3.976.164c1.406.44 2.789.912 4.162 1.384l2.043.703.978.308.56.164c.233.073.46.161.681.264a23.308 23.308 0 0 1 3.888 2.548 20.701 20.701 0 0 1 1.736 1.56l.538.571.56.769c.135.255.253.519.352.791.046.253.064.511.055.769v.241l-.143.198c-.088.14-.187.272-.297.395a2.359 2.359 0 0 1-.78.561c-.332.123-.679.2-1.032.23a7.2 7.2 0 0 1-1.099 0 17.432 17.432 0 0 1-2.833-.582 43.494 43.494 0 0 1-5.163-1.889 21.683 21.683 0 0 0-5.491-1.219l-2.955-.385-.747-.11-.549-.087c-.099 0-.725.252-1.153.406a30.195 30.195 0 0 1-7.261 1.757 21.549 21.549 0 0 1-5.7-.164 19.465 19.465 0 0 1-5.393-1.846l-.945-.571-.483-.274-.11-.077a.228.228 0 0 0-.132 0 3.164 3.164 0 0 0-.79 0l-.989.132c-1.351.23-2.713.549-4.086.834-.615.121-1.208.264-1.834.374-2.307.373-3.152.23-3.669-.308a1.6 1.6 0 0 1-.318-.373c-.176-.429.67-.692 2.273-1.099 2.395-.538 4.844-1.208 7.546-1.669.363 0 .692-.099 1.099-.121.211-.018.425-.018.637 0 .305.009.607.057.9.143.158.038.307.105.44.198l.329.197.395.22.769.461c.539.264 1.099.494 1.637.758s1.098.374 1.702.571c3.604.838 7.367.694 10.896-.417l-.077.033zm-23.207-80.763a4.962 4.962 0 0 1-1.824 3.141 5.08 5.08 0 0 1-.944.747 5.225 5.225 0 0 1-1.033.462l-.659.109a5.18 5.18 0 0 1-.725-.054 2.105 2.105 0 0 1-1.083-.797 2.09 2.09 0 0 1-.377-1.29 5.756 5.756 0 0 1 .274-1.824 3.297 3.297 0 0 1 1.252-1.9c.198-.132.418.176.571.571.181.337.224.731.121 1.099a3.892 3.892 0 0 0-.45 1.461v.593a.322.322 0 0 0 0 .252c.055.121.187.154.417.055l.407-.23.428-.319a3.856 3.856 0 0 0 1.351-1.735c.137-.38.137-.796 0-1.176a.9.9 0 0 0-.428-.571.78.78 0 0 0-.714 0 2.739 2.739 0 0 0-.89 1.263c-.055.11-.099.231-.154.341-.219.417-.439.472-1.021.34-.132 0-.275-.055-.396-.099a.844.844 0 0 1-.615-.977c.017-.382.114-.757.286-1.098.08-.176.168-.352.264-.528.114-.184.247-.357.395-.516a3.369 3.369 0 0 1 1.153-.89l.879-.241c.311-.022.623-.022.934 0a3.29 3.29 0 0 1 2.196 1.57 4.05 4.05 0 0 1 .429 2.197l-.044.044zm-.122 11.137a6.422 6.422 0 0 1-1.56 3.57 5.193 5.193 0 0 1-.802.835 2.834 2.834 0 0 1-2.35.527 2.187 2.187 0 0 1-1.036-.669 2.188 2.188 0 0 1-.513-1.121 4.082 4.082 0 0 1 .11-1.802 2.9 2.9 0 0 1 1.175-1.68c.198-.121.45.209.659.615.21.325.299.714.253 1.098a2.438 2.438 0 0 0-.33 1.099v.351a.405.405 0 0 0 0 .253c.055.132.176.132.319.088.209-.107.398-.248.56-.418.238-.233.452-.491.637-.769.124-.172.238-.352.341-.538.13-.25.195-.53.186-.813a.706.706 0 0 0-.285-.582.516.516 0 0 0-.615.066 1.561 1.561 0 0 0-.484.978v.187c-.142.274-.329.274-.867.142l-.374-.077c-.406-.087-.648-.439-.648-1.032a2.012 2.012 0 0 1 .077-.659c.099-.231.209-.472.329-.714.231-.459.548-.869.934-1.208a2.965 2.965 0 0 1 1.164-.582c.401-.127.83-.127 1.231 0a2.359 2.359 0 0 1 1.504 1.098c.34.545.497 1.183.451 1.823l-.066-.066zM443.446 88.96a2.936 2.936 0 0 1-.582-.351l-.637-.462a8.165 8.165 0 0 1-.637-.747l-.319-.362a1.1 1.1 0 0 1-.241-.395 2.2 2.2 0 0 1-.11-1.747c.21-.566.595-1.05 1.098-1.384a8.146 8.146 0 0 1 2.669-1.098 29.937 29.937 0 0 1 2.197-.44c1.098-.164 2.131-.351 3.207-.439a87.548 87.548 0 0 1 5.613-.263h2.834a13.44 13.44 0 0 1 2.932.395 6.227 6.227 0 0 1 2.461 1.252c.658.55 1.278 1.145 1.856 1.78a14.85 14.85 0 0 1 3.504 5.491c.164.747-.33.681-.912.34a6.416 6.416 0 0 1-2.043-1.877 20.619 20.619 0 0 0-3.954-4.394 3.494 3.494 0 0 0-1.098-.538 9.438 9.438 0 0 0-1.351-.297 19.184 19.184 0 0 0-3.032-.154 54.634 54.634 0 0 0-7.765.67 32.499 32.499 0 0 0-4.119.791 8.438 8.438 0 0 0-.934.308l-.263.099-.209.11a.616.616 0 0 0-.297.351.522.522 0 0 0 .154.428c.44.457.982.803 1.582 1.01a9.879 9.879 0 0 0 2.394.561c2.652.182 5.314.112 7.952-.209.67-.054 1.351-.099 2.043-.12h-.099a4.857 4.857 0 0 1 2.527.439 8.32 8.32 0 0 1 1.999 1.296c.387.313.754.65 1.098 1.01 1.186 1.362 1.318 1.956 1.098 2.593a2.614 2.614 0 0 1-.208.428c-.297.384-.978 0-1.824-.813a13.498 13.498 0 0 0-2.317-1.845 3.297 3.297 0 0 0-2.098-.593h-.198c-1.34 0-2.976.241-4.602.362a33.399 33.399 0 0 1-4.58 0 12.558 12.558 0 0 1-4.866-1.197l.077.011zm-48.815-12.774a5.005 5.005 0 0 1-3.075.966 4.394 4.394 0 0 1-2.878-1.34 4.95 4.95 0 0 1-.736-.856l-.307-.462-.198-.483c-.615-2.159-.58-4.45.099-6.59.252-.879.461-1.78.736-2.647a10.345 10.345 0 0 1 1.329-3.23c.208-.307.604-.065.9.396a2.196 2.196 0 0 1 .33 1.725c-.681 2.108-1.175 4.25-1.648 6.348a5.23 5.23 0 0 0 .506 3.526l.23.373c.101.097.196.2.286.308.211.203.452.374.714.505a1.754 1.754 0 0 0 1.538 0 5.5 5.5 0 0 0 1.911-1.603 17.173 17.173 0 0 0 2.196-3.581 21.95 21.95 0 0 0 1.099-3.141c.077-.231.121-.473.208-.714a1.41 1.41 0 0 1 .627-.824 1.71 1.71 0 0 1 .878-.088h.341c.154.055.23.198.395.428.193.264.294.585.286.912a16.56 16.56 0 0 1-2.197 6.008 14.076 14.076 0 0 1-3.504 4.042l-.066.022zm18.397 3.68a8.334 8.334 0 0 1-2.438 1.471 4.275 4.275 0 0 1-2.373.319 2.346 2.346 0 0 1-.812-.176 4.002 4.002 0 0 1-1.099-.494l-.516-.352a5.26 5.26 0 0 1-.406-.46 5.937 5.937 0 0 1-1.099-3.472 13.595 13.595 0 0 1 .297-3.174c.209-.9.362-1.801.582-2.669a8.198 8.198 0 0 1 1.329-3.207c.231-.308.494-.1.725.318.287.504.42 1.08.384 1.659-.142 1.098-.428 2.12-.56 3.185a118.542 118.542 0 0 1-.417 3.108 3.29 3.29 0 0 0 .911 2.878 2.463 2.463 0 0 0 2.999-.274 9.637 9.637 0 0 0 1.878-1.802 18.287 18.287 0 0 0 2.263-3.493c.452-.988.82-2.013 1.098-3.064.077-.22.11-.461.198-.681a1.095 1.095 0 0 1 .937-.937c.157-.022.317-.01.469.036h.439a.874.874 0 0 1 .56.429c.193.267.283.594.253.922a14.854 14.854 0 0 1-2.263 5.975 18.248 18.248 0 0 1-3.295 3.977l-.044-.022z"/><path fill="#1C1917" d="M399.059 72.474a38.061 38.061 0 0 0 4.196-7.689c.4-.988.748-1.996 1.044-3.02.318-.89.494-1.79.746-2.691.19-.895.323-1.801.396-2.713l.055-.67v-1.275l-.165-.505a4.446 4.446 0 0 0-1.626-1.78 11.755 11.755 0 0 0-4.547-1.592 17.104 17.104 0 0 0-6.14.253c-.56.165-.747-.187-.362-.824a3.964 3.964 0 0 1 2.845-1.614 16.574 16.574 0 0 1 7.161.955 9.994 9.994 0 0 1 3.295 1.966c.252.248.486.512.703.791.214.306.401.629.56.967.141.354.244.722.308 1.098l.077.977a24.772 24.772 0 0 1-1.461 8.535 44.613 44.613 0 0 1-3.976 8.402l-1.571 2.384-1.746 2.262a36.535 36.535 0 0 1-6.228 5.986c-.45.33-.857.725-1.329 1.022l-1.395.912a18.073 18.073 0 0 1-2.922 1.636 8.741 8.741 0 0 1-1.351.604c-1.79.505-2.405.505-2.899 0a3.056 3.056 0 0 1-.33-.318c-.242-.374.352-.967 1.494-1.461l1.274-.55c.406-.24.813-.472 1.23-.68l1.252-.637c.407-.22.791-.506 1.187-.758l1.208-.758c.382-.264.749-.55 1.098-.857a20.798 20.798 0 0 0 2.197-1.845 35.157 35.157 0 0 0 5.689-6.59l.033.077zm16.09-17.541c3.866-.363 8.281-.055 10.632 3.47 1.098 1.604 3.69.1 2.603-1.526-2.977-4.47-8.183-5.437-13.18-4.965-1.923.176-1.934 3.196 0 3.02h-.055zm-27.352 51.129c2.801 1.845 6.063-.352 7.612-2.801 1.043-1.648-1.571-3.163-2.603-1.527-.67 1.099-2.197 2.581-3.482 1.714-1.637-1.099-3.142 1.548-1.527 2.614zm1.78 67.637a5.994 5.994 0 0 0 3.437 2.109c.527.096 1.059.158 1.593.186a16.318 16.318 0 0 0 5.832-.67 15.442 15.442 0 0 0 2.494-.944c1.01-.516 2.021-1.033 3.097-1.472.33-.132.428.099.319.494a2.897 2.897 0 0 1-1 1.406 16.08 16.08 0 0 1-6.909 2.57c-1.52.253-3.063.334-4.602.242a8.51 8.51 0 0 1-4.789-1.955 6.853 6.853 0 0 1-1.878-2.625 9.826 9.826 0 0 1-.648-4.679c.08-1.2.282-2.389.604-3.548.088-.252.154-.505.253-.747.373-.922.659-1.098 1.098-1.098.113-.018.228-.018.341 0 .351.088.428.571.23 1.197a16.206 16.206 0 0 0-.856 5.712 6.324 6.324 0 0 0 1.373 3.756l.011.066zm132.847-38.333.461 5.854c.055 1.955.165 3.911.176 5.866v4.283a126.672 126.672 0 0 1-1.505 14.993l-.549 3.295-.626 3.295c-.637 2.757-1.099 5.657-2.548 8.194-.517.758-.736.516-.945-.373a7.764 7.764 0 0 1 .143-3.812 128.077 128.077 0 0 0 3.383-16.695c.436-3.49.645-7.005.626-10.522v-2.911c0-.967-.066-1.933-.088-2.9l-.099-2.91-.242-2.9c-.142-2.384-.516-4.745-.834-7.106a86.266 86.266 0 0 0-2.318-10.589c-.198-.67-.373-1.34-.593-1.988l-.736-1.944c-.505-1.285-.955-2.57-1.494-3.833-.263-.549-.505-1.099-.768-1.648-.901-2.065-1.099-2.768-.78-3.449.042-.15.097-.297.164-.439.187-.329.967.341 1.703 1.867.571 1.099 1.098 2.263 1.691 3.427.593 1.164.923 2.417 1.395 3.636l.681 1.856c.209.626.374 1.274.56 1.911a167.08 167.08 0 0 0 1.099 3.833c.428 1.934.813 3.878 1.208 5.822l.857 5.887h-.022zm-206.775-65.1c-2.12 2.46-4.108 5.063-6.008 7.689-.692.977-1.296 1.999-1.977 2.987-2.34 3.482-4.603 7.04-6.591 10.742a64.787 64.787 0 0 0-2.504 5.009 66.844 66.844 0 0 1-3.009 6.48c-.484.604-.714.417-.956-.362a5.712 5.712 0 0 1-.198-1.505c.014-.649.16-1.288.429-1.878a87.487 87.487 0 0 1 7.051-13.06l2.406-3.833a91.793 91.793 0 0 1 2.471-3.855c1.867-2.768 3.888-5.437 5.986-8.04.626-.813 1.329-1.571 1.999-2.351.67-.78 1.329-1.57 2.043-2.318 1.098-1.098 2.131-2.273 3.295-3.35 1.164-1.076 2.252-2.196 3.438-3.152.923-.769 1.823-1.56 2.724-2.35l2.867-2.197a8.84 8.84 0 0 1 1.318-.879c1.724-.977 2.339-1.197 2.943-.911.132.04.261.092.385.153.296.187-.198.978-1.362 1.725-1.758 1.098-3.383 2.46-5.108 3.712-1.614 1.428-3.295 2.78-4.854 4.394-1.209 1.098-2.318 2.284-3.438 3.481-1.121 1.198-2.197 2.45-3.295 3.68l-.055-.011z"/></svg>