<svg xmlns="http://www.w3.org/2000/svg" xmlns:xlink="http://www.w3.org/1999/xlink" viewBox="0 0 167 228"><path d="M 64.372 155.743 C 60.342 152.862 56.621 149.57 53.271 145.921 C 52.044 144.621 50.806 143.331 49.66 141.949 C 47.7 139.487 45.86 136.938 44.141 134.304 C 42.469 131.663 40.87 128.97 39.457 126.174 C 38.229 123.688 36.981 121.202 35.918 118.664 C 35.258 117.018 34.7 115.333 34.247 113.619 C 33.821 111.903 33.498 110.163 33.277 108.409 C 33.143 107.315 33.38 107.429 33.896 108.244 C 34.164 108.656 34.495 109.275 34.876 109.946 C 35.364 110.715 35.808 111.511 36.207 112.329 L 40.881 121.614 C 41.696 123.141 42.521 124.709 43.398 126.174 C 43.8 126.938 44.244 127.691 44.677 128.444 C 45.111 129.197 45.554 129.961 46.008 130.704 C 48.314 134.319 50.979 137.693 53.962 140.773 C 57.119 144.265 60.571 147.479 64.279 150.378 C 66.555 152.167 68.969 153.772 71.501 155.175 C 75.269 157.339 79.352 158.899 83.603 159.797 C 86.851 160.316 90.159 160.34 93.414 159.869 C 94.126 159.797 94.807 159.663 95.478 159.56 C 96.148 159.457 96.695 159.426 97.159 159.405 C 97.55 159.365 97.944 159.365 98.335 159.405 C 98.902 159.456 99.437 159.688 99.862 160.065 C 100.056 160.217 100.242 160.379 100.419 160.55 C 100.646 160.829 100.522 161.18 100.1 161.582 C 99.461 162.168 98.724 162.636 97.923 162.964 L 95.57 163.779 C 94.76 164.009 93.936 164.192 93.105 164.326 C 92.266 164.485 91.418 164.592 90.567 164.646 C 89.708 164.713 88.846 164.713 87.987 164.646 C 84.514 164.525 81.077 163.899 77.784 162.789 C 72.955 161.134 68.389 158.792 64.228 155.835 Z" fill="rgb(28,25,23)"/><path d="M 89.208 54.338 C 41.946 56.123 35.488 67.977 28.658 65.78 C 41.668 69.999 61.456 80.295 89.414 75.467 C 89.414 75.467 116.393 70.804 134.396 59.672 C 135.159 59.208 107.541 53.647 89.208 54.338 Z" fill="rgb(28,25,23)" opacity="0.3"/><path d="M 4.364 80.739 C 5.528 79.239 7.04 78.046 8.769 77.262 C 9.377 76.954 10.017 76.715 10.678 76.55 C 12.932 76.164 15.246 76.342 17.415 77.066 C 17.869 77.221 18.323 77.365 18.787 77.499 L 20.128 77.953 C 21.295 78.278 22.393 78.813 23.367 79.532 C 23.656 79.779 23.367 80.254 22.8 80.615 C 22.544 80.824 22.242 80.969 21.919 81.037 C 21.596 81.105 21.261 81.095 20.943 81.007 C 18.914 80.187 16.824 79.528 14.691 79.037 C 13.42 78.843 12.12 78.993 10.925 79.47 C 9.596 79.91 8.403 80.685 7.459 81.719 C 6.841 82.378 6.32 83.121 5.911 83.927 C 5.228 85.159 4.774 86.505 4.57 87.899 C 4.469 88.964 4.553 90.039 4.818 91.076 L 5.003 91.706 C 5.189 92.49 5.107 92.737 4.477 93.181 C 4.333 93.284 4.199 93.408 4.044 93.511 C 3.932 93.593 3.802 93.645 3.665 93.663 C 3.528 93.681 3.389 93.664 3.26 93.614 C 2.93 93.47 2.666 93.209 2.517 92.882 C 1.51 90.627 1.316 88.093 1.97 85.712 C 2.177 84.812 2.471 83.934 2.847 83.091 C 3.256 82.246 3.743 81.441 4.302 80.687 Z" fill="rgb(28,25,23)"/><g transform="translate(84.295 209.847)" id="ss1020932278_4"><path d="M 2.688 3.67 C 2.002 3.99 1.235 4.091 0.49 3.959 C 0.212 3.959 -0.139 3.536 0.057 3.299 C 0.411 2.821 0.839 2.403 1.326 2.061 C 1.398 2.009 1.759 1.844 2.296 1.596 C 2.95 1.339 3.618 1.119 4.297 0.936 C 5.635 0.574 6.997 0.305 8.372 0.131 C 10.056 -0.044 11.754 -0.044 13.438 0.131 C 14.305 0.204 15.171 0.327 16.069 0.492 C 16.533 0.596 16.977 0.688 17.461 0.843 L 18.204 1.101 L 18.823 1.359 C 20.488 2.07 22.052 2.996 23.476 4.114 C 24.123 4.621 24.711 5.199 25.23 5.837 C 26.129 6.932 26.917 8.114 27.582 9.365 L 28.181 10.51 C 28.444 11.009 28.671 11.526 28.862 12.058 C 29.235 12.954 29.338 13.94 29.161 14.895 C 29.009 15.467 28.726 15.997 28.335 16.442 C 28.176 16.589 28.003 16.72 27.82 16.834 C 27.446 17.091 27.004 17.231 26.551 17.237 C 25.814 17.274 25.076 17.257 24.343 17.185 L 22.383 17.01 C 20.536 16.845 18.741 16.752 18.338 16.607 C 16.358 16.101 14.333 15.79 12.293 15.679 C 12.004 15.679 11.715 15.741 11.436 15.576 C 10.851 15.307 10.19 15.252 9.569 15.421 C 8.713 15.545 7.867 15.617 7 15.72 C 6.543 15.745 6.085 15.745 5.628 15.72 C 5.205 15.72 5.153 15.091 5.267 14.977 C 5.587 14.647 5.164 14.513 5.019 14.307 C 4.968 14.236 4.933 14.155 4.916 14.069 C 5.705 13.397 6.583 12.838 7.526 12.408 C 8.592 11.902 9.714 11.524 10.869 11.284 C 10.869 11.284 11.457 11.212 12.282 11.139 C 13.108 11.067 14.201 11.026 15.305 11.026 C 16.949 11.017 18.592 11.099 20.226 11.274 C 20.705 11.352 21.172 11.487 21.619 11.676 L 22.733 11.882 L 23.765 12.068 C 24.033 12.12 23.971 12.068 23.992 12.068 C 24.085 12.006 23.992 11.882 23.992 11.903 L 24.044 11.903 L 23.91 11.439 C 23.838 11.225 23.741 11.02 23.621 10.83 C 22.609 9.178 21.301 7.726 19.762 6.548 C 18.928 5.945 18.037 5.427 17.1 5.001 C 16.935 4.918 16.781 4.805 16.615 4.712 C 16.444 4.612 16.265 4.525 16.079 4.454 C 13.66 3.781 11.148 3.503 8.641 3.629 C 8.352 3.629 7.495 3.629 6.577 3.577 C 5.888 3.543 5.197 3.578 4.514 3.68 C 4.266 3.598 2.977 3.474 2.688 3.67 Z" fill="rgb(28,25,23)"/></g><path d="M 108.005 76.674 C 106.158 77.252 104.291 77.706 102.423 78.191 C 100.556 78.676 98.668 79.068 96.78 79.48 C 95.418 79.81 94.036 80.079 92.653 80.326 C 90.229 80.79 87.753 81.017 85.297 81.358 C 82.842 81.698 80.366 81.791 77.89 81.781 C 75.692 81.884 73.484 81.781 71.308 81.781 C 69.904 81.719 68.501 81.533 67.109 81.399 C 66.408 81.329 65.717 81.187 65.045 80.976 L 62.982 80.419 C 62.146 80.182 62.311 80.027 63.085 79.914 C 64.312 79.748 65.554 79.71 66.789 79.8 C 72.371 80.178 77.974 80.102 83.543 79.573 C 86.988 79.26 90.407 78.716 93.778 77.943 C 95.645 77.603 97.492 77.097 99.359 76.695 C 101.227 76.292 103.042 75.663 104.879 75.199 C 107.117 74.477 109.387 73.847 111.574 73.001 L 114.092 72.093 C 114.927 71.794 115.742 71.433 116.568 71.062 L 119.033 70.03 L 121.427 68.885 C 122.036 68.575 122.655 68.287 123.243 67.946 L 124.986 66.914 L 126.72 65.883 L 128.381 64.748 C 128.876 64.418 129.34 64.077 129.846 63.716 C 131.61 62.426 132.27 62.148 133.044 62.354 C 133.223 62.389 133.399 62.437 133.57 62.499 C 134.044 62.746 133.57 63.613 132.28 64.748 C 128.297 68.055 123.838 70.743 119.054 72.723 C 117.249 73.476 115.464 74.26 113.607 74.889 L 110.852 75.859 L 108.056 76.736 Z" fill="rgb(28,25,23)"/><path d="M 92.796 167.968 C 91.73 168.222 90.647 168.394 89.556 168.484 C 89.159 168.567 88.755 168.619 88.349 168.639 C 86.934 168.573 85.539 168.273 84.222 167.752 C 83.655 167.576 83.118 167.37 82.572 167.225 C 81.826 167.122 81.142 166.756 80.642 166.194 C 80.488 165.998 80.869 165.306 81.354 164.646 C 81.839 163.986 82.448 163.326 82.788 163.377 C 83.361 163.45 83.929 163.553 84.49 163.687 C 85.033 163.838 85.553 164.06 86.038 164.347 C 86.35 164.525 86.715 164.591 87.07 164.533 C 87.41 164.533 87.74 164.419 88.101 164.399 C 88.895 164.338 89.68 164.193 90.443 163.965 C 90.939 163.831 91.475 163.687 91.981 163.491 C 92.807 163.2 93.613 162.855 94.395 162.459 C 95.014 162.139 95.53 161.52 96.221 161.149 C 96.364 161.049 96.516 160.963 96.675 160.891 C 97.314 160.726 97.593 160.994 97.913 162.098 C 97.995 162.346 98.067 162.593 98.129 162.851 C 98.321 163.51 98.289 164.214 98.037 164.853 C 97.479 165.818 96.593 166.55 95.54 166.916 C 94.766 167.287 93.817 167.628 92.858 167.948 Z" fill="rgb(28,25,23)"/><path d="M 82.12 103.054 C 82.12 102.558 82.225 102.067 82.428 101.614 C 82.63 101.16 82.926 100.755 83.296 100.423 C 83.352 100.383 83.417 100.359 83.486 100.352 C 83.554 100.345 83.623 100.356 83.686 100.384 C 83.748 100.412 83.803 100.457 83.843 100.512 C 83.883 100.568 83.908 100.634 83.915 100.702 C 83.915 101.259 83.915 101.858 83.966 102.435 C 83.966 102.652 83.966 104.189 83.966 105.933 C 83.991 107.689 83.704 109.435 83.121 111.091 C 83.003 111.41 82.844 111.712 82.646 111.989 C 82.441 112.309 82.195 112.6 81.913 112.855 C 81.771 113.002 81.612 113.13 81.439 113.237 L 81.016 113.505 L 80.913 113.567 L 81.005 113.567 C 81.005 113.567 80.944 113.567 81.14 113.639 L 82.017 114.062 C 82.367 114.3 82.687 114.568 83.048 114.815 C 83.409 115.063 83.347 115.094 83.502 115.218 C 83.703 115.467 83.876 115.737 84.018 116.023 C 84.147 116.313 84.224 116.624 84.245 116.941 L 84.142 117.9 L 83.853 118.88 C 83.698 119.334 83.74 119.2 83.719 119.241 L 83.719 119.303 L 83.647 119.448 C 83.56 119.613 83.518 119.798 83.523 119.984 C 83.523 119.984 83.523 120.16 83.698 119.85 C 83.791 119.695 83.822 119.706 83.925 119.52 C 84.028 119.334 84.008 119.345 84.1 119.345 L 84.183 119.252 L 84.183 119.2 L 84.307 119.066 C 84.371 118.996 84.44 118.93 84.513 118.87 C 84.66 118.746 84.823 118.642 84.998 118.561 C 85.166 118.471 85.347 118.409 85.535 118.375 L 85.648 118.375 L 86.04 118.375 L 86.329 118.375 L 86.484 118.375 L 86.731 118.437 C 87.143 118.553 87.543 118.705 87.928 118.891 C 88.588 119.19 89.176 119.489 89.775 119.799 L 93.262 121.604 C 93.611 121.731 93.939 121.912 94.232 122.14 C 94.834 122.664 95.536 123.061 96.295 123.306 L 99.266 124.524 C 99.504 124.617 99.72 124.73 99.937 124.823 C 100.132 124.897 100.318 124.99 100.494 125.101 C 100.588 125.157 100.677 125.219 100.762 125.287 C 100.793 125.323 100.811 125.369 100.811 125.416 C 100.811 125.463 100.793 125.509 100.762 125.545 C 100.288 125.824 100.762 125.896 100.865 125.968 C 100.969 126.04 100.969 126.051 100.948 126.112 C 100.817 126.216 100.671 126.3 100.515 126.36 C 100.374 126.421 100.224 126.456 100.071 126.463 C 99.906 126.463 99.731 126.463 99.555 126.463 C 98.709 126.464 97.865 126.374 97.038 126.195 C 95.744 125.923 94.466 125.579 93.21 125.163 L 88.557 123.337 C 87.99 123.11 87.402 122.894 86.876 122.708 C 86.608 122.615 86.35 122.522 86.143 122.471 C 86.059 122.445 85.972 122.424 85.885 122.409 L 85.885 122.13 L 85.937 121.687 C 85.945 121.574 85.965 121.464 85.999 121.356 C 86.004 121.267 86.004 121.178 85.999 121.088 C 86.009 120.996 86.009 120.902 85.999 120.81 L 85.999 120.675 C 86.004 120.659 86.004 120.641 85.999 120.624 C 86.006 120.608 86.009 120.59 86.009 120.572 C 86.009 120.555 86.006 120.537 85.999 120.521 L 87.546 121.707 L 87.495 121.779 L 87.34 122.006 L 86.958 122.543 L 86.288 123.502 C 85.885 124.08 85.597 124.534 85.442 124.709 C 84.876 125.52 84.245 126.282 83.554 126.989 C 82.979 127.71 82.337 128.373 81.635 128.97 L 78.715 131.384 C 78.272 129.321 77.983 128.031 77.962 127.908 C 77.89 127.526 77.838 127.124 77.797 126.721 C 77.78 126.225 77.797 125.729 77.849 125.236 C 78.044 123.901 78.39 122.593 78.88 121.336 C 79.107 120.768 79.252 120.232 79.427 119.664 L 79.963 117.911 C 79.972 117.902 79.98 117.891 79.985 117.88 C 79.99 117.868 79.992 117.856 79.992 117.843 C 79.992 117.831 79.99 117.819 79.985 117.807 C 79.98 117.796 79.972 117.785 79.963 117.776 C 79.963 117.776 79.881 117.704 79.963 117.704 C 79.919 117.696 79.874 117.696 79.829 117.704 L 79.365 117.591 C 79.2 117.591 79.056 117.519 78.88 117.498 L 78.21 117.498 C 76.706 117.528 75.206 117.326 73.763 116.9 C 73.099 116.673 72.457 116.386 71.844 116.043 C 71.251 115.732 70.676 115.387 70.121 115.012 L 69.863 114.815 C 69.863 114.712 69.977 114.589 70.008 114.475 L 70.1 114.279 L 70.276 114.021 L 70.596 113.557 C 70.9 113.001 71.323 112.518 71.834 112.143 L 72.164 111.906 L 72.618 111.679 L 73.072 111.432 L 73.753 111.184 C 75.373 110.825 77.025 110.624 78.684 110.586 C 79.033 110.535 79.378 110.459 79.716 110.359 C 79.778 110.297 79.871 110.286 79.933 110.214 C 80.1 110.068 80.239 109.893 80.345 109.698 C 80.702 109.109 80.976 108.474 81.16 107.81 C 81.398 107.011 81.571 106.193 81.676 105.365 C 81.532 105.025 82.12 103.498 82.12 103.054 Z" fill="rgb(28,25,23)"/><path d="M 64.098 151.44 C 69.069 154.618 74.496 157.015 80.192 158.549 C 85.843 160.042 91.769 160.159 97.473 158.889 L 100.568 158.054 L 103.519 156.836 C 104.496 156.418 105.441 155.928 106.346 155.371 L 107.708 154.639 C 108.168 154.365 108.612 154.065 109.038 153.741 C 115.32 149.335 120.563 143.61 124.4 136.966 C 125.339 135.274 126.309 133.592 127.217 131.88 C 128.125 130.167 128.929 128.403 129.662 126.597 C 130.394 124.792 131.106 122.986 131.808 121.171 C 132.509 119.355 133.087 117.488 133.613 115.61 C 135.56 108.949 136.985 102.147 137.874 95.265 C 139.153 86.475 139.514 77.561 140.804 68.73 C 141.155 65.975 141.537 66.357 142.001 68.73 C 142.862 72.654 143.181 76.677 142.95 80.687 C 142.353 89.884 141.049 99.02 139.05 108.017 C 137.086 117.141 133.893 125.956 129.559 134.222 C 126.88 139.273 123.667 144.021 119.974 148.387 C 116.201 152.874 111.585 156.579 106.387 159.292 L 105.861 159.58 L 105.304 159.818 L 104.19 160.282 L 101.961 161.221 C 100.424 161.706 98.866 162.129 97.308 162.552 C 95.709 162.779 94.12 163.109 92.521 163.233 L 90.107 163.325 C 89.303 163.387 88.496 163.387 87.693 163.325 C 81.311 162.948 75.064 161.322 69.308 158.538 C 62.245 155.251 55.861 150.667 50.49 145.023 C 46.446 140.766 42.961 136.009 40.122 130.869 C 37.336 125.71 34.891 120.552 32.652 115.208 C 29.164 107.043 26.372 98.597 24.306 89.962 C 23.893 88.043 23.47 86.176 23.151 84.226 C 21.933 77.004 22.232 74.621 22.934 73.001 C 23.077 72.647 23.242 72.303 23.429 71.97 C 24.017 71.237 24.822 74.126 25.75 79.274 C 26.438 83.091 27.288 86.919 28.299 90.757 C 29.248 94.594 30.362 98.432 31.652 102.239 C 34.222 109.958 37.36 117.475 41.04 124.73 C 43.629 130.128 46.887 135.178 50.738 139.762 C 54.586 144.314 59.109 148.249 64.15 151.43 Z" fill="rgb(28,25,23)"/><path d="M 159.61 95.533 C 161.37 92.324 162.619 88.861 163.314 85.268 C 163.49 83.993 163.548 82.705 163.489 81.42 C 163.509 79.227 162.889 77.075 161.704 75.23 C 160.577 73.412 158.855 72.042 156.83 71.353 C 154.806 70.665 152.605 70.7 150.603 71.454 C 149.37 71.885 148.212 72.505 147.168 73.29 C 146.087 74.048 145.097 74.927 144.217 75.91 C 143.639 76.519 143.299 76.21 143.34 75.302 C 143.365 74.702 143.508 74.112 143.763 73.569 C 144.081 72.79 144.559 72.087 145.166 71.505 C 146.385 70.424 147.781 69.562 149.293 68.957 C 150.84 68.366 152.476 68.044 154.132 68.008 C 155.819 68.009 157.488 68.36 159.032 69.04 C 160.564 69.726 161.93 70.736 163.035 72 C 164.386 73.471 165.422 75.201 166.079 77.087 C 166.723 78.943 167.033 80.899 166.997 82.864 C 166.763 86.998 165.744 91.049 163.995 94.801 C 163.009 97.085 161.8 99.265 160.384 101.311 C 158.188 104.328 155.635 107.068 152.78 109.471 C 150.645 111.38 148.53 113.227 146.281 114.908 C 145.785 115.28 145.321 115.661 144.805 116.012 C 142.866 117.261 142.04 117.312 141.184 116.879 C 140.983 116.792 140.79 116.689 140.606 116.569 C 140.09 116.167 140.606 115.197 141.762 113.99 C 143.578 112.277 145.538 110.74 147.426 109.09 C 149.314 107.439 151.264 105.902 153.017 104.168 C 154.32 102.896 155.537 101.538 156.659 100.104 C 157.753 98.678 158.713 97.155 159.527 95.554 Z" fill="rgb(28,25,23)"/><path d="M 4.952 102.827 C 2.917 99.267 1.432 95.42 0.547 91.417 C 0.187 89.916 0.004 88.379 0 86.836 C -0.006 84.019 0.811 81.261 2.352 78.902 C 3.886 76.573 6.151 74.821 8.79 73.919 C 11.088 73.178 13.544 73.071 15.898 73.61 C 17.382 73.927 18.799 74.499 20.087 75.302 C 21.361 76.113 22.465 77.164 23.337 78.397 C 23.873 79.15 23.409 79.315 22.542 79.109 C 21.361 78.781 20.219 78.325 19.138 77.747 C 18.031 77.147 16.857 76.68 15.64 76.354 C 14.446 76.088 13.218 76.004 11.998 76.106 C 9.57 76.381 7.332 77.555 5.726 79.397 C 4.681 80.539 3.967 81.945 3.663 83.462 C 3.366 85.034 3.317 86.642 3.518 88.229 C 3.989 91.924 5.125 95.503 6.871 98.793 C 7.905 100.873 9.134 102.849 10.544 104.694 C 11.62 106.094 12.8 107.412 14.072 108.636 C 15.352 109.866 16.733 110.988 18.199 111.988 C 20.487 113.475 22.904 114.752 25.421 115.806 C 25.968 116.043 26.525 116.239 27.061 116.497 C 27.818 116.786 28.517 117.209 29.125 117.745 C 29.484 118.067 29.709 118.513 29.754 118.994 C 29.803 119.207 29.834 119.425 29.847 119.644 C 29.847 120.304 28.743 120.49 27.01 120.149 C 24.45 119.472 21.978 118.499 19.643 117.25 C 17.223 115.922 14.957 114.33 12.886 112.504 C 9.732 109.754 7.055 106.502 4.962 102.879 Z" fill="rgb(28,25,23)"/><path d="M 86.414 209.937 C 87.82 209.368 89.269 208.91 90.747 208.565 C 92.242 208.197 93.769 207.972 95.307 207.894 C 98.455 207.763 101.585 208.441 104.396 209.865 C 106.409 210.862 108.253 212.168 109.864 213.734 C 111.362 215.213 112.646 216.894 113.681 218.727 C 113.96 219.171 114.176 219.645 114.414 220.12 C 114.663 220.582 114.881 221.061 115.064 221.554 C 115.27 222.039 115.449 222.535 115.6 223.04 L 115.765 223.545 C 115.827 223.741 115.889 223.937 115.93 224.123 L 116.188 225.258 L 116.136 226.093 C 116.136 226.362 116.136 226.65 115.93 226.877 C 115.509 227.272 114.982 227.534 114.414 227.631 C 113.755 227.733 113.089 227.778 112.422 227.765 L 111.7 227.765 L 111.061 227.765 C 109.348 227.682 107.677 227.579 105.995 227.466 C 102.776 227.239 99.547 227.053 96.359 226.96 C 94.296 226.888 92.232 226.888 90.241 226.888 C 88.263 226.85 86.286 226.977 84.33 227.27 C 83.783 227.393 83.566 227.383 83.463 227.208 C 83.36 227.032 83.463 226.64 83.969 226.176 C 85.565 225.029 87.471 224.392 89.436 224.35 C 93.728 224.092 97.938 224.247 102.147 224.401 L 108.419 224.69 C 109.451 224.69 110.483 224.763 111.515 224.763 L 111.896 224.763 C 111.989 224.757 112.082 224.757 112.175 224.763 L 112.34 224.763 C 112.477 224.783 112.616 224.783 112.753 224.763 C 112.767 224.764 112.781 224.761 112.793 224.755 C 112.806 224.749 112.817 224.74 112.825 224.729 C 112.834 224.717 112.839 224.704 112.841 224.69 C 112.842 224.676 112.84 224.662 112.835 224.649 L 112.835 224.474 C 112.844 224.398 112.844 224.322 112.835 224.247 L 112.835 224.133 L 112.732 223.782 C 112.577 223.277 112.33 222.751 112.134 222.286 C 111.938 221.822 111.628 221.317 111.38 220.832 C 111.133 220.347 110.792 219.903 110.503 219.439 C 109.239 217.64 107.721 216.035 105.995 214.673 C 103.959 213.021 101.551 211.892 98.98 211.382 C 96.361 210.934 93.675 211.075 91.118 211.794 C 89.498 212.218 87.92 212.788 86.403 213.496 C 84.889 214.234 83.44 215.097 82.07 216.076 C 80.375 217.303 78.797 218.685 77.355 220.202 C 76.644 220.976 75.952 221.771 75.292 222.596 L 74.332 223.855 C 74.178 224.061 74.033 224.288 73.889 224.505 L 73.383 225.237 C 72.964 225.771 72.368 226.137 71.702 226.269 C 71.197 226.418 70.684 226.535 70.165 226.62 C 66.069 227.239 61.924 227.481 57.784 227.342 C 56.876 227.342 55.989 227.342 55.081 227.218 C 51.697 226.908 50.645 226.444 50.088 225.485 C 49.945 225.276 49.827 225.051 49.737 224.814 C 49.551 224.102 50.955 223.855 53.338 223.958 C 56.433 224.082 59.662 224.092 62.891 223.958 C 64.49 223.958 66.11 223.844 67.699 223.7 C 68.483 223.628 69.267 223.524 69.979 223.401 C 70.33 223.328 70.68 223.246 70.918 223.174 C 70.918 223.174 70.98 223.102 71 223.06 L 71.196 222.782 L 71.599 222.204 L 72.434 221.069 C 74.237 218.656 76.314 216.461 78.624 214.528 C 80.989 212.582 83.614 210.978 86.424 209.762 Z" fill="rgb(28,25,23)"/><path d="M 99.266 193.224 L 98.946 201.188 L 98.781 205.171 L 98.585 210.618 L 94.19 211.423 L 86.205 212.98 L 84.667 213.259 L 84.213 208.472 L 83.956 205.542 L 83.45 199.692 L 82.418 187.993 C 82.088 184.403 81.665 180.771 81.222 177.253 C 80.654 172.693 79.911 168.123 79.777 163.521 C 79.684 160.643 83.305 163.903 83.904 169.175 C 84.936 178.46 85.844 187.849 86.411 197.309 C 86.545 199.558 86.751 201.838 86.989 204.139 C 87.174 205.862 87.36 207.605 87.546 209.297 L 89.351 208.967 L 92.942 208.307 L 94.706 207.987 L 95.376 207.884 L 95.376 207.337 L 95.376 206.089 L 95.479 203.138 L 95.706 197.227 C 95.841 193.317 95.985 189.396 96.119 185.476 C 96.305 179.544 96.542 173.591 96.625 167.7 C 96.625 166.668 96.625 165.729 96.625 164.749 C 96.625 164.161 96.625 164.027 96.625 163.717 L 96.625 163.006 L 95.593 163.098 L 95.356 163.098 L 94.881 163.098 L 93.911 163.16 L 90.053 163.408 C 89.021 163.47 88.093 163.563 87.082 163.604 C 83.357 163.769 82.171 163.604 81.345 162.706 C 81.141 162.528 80.958 162.327 80.799 162.108 C 80.417 161.427 81.923 160.808 84.647 160.529 C 86.762 160.313 88.918 160.127 91.095 159.972 L 94.376 159.756 L 95.201 159.756 L 96.748 159.694 L 99.998 159.56 C 99.998 162.311 99.967 165.093 99.905 167.906 C 99.864 169.969 99.826 172.002 99.792 174.003 C 99.647 180.359 99.421 186.755 99.235 193.131 Z" fill="rgb(28,25,23)"/><path d="M 123.262 225.196 C 123.655 225.196 125.202 225.257 126.729 225.196 C 128.256 225.134 129.752 225.082 130.03 225.061 C 130.309 225.041 132.3 225.061 132.506 225.01 L 136.086 225.01 C 136.355 225.01 143.845 225.144 144.732 225.072 C 145.351 224.979 148.776 225.226 149.478 225.278 C 149.715 225.278 149.684 226.475 149.478 226.506 C 148.678 226.614 147.871 226.665 147.063 226.661 C 145.825 226.609 141.627 226.826 141.441 226.857 L 138.944 227.166 L 137.768 227.29 L 134.508 227.61 C 133.476 227.703 132.445 227.847 131.413 227.899 C 129.907 227.971 128.39 227.971 126.873 227.981 C 126.017 227.981 125.15 227.981 124.274 227.981 C 123.768 227.981 123.242 227.847 122.747 227.795 C 122.251 227.744 122.169 227.28 122.035 226.681 C 121.901 226.083 122.994 225.185 123.262 225.196 Z" fill="rgb(28,25,23)"/><path d="M 82.172 131.354 C 81.556 132.092 80.728 132.621 79.799 132.87 C 79.389 132.951 78.965 132.919 78.571 132.777 L 78.252 132.633 C 78.128 132.633 78.045 132.54 77.952 132.499 C 77.86 132.458 77.674 132.21 77.55 132.076 C 77.004 131.321 76.754 130.392 76.849 129.466 C 76.846 128.872 76.884 128.279 76.962 127.691 C 76.962 127.413 77.034 127.021 77.065 126.855 L 77.137 126.35 C 77.354 125.009 77.622 123.698 77.911 122.399 L 78.365 120.459 L 78.417 120.242 L 78.417 120.191 L 78.417 120.098 L 78.489 119.892 C 78.489 119.788 78.303 119.788 78.2 119.757 L 78.118 119.757 L 77.88 119.706 L 77.065 119.561 C 74.582 119.236 72.187 118.423 70.019 117.168 C 69.72 116.951 69.513 116.817 69.08 116.466 L 68.048 115.435 C 67.799 115.077 67.579 114.702 67.388 114.31 C 67.286 114.123 67.232 113.914 67.232 113.701 C 67.232 113.489 67.286 113.279 67.388 113.093 C 67.843 112.284 68.576 111.668 69.451 111.359 C 70.137 111.054 70.844 110.799 71.566 110.596 C 72.763 110.245 73.95 109.977 75.146 109.74 C 75.745 109.623 76.343 109.52 76.941 109.43 L 77.385 109.358 L 77.602 109.358 L 77.942 109.358 C 77.994 109.224 78.035 109.059 78.087 108.904 L 78.396 107.707 L 79.067 105.242 C 79.531 103.601 79.995 101.971 80.573 100.32 L 80.759 99.794 C 80.831 99.578 80.965 99.309 81.068 99.082 C 81.254 98.611 81.539 98.186 81.904 97.834 C 82.364 97.59 82.886 97.485 83.406 97.535 C 83.924 97.585 84.418 97.785 84.823 98.113 C 85.043 98.247 85.253 98.395 85.453 98.556 L 85.907 98.938 C 86.185 99.206 86.474 99.464 86.732 99.732 C 87.764 100.764 88.744 101.889 89.714 102.941 C 90.322 103.601 90.921 104.251 91.54 104.891 L 92.458 105.83 C 92.654 106.015 92.809 106.17 92.984 106.325 L 93.448 106.222 L 94.532 106.057 C 95.254 105.964 95.986 105.902 96.719 105.871 C 98.23 105.781 99.746 105.938 101.207 106.335 C 101.98 106.572 102.238 106.923 102.104 107.161 C 101.97 107.398 101.516 107.614 100.877 107.821 C 99.014 108.418 97.101 108.842 95.161 109.09 L 94.057 109.245 L 93.118 109.41 L 91.942 109.657 L 90.828 108.522 L 90.281 107.965 L 89.972 107.635 C 89.559 107.202 89.146 106.758 88.754 106.315 L 86.412 103.673 C 85.649 102.807 84.896 101.94 84.153 101.228 C 83.982 101.058 83.803 100.896 83.616 100.743 C 83.555 100.682 83.616 100.743 83.565 100.682 C 83.551 100.672 83.535 100.667 83.518 100.667 C 83.502 100.667 83.486 100.672 83.472 100.682 C 83.472 100.682 83.472 100.682 83.4 100.743 C 83.286 101.032 83.1 101.558 82.956 101.981 C 82.647 102.879 82.358 103.797 82.079 104.726 L 81.254 107.532 L 80.852 108.945 L 80.624 109.75 L 80.294 111.009 L 80.098 111.793 L 78.283 111.968 L 77.096 112.133 C 76.436 112.226 75.765 112.36 75.105 112.494 C 73.801 112.762 72.518 113.124 71.267 113.578 C 71.049 113.645 70.846 113.753 70.669 113.897 C 70.647 113.916 70.629 113.939 70.618 113.965 C 70.606 113.99 70.599 114.019 70.599 114.047 C 70.599 114.076 70.606 114.104 70.618 114.13 C 70.629 114.155 70.647 114.178 70.669 114.197 C 70.743 114.284 70.822 114.367 70.906 114.444 C 71 114.541 71.103 114.627 71.216 114.702 C 71.458 114.885 71.713 115.05 71.979 115.197 C 72.528 115.514 73.105 115.78 73.702 115.992 C 74.81 116.392 75.948 116.703 77.106 116.92 L 79.17 117.292 C 80.099 117.44 80.993 117.755 81.811 118.22 L 81.233 120.521 L 80.852 122.099 C 80.635 123.028 80.439 123.967 80.253 124.895 L 79.995 126.298 L 79.799 127.547 C 79.719 127.975 79.691 128.412 79.717 128.847 C 79.721 128.959 79.752 129.069 79.809 129.166 C 79.847 129.208 79.893 129.241 79.945 129.263 C 79.997 129.284 80.053 129.294 80.109 129.29 C 80.323 129.238 80.517 129.123 80.666 128.96 C 80.83 128.8 80.982 128.628 81.12 128.444 C 81.275 128.248 81.336 128.166 81.666 127.691 C 82.698 126.102 83.73 124.431 84.762 122.76 L 86.34 120.108 L 87.64 120.748 L 88.837 121.315 L 90.601 122.099 C 91.777 122.615 92.963 123.09 94.16 123.523 C 95.343 123.961 96.552 124.323 97.781 124.606 C 98.369 124.743 98.965 124.836 99.566 124.885 C 99.935 124.929 100.31 124.887 100.66 124.761 C 100.804 124.699 100.959 124.606 100.98 124.441 C 100.99 124.284 100.969 124.126 100.918 123.977 C 100.866 123.822 100.804 123.678 100.742 123.533 L 100.629 123.327 L 100.454 122.997 C 99.917 122.083 99.299 121.22 98.607 120.418 C 97.921 119.594 97.18 118.819 96.389 118.096 L 96.1 117.828 L 95.728 117.498 L 94.697 116.631 C 94.026 116.043 93.252 115.466 92.633 114.888 L 92.953 114.712 C 93.675 114.31 94.428 113.918 95.12 113.485 C 95.481 113.278 95.79 113.062 96.151 112.855 L 96.513 112.598 L 96.812 112.402 C 99.711 110.338 100.35 109.544 101.444 109.42 C 101.68 109.356 101.922 109.315 102.166 109.296 C 102.507 109.296 102.568 109.688 102.3 110.41 C 101.803 111.436 101.1 112.349 100.237 113.093 C 99.523 113.744 98.776 114.357 97.998 114.929 C 97.893 114.993 97.796 115.069 97.709 115.156 L 97.606 115.259 L 97.472 115.393 C 97.577 115.467 97.688 115.532 97.802 115.589 C 97.802 115.589 97.802 115.589 97.874 115.641 L 98.101 115.858 L 98.576 116.291 C 98.885 116.58 99.174 116.9 99.473 117.209 C 100.712 118.473 101.796 119.879 102.703 121.398 L 103.043 122.017 L 103.507 123.049 C 103.631 123.42 103.734 123.802 103.827 124.173 C 103.881 124.515 103.881 124.863 103.827 125.205 L 103.827 125.463 C 103.827 125.535 103.745 125.607 103.714 125.679 L 103.456 126.133 C 103.305 126.451 103.06 126.714 102.754 126.886 C 102.11 127.294 101.37 127.525 100.608 127.557 C 100.213 127.583 99.817 127.583 99.422 127.557 L 98.679 127.485 C 98.204 127.423 97.74 127.34 97.296 127.247 C 96.399 127.062 95.553 126.824 94.717 126.567 C 93.17 126.071 91.684 125.535 90.219 124.906 C 89.487 124.596 88.764 124.287 88.042 123.956 L 87.506 123.709 L 87.506 123.771 L 87.196 124.307 L 85.907 126.432 C 85.473 127.144 85.03 127.856 84.566 128.568 C 84.318 128.929 84.112 129.27 83.833 129.651 C 83.386 130.296 82.901 130.913 82.378 131.498 Z" fill="rgb(28,25,23)"/><path d="M 95.84 76.076 C 90.095 77.084 84.293 77.739 78.467 78.036 L 75.279 78.222 C 74.247 78.222 73.153 78.294 72.091 78.304 C 68.346 78.304 64.601 78.17 60.876 77.799 C 59.009 77.665 57.152 77.386 55.295 77.18 C 53.438 76.973 51.591 76.653 49.765 76.261 L 47.32 75.787 L 44.885 75.24 C 43.266 74.91 41.666 74.477 40.067 74.064 C 35.95 73.047 31.95 71.605 28.131 69.762 C 26.944 69.184 27.336 68.73 28.564 68.678 C 30.45 68.659 32.326 68.955 34.114 69.555 C 38.108 70.864 42.177 71.932 46.299 72.754 C 50.425 73.558 54.552 74.353 58.813 74.869 C 63.992 75.439 69.209 75.591 74.412 75.323 C 80.159 75.138 85.889 74.597 91.569 73.703 C 95.077 73.177 98.554 72.465 101.999 71.639 C 107.225 70.418 112.364 68.85 117.382 66.945 C 121.165 65.446 124.828 63.66 128.338 61.601 L 130.608 60.219 C 133.456 58.516 134.374 58.052 135.478 58.351 C 135.731 58.398 135.98 58.467 136.221 58.558 C 136.561 58.743 136.52 59.135 136.148 59.703 C 135.583 60.503 134.885 61.2 134.085 61.766 C 130.962 64.056 127.608 66.013 124.078 67.606 C 120.483 69.252 116.793 70.682 113.028 71.887 C 107.406 73.676 101.676 75.103 95.871 76.158 Z" fill="rgb(28,25,23)"/><path d="M 82.194 21.108 C 81.162 17.848 81.317 14.051 81.018 10.636 C 80.719 7.221 80.451 3.713 80.203 0.247 C 80.203 -0.372 76.241 0.247 76.314 1.279 C 76.561 4.718 76.833 8.181 77.129 11.668 C 77.428 15.083 77.294 18.89 78.305 22.139 C 78.563 22.954 82.431 21.851 82.194 21.108 Z" fill="rgb(28,25,23)"/><path d="M 30.333 34.375 C 35.904 40.214 43.033 44.31 50.151 47.972 C 51.327 48.571 54.969 46.734 54.371 46.425 C 47.252 42.762 40.123 38.667 34.552 32.817 C 33.748 31.971 29.59 33.591 30.333 34.375 Z" fill="rgb(28,25,23)"/><path d="M 114.567 35.015 C 116.93 29.856 118.9 24.605 121.974 19.859 C 123.243 17.899 118.694 18.002 117.734 19.498 C 114.639 24.244 112.689 29.537 110.316 34.654 C 109.285 36.851 113.803 36.645 114.567 35.015 Z" fill="rgb(28,25,23)"/><path d="M 77.439 56.092 C 73.023 56.484 68.618 57.034 64.223 57.743 C 62.614 57.99 61.035 58.362 59.436 58.63 C 53.813 59.662 48.201 60.828 42.671 62.313 C 40.216 62.974 37.771 63.727 35.449 64.583 C 33.922 65.119 32.426 65.718 30.941 66.337 C 29.455 66.956 27.97 67.575 26.659 68.266 C 25.999 68.689 25.555 68.338 25.968 67.317 C 26.759 65.951 27.988 64.894 29.455 64.315 C 32.563 62.997 35.747 61.864 38.988 60.92 C 42.207 59.961 45.477 59.167 48.779 58.496 C 52.73 57.691 56.795 56.66 60.839 55.906 C 65.296 55.081 69.767 54.41 74.251 53.895 C 77.016 53.554 79.802 53.327 82.577 53.121 C 86.786 52.822 91.037 52.729 95.236 52.77 C 98.496 52.77 101.715 52.77 104.964 53.131 C 105.687 53.131 106.388 53.255 107.1 53.358 C 107.812 53.461 108.317 53.554 108.771 53.657 C 109.149 53.754 109.518 53.882 109.875 54.039 C 110.341 54.235 110.711 54.605 110.907 55.071 C 111.006 55.251 111.085 55.441 111.144 55.638 C 111.247 56.247 110.113 56.464 108.235 56.206 C 102.437 55.591 96.608 55.329 90.779 55.422 C 86.343 55.494 81.875 55.752 77.418 56.195 Z" fill="rgb(28,25,23)"/></svg>