<svg xmlns="http://www.w3.org/2000/svg" width="188" height="257" fill="none"><path fill="#FF7C00" d="m131.372 170.546-17.654-8.858c-4.848-2.448-9.182-3.978-14.513-5.894-1.181-.429-.074-.704.612-.453 4.964 1.787 9.763 3.483 14.471 5.845l18.119 9.072c1.052.527-.613.496-1.035.276v.012zm14.777-24.106-24.381 3.802c-.845.128-1.837-1.059-.612-1.225l24.387-3.801c.838-.134 1.836 1.053.612 1.224h-.006z"/><path fill="#1C1917" d="M96.82 121.068c-1.836.753-8.343 12.959-8.245 15.04 2.889.526 7.51-13.889 9.12-14.691l-.875-.349zM26.575 33.864c.06-.241.102-.487.128-.734v-.441.129l-.03.122a.293.293 0 0 0-.05.11c.013-.41-.02-.82-.097-1.224-.05-.257-.337-.27-.435 0l-.27.82-.067.202h.068l.226.05h.055c-.691-.16-.19-.05-.343-.087v-.08c0-.122-.03.093-.06.215-.031.123-.3 1.64-.552 3.33-.25 1.69-.557 3.563-.648 4.53a33.743 33.743 0 0 0-.178 5.68 18.39 18.39 0 0 0 1.181 5.785 11.02 11.02 0 0 0 3.637 4.836c.366.268.75.511 1.15.728.196.104.386.239.612.325l.613.25c.354.129.703.294 1.065.405l1.095.287c.725.19 1.46.33 2.204.423a9.134 9.134 0 0 0 4.622-.374 13.37 13.37 0 0 0 1.426-.692 6.639 6.639 0 0 0 1.45-1.126 11.94 11.94 0 0 0 1.965-2.558 25.246 25.246 0 0 0 2.027-4.61c.746-2.405 1.493-4.805 2.197-7.223.117-.339.213-.684.288-1.034.14-.76.335-1.509.581-2.24a79.85 79.85 0 0 0 .857-3.123c.129-.514.202-1.04.288-1.56.086-.52-.165-.27-.227-.117-.183.453-.159.05-.22 0-.061-.049-.049-.049-.073 0-.062.171-2.094 5.883-2.32 6.5 0 .044-.196.613-.478 1.445-.281.833-.667 1.947-1.053 3.061-.79 2.271-1.634 4.628-1.836 5.069-.202.44-.38.973-.581 1.45a14.925 14.925 0 0 1-1.935 3.11 7.26 7.26 0 0 1-1.738 1.56 6.07 6.07 0 0 1-1.01.533 8.068 8.068 0 0 1-3.96.441c-.276 0-.564-.08-.852-.128a12.528 12.528 0 0 1-1.78-.447c-.58-.16-1.148-.365-1.696-.612a5.135 5.135 0 0 1-.79-.423c-.257-.159-.52-.3-.771-.459l-.692-.563-.343-.288-.3-.33c-.202-.227-.416-.441-.612-.68l-.502-.765a4.284 4.284 0 0 1-.44-.808 8.64 8.64 0 0 1-.386-.838c-.074-.209-.165-.417-.245-.613a4.197 4.197 0 0 1-.275-.808 26.733 26.733 0 0 1-.503-9.04c.056-.35.08-1.372.203-2.413.122-1.04.208-2.087.269-2.49.061-.405.049-2.064.14-2.468zm-5.422-9.291c1.016-1.904 4.499-3.398 5.705.159a10.331 10.331 0 0 0 1.543-3.985c3.672-.233 5.319-1.904 5.588-2.112.27-.208 8.876 9.463 18.688 13.467 6.887 2.797 14.495-1.016 15.304-9.703.483-5.35-2.075-10.002-6.011-13.197A25.562 25.562 0 0 0 47.651 3.54c-3.844-.27-8.117 1.065-11.716-.82C31.87.583 29.814-.8 25.095 2.548c-6.868 4.885-8.662 14.918-3.942 22.025z"/><path fill="#1C1917" d="M53.768 5.933a23.99 23.99 0 0 1 8.809 5.221 14.22 14.22 0 0 1 4.42 8.852 12.757 12.757 0 0 1-1.402 7.082 9.531 9.531 0 0 1-4.542 4.285 10.156 10.156 0 0 1-6.287.557 9.878 9.878 0 0 1-1.56-.447c-.521-.171-1.048-.41-1.562-.612a37.129 37.129 0 0 1-3.03-1.549 51.419 51.419 0 0 1-5.699-3.789 71.544 71.544 0 0 1-4.505-3.74c-.728-.655-1.438-1.322-2.155-1.99l-1.108-1.052a3.673 3.673 0 0 0-.857-.649c-.312-.171-.612 0-.893.19l-.325.25-.171.13-.098.06a7.5 7.5 0 0 1-2.063.937c-.37.112-.745.2-1.126.263l-.288.037-.349.049-.985.086h-.123c-.043 0-.092 0-.085.055l-.056.239-.11.477-.116.477-.086.325c-.055.19-.11.38-.171.563l-.08.239-.043.116a3.338 3.338 0 0 1-.208.44 2.423 2.423 0 0 1-.134.209c-.031.061-.037 0-.055-.049l-.043-.116a1.995 1.995 0 0 0-.147-.245l-.092-.104v-.03h.043l-.184-.148a2.865 2.865 0 0 0-1.757-.649 4.236 4.236 0 0 0-3.09 1.34c-.613.613-.674 1.127-.552 1.225.123.098.472-.122.986-.38a4.743 4.743 0 0 1 2.081-.563c.355-.004.7.108.986.319.03.026.063.048.097.067l.08.104.049.043.074.092.256.52c.331.612.717 1.714 1.047 2.51l.423-.533.563-.77c.427-.537.79-1.12 1.083-1.74a11.167 11.167 0 0 0 .619-1.683l.152-.563h.098c.867-.12 1.717-.337 2.535-.649.42-.16.83-.347 1.224-.563.196-.11.386-.226.575-.355l.141-.092h.037l.936.863c.692.65 1.402 1.298 2.118 1.935a76.01 76.01 0 0 0 4.463 3.672 45.662 45.662 0 0 0 10.02 5.956c.797.33 1.615.607 2.449.827.428.086.857.196 1.285.263l1.316.129a11.78 11.78 0 0 0 5.203-.93 11.067 11.067 0 0 0 4.212-3.264 12.347 12.347 0 0 0 2.32-4.731c.48-1.86.603-3.794.36-5.7a16.064 16.064 0 0 0-.648-2.79 16.681 16.681 0 0 0-1.17-2.614 17.983 17.983 0 0 0-3.537-4.401 25.164 25.164 0 0 0-4.573-3.239 25.71 25.71 0 0 0-13.167-3.287c-1.72.068-3.39.27-5.031.251a12.538 12.538 0 0 1-2.412-.238 8.778 8.778 0 0 1-2.234-.827c-.747-.392-1.494-.79-2.284-1.157A10.068 10.068 0 0 0 31.12.087a6.201 6.201 0 0 0-2.724.147 9.666 9.666 0 0 0-2.449 1.077 16.6 16.6 0 0 0-5.693 5.577 17.513 17.513 0 0 0-2.448 7.572c-.103 1.18-.08 2.368.067 3.544.164 1.572.625 3.1 1.36 4.5.196.37.43.721.697 1.046.2.217.429.406.68.563.19.139.395.256.611.35.258.066.227-.313 0-1.017-.067-.178-.152-.373-.238-.612s-.16-.478-.251-.747c-.22-.52-.386-1.157-.612-1.836a16.21 16.21 0 0 1 1.916-12.739 14.857 14.857 0 0 1 4.744-4.615c.87-.57 1.85-.951 2.877-1.12a4.897 4.897 0 0 1 1.426.085 8.789 8.789 0 0 1 1.494.508c.759.337 1.548.76 2.35 1.176.373.202.863.44 1.347.612l.734.257.747.196c1.905.34 3.849.406 5.772.196.913-.062 1.806-.135 2.663-.153h1.273c.417 0 .864.06 1.292.11 1.71.225 3.39.631 5.013 1.212v-.043z"/><path fill="#1C1917" d="M21.91 23.795c.146-.135.055-.312-.178-.612-.073-.086-.355-.22-.422-.184a1.52 1.52 0 0 0-.343.22 9.641 9.641 0 0 0-.716 1.39 4.61 4.61 0 0 0-.306 1.022c-.162.73-.262 1.47-.3 2.216a2.27 2.27 0 0 0 .055.557c.077.316.173.627.288.93.098.288.208.57.33.852a.772.772 0 0 1 .104.287c.117.311.285.6.496.857.197.274.428.523.686.74.414.292.845.557 1.291.797.061.03.11.085.196.08a.612.612 0 0 1 .428.146c.18.104.368.19.564.257a.98.98 0 0 0 .33 0c.104 0 .16-.196.141-.226-.018-.03.061-.141.11-.208a.318.318 0 0 0 .043-.074c0-.043-.747-.906-.82-.98l-.208-.165c-.11-.098-.263-.226-.41-.367a6.413 6.413 0 0 1-.613-.667.673.673 0 0 0-.195-.172 3.218 3.218 0 0 1-.331-.514 4.28 4.28 0 0 1-.251-.544 2.902 2.902 0 0 0-.33-.613.225.225 0 0 1-.056-.122 2.532 2.532 0 0 0-.06-.294 1.946 1.946 0 0 1-.038-.226 3.675 3.675 0 0 1-.036-.612c.01-.224.034-.447.073-.668a.864.864 0 0 0 0-.122.462.462 0 0 1 0-.16 9.385 9.385 0 0 1 .343-1.59c.035-.289.084-.575.147-.858.018 0-.074-.324-.012-.373zM50.225 58.24c-.166-.105-.319-.209-.49-.3a3.178 3.178 0 0 0-.612-.227 2.312 2.312 0 0 0-.649-.098h-.337l-.324.061c-.394.092-.766.26-1.096.496l-.68.483a12.914 12.914 0 0 1-2.687 1.482c-1.955.718-4.05.978-6.12.759a21.278 21.278 0 0 1-4.53-.998 33.603 33.603 0 0 1-3.875-1.512 11.84 11.84 0 0 1-1.788-.949c-.581-.373-1.169-.783-1.805-1.169a9.336 9.336 0 0 0-2.07-.967 4.102 4.102 0 0 0-2.515 0 3.956 3.956 0 0 0-1.837 1.726 14.69 14.69 0 0 0-.985 1.996c-.465 1.187-.998 2.289-1.463 3.532a6.69 6.69 0 0 0-.38 4.058 5.287 5.287 0 0 0 1.402 2.32 7.705 7.705 0 0 0 2.185 1.445c1.543.71 3.092 1.09 4.395 1.805.404.22.613.257.717.117.104-.141.036-.453-.233-.863a5.007 5.007 0 0 0-1.39-1.323 13.212 13.212 0 0 0-2.246-1.15 7.885 7.885 0 0 1-1.885-1.035 3.911 3.911 0 0 1-1.17-1.463c-.508-1.065-.17-2.485.392-3.936l.924-2.27c.275-.73.594-1.441.956-2.131.245-.545.64-1.01 1.138-1.34a2.914 2.914 0 0 1 1.836.091c.868.348 1.69.8 2.449 1.347.416.282.85.57 1.304.845.226.14.477.275.722.404l.698.33c1.87.92 3.832 1.645 5.852 2.161 1.122.277 2.264.465 3.415.563 1.163.082 2.33.04 3.483-.122a13.76 13.76 0 0 0 6.391-2.675l.22-.153.166-.11c.102-.072.213-.13.33-.172a1.07 1.07 0 0 1 .65-.03 2.73 2.73 0 0 1 1.285 1.028 12.15 12.15 0 0 1 1.683 3.52c.636 1.913.935 3.922.881 5.937-.019.458-.116.91-.287 1.335a4.987 4.987 0 0 1-.361.612c-.147.19-.294.38-.453.557a5.864 5.864 0 0 1-2.375 1.555 11.63 11.63 0 0 1-4.518.52 46.684 46.684 0 0 1-4.646-.52c-.686-.104-1.365-.22-2.069-.306-2.62-.319-3.563-.117-4.09.355a2.27 2.27 0 0 0-.336.336c-.177.374.82.447 2.65.68 2.743.343 5.602 1.004 8.693 1.095a13.41 13.41 0 0 0 4.768-.612 7.444 7.444 0 0 0 4.01-3.213 4.86 4.86 0 0 0 .275-.539c.055-.171.123-.361.166-.533.079-.326.136-.657.171-.991.045-.612.045-1.225 0-1.837a20.09 20.09 0 0 0-.55-3.495 19.578 19.578 0 0 0-1.133-3.36 10.714 10.714 0 0 0-.882-1.616 5.748 5.748 0 0 0-1.353-1.512l.013-.025z"/><path fill="#1C1917" d="M68.463 99.864a129.106 129.106 0 0 0 9.023 8.637c1.157.985 2.271 2.014 3.471 2.944a114.163 114.163 0 0 0 13.216 9.096c1.01.613 2.05 1.225 3.06 1.782l1.55.875 1.566.82c.673.349 1.335.717 2.014 1.059l2.051.974a36.405 36.405 0 0 0 4.223 1.683c.894.306.918-.141.337-.82a10.17 10.17 0 0 0-3.33-2.271 129.456 129.456 0 0 1-16.026-8.741 97.5 97.5 0 0 1-8.986-6.771 126.064 126.064 0 0 1-9.126-8.41 102.155 102.155 0 0 1-2.632-2.773l-1.292-1.414-1.224-1.45c-2.504-2.927-4.897-6.036-7.254-9.067a146.985 146.985 0 0 1-6.286-8.777c-1.365-2.002-1.837-2.596-2.51-2.792a2.106 2.106 0 0 0-.44-.122c-.405 0-.111.98.813 2.516 2.755 4.585 6.25 8.998 9.684 13.393a179.723 179.723 0 0 0 3.9 4.897l2.056 2.406 2.142 2.363v-.037z"/><path fill="#1C1917" d="m90.079 129.674-1.892 3.673a1.76 1.76 0 0 1-.128.233l-.074-.037-.153-.055-.22-.11-.294-.16-1.175-.612-2.345-1.255a29.946 29.946 0 0 1-2.013-1.224 14.405 14.405 0 0 0-2.596-1.524c-.612-.226-.722 1.536.263 2.142a49.89 49.89 0 0 0 5.418 2.92c.532.245 1.052.533 1.567.833l2.228 1.316.171-.312.796-1.469.484-.919.967-1.836c.398-.759.783-1.518 1.224-2.265.612-1.132 1.224-2.283 1.885-3.379.515-.857 1.102-1.646 1.653-2.448.123-.178.257-.343.374-.533.428-.685.459-.967.17-1.34a2.488 2.488 0 0 0-.195-.245c-.257-.239-.661-.092-1.04.373a32.769 32.769 0 0 0-3.061 4.591 218.917 218.917 0 0 0-2.026 3.673l.012-.031z"/><path fill="#1C1917" d="M105.42 135.691a1.285 1.285 0 0 0-.717-.973c-.122-.067-.391.043-.385.178 0 .257.012.514.037.771.03.153.612 2.516.752 3.312.068.385.135.771.19 1.132.01.145.01.29 0 .435a1.53 1.53 0 0 1-.061.367.462.462 0 0 1-.098.184h-.043a1.015 1.015 0 0 1-.551-.258 5.029 5.029 0 0 1-1.224-1.634l-.465-.912a14.599 14.599 0 0 1-1.194-3.428 2.828 2.828 0 0 1-.11-.612 1.762 1.762 0 0 0-.043-.306l-.147-.808-.373-.349-.386-.349-1.555-.667c-.453-.19-.808-.343-.936-.386-1.029-.361-2.045-.759-3.06-1.151a1.43 1.43 0 0 0-.442-.146 3.073 3.073 0 0 1-.954-.319c-.435-.183-.87-.361-1.31-.52a4.124 4.124 0 0 0-.686-.153c-.208-.043-.178.171-.122.214.171.141 0 .147-.074.208a.124.124 0 0 0-.037.068c.116.092.24.176.368.251l.826.514c.612.373 1.261.759 1.396.814.134.055 3.605 1.751 4.015 1.946.215.098.436.182.661.251l1.145.508v.092l.055.27.086.453.098.446c.143.655.348 1.295.612 1.91.057.123.104.25.141.38a13.51 13.51 0 0 0 1.487 3.201c.196.251.343.521.576.772l.33.373.416.337c.105.078.218.143.337.195.158.076.322.139.49.19a1.685 1.685 0 0 0 1.591-.214c.4-.328.658-.797.723-1.31.037-.218.049-.44.036-.661a5.048 5.048 0 0 0-.073-.575c-.055-.362-.129-.704-.196-1.047-.067-.343-.612-1.739-.692-2.088-.018-.153-.41-.722-.434-.906zM2.09 108.629a17.983 17.983 0 0 1-.459-2.583c-.03-.434 0-.875-.043-1.31a8.685 8.685 0 0 1 .05-1.322 22.73 22.73 0 0 1 1.034-5.258c.41-1.262.883-2.502 1.42-3.716 1.836-4.333 4.285-8.422 6.733-12.53l1.647-2.736 1.695-2.675c1.451-2.277 2.975-4.511 4.249-6.899.795-1.487-1.653-.532-3.318 2.118a337.79 337.79 0 0 0-4.34 7.089c-1.408 2.38-2.804 4.756-4.132 7.223a83.059 83.059 0 0 0-4.603 9.224 30.35 30.35 0 0 0-1.629 5.51 19.488 19.488 0 0 0-.306 5.778 25.257 25.257 0 0 0 1.886 6.795 94.967 94.967 0 0 0 4.664 9.42c1.267 2.375 2.516 4.708 3.777 7.058l.814 1.543c1.047 1.916 1.457 2.448 2.063 2.687.133.055.27.1.41.135.392.036.233-.9-.459-2.363-2.069-4.328-4.634-8.631-6.923-13.063-1.677-3.287-3.312-6.654-4.187-10.131l-.043.006z"/><path fill="#1C1917" d="M15.916 106.677c1.598 3.464 3.06 6.99 4.438 10.547 1.836 4.842 4.077 10.167 4.193 15.431 0 .251-1.763 0-1.775-.477-.123-5.411-2.485-10.951-4.42-15.915a175.33 175.33 0 0 0-4.18-9.898c-.117-.251 1.536-.129 1.744.318v-.006zm.707 48.431c-1-.884-1.955-1.82-2.859-2.803-.33-.361-.612-.753-.942-1.127-1.145-1.297-2.253-2.638-3.275-4.052a21.771 21.771 0 0 1-1.225-1.952 20.503 20.503 0 0 0-1.456-2.553c-.368-.502-1.451.9-.882 1.965a27.24 27.24 0 0 0 3.575 5.093c.826.924 1.555 1.995 2.387 2.956a43.19 43.19 0 0 0 2.908 3.024c.612.612 1.273 1.163 1.953 1.702a22.408 22.408 0 0 0 3.268 2.21c.896.535 1.86.947 2.865 1.224.233.049.46.11.704.147.906.061 1.224-.135 1.316-.576.031-.099.054-.202.067-.306 0-.348-.336-.563-.838-.642-1.593-.34-3.1-.998-4.432-1.935a24.482 24.482 0 0 1-3.097-2.448l-.037.073zm14.37-44.293c.49 2.356.973 4.719 1.414 7.088.165.863.275 1.738.435 2.601.563 3.061 1.12 6.122 1.567 9.182a89.96 89.96 0 0 1 .502 4.095c.085.87.146 1.745.208 2.614.06.869.153 1.757.183 2.51a.338.338 0 0 0 0 .122s.03 0 .055.043a.447.447 0 0 0 .447.172.747.747 0 0 0 .355-.227 3.272 3.272 0 0 0 .753-2.448c-.134-1.837-.373-3.618-.649-5.405-.275-1.788-.563-3.563-.924-5.338-.44-2.13-.704-4.371-1.096-6.556a182.33 182.33 0 0 0-1.37-7.186 850.798 850.798 0 0 1-.907-4.408c-.471-2.222-.949-4.45-1.414-6.66-.349-1.714-.612-3.415-.936-5.123-.074-.374-.129-.747-.209-1.126-.312-1.396-.532-1.806-1.028-2.002a1.831 1.831 0 0 0-.337-.123c-.355-.049-.49.613-.336 1.617.447 3.06 1.108 6.237 1.763 9.432.483 2.375.997 4.757 1.463 7.144l.06-.018zm17.325-4.291c.318 2.146.62 4.299.906 6.458.104.783.153 1.579.263 2.362.367 2.773.74 5.54 1.065 8.319.14 1.225.239 2.479.312 3.704.039 1.584.176 3.164.41 4.731.184.98 1.66-.391 1.53-2.216a112.743 112.743 0 0 0-1.126-9.671c-.324-1.934-.453-3.961-.698-5.944a469.873 469.873 0 0 0-.863-6.525l-.569-4.016c-.3-2.026-.612-4.058-.894-6.066-.22-1.567-.342-3.116-.508-4.67-.036-.343-.06-.68-.104-1.023-.165-1.279-.336-1.665-.808-1.836a1.553 1.553 0 0 0-.324-.129c-.35-.067-.545.502-.496 1.445.178 2.871.501 5.731.967 8.57.3 2.161.612 4.34.894 6.507h.043zm-4.045 136.963v.067l.037.129.171.52a25.602 25.602 0 0 0 .778 2.063l.128.275.092.172.092.141c.116.18.243.354.38.52a11.433 11.433 0 0 0 3.727 2.632c.943.471 1.867.931 2.773 1.359.398.19.796.38 1.157.582.361.202.759.453 1.12.679.361.226.735.477 1.078.728.177.129.342.258.502.392.159.135.342.3.397.349a.615.615 0 0 1 .257.441c-.036.183-.244.245-.416.281-.124.016-.25.016-.373 0-.202 0-.416-.055-.643-.085l-1.353-.19a56.077 56.077 0 0 1-4.7-.833 33.8 33.8 0 0 1-5.645-1.836c-.538-.245-.722.135-.447.765a3.883 3.883 0 0 0 2.29 1.837 35.993 35.993 0 0 0 6.274 1.377c1.047.153 2.087.281 3.116.41l.808.104c.159 0 .281 0 .538.031.237.004.473-.016.704-.062a2.521 2.521 0 0 0 1.151-.55 1.346 1.346 0 0 0 .46-1.072 2.263 2.263 0 0 0-.613-1.346 4.323 4.323 0 0 0-.263-.294l-.233-.227-.398-.342a20.597 20.597 0 0 0-1.628-1.188l-.832-.539c-.288-.177-.612-.355-.888-.514-.612-.312-1.181-.612-1.769-.869a25.61 25.61 0 0 1-3.636-1.928 5.85 5.85 0 0 1-1.395-1.273 3.917 3.917 0 0 1-.233-.355c-.068-.129-.135-.288-.202-.441a13.32 13.32 0 0 1-.367-.967c-.117-.355-.233-.668-.343-1.004l-.074-.257-.098-.319-.214-.795-1.836-.386c-.502-.104-1.004-.202-1.475-.312a11.506 11.506 0 0 1-1.794-.57l-.208-.097-.135-.062-.159-.085a4.288 4.288 0 0 1-.612-.41 28.819 28.819 0 0 1-1.322-1.164c-.037.068-.068.068-.104.105v3.605c0 .337 0 .673.049 1.01a11.887 11.887 0 0 0 1.683 6.06c.252.403.54.784.857 1.139 1.224 1.291 1.836 1.432 2.375 1.285.125-.025.247-.066.361-.122.153-.098.129-.3-.043-.564a8.104 8.104 0 0 0-.881-.991 8.797 8.797 0 0 1-2.393-4.285 14.583 14.583 0 0 1-.362-2.589c0-.447-.042-.9-.049-1.365v-.141l.092.043c.595.263 1.209.48 1.836.649.613.165 1.225.281 1.776.397l.85.184.184.037h.03l.013.061zm-23.557-3.11c.147.661.312 1.31.508 1.965.104.337.196.643.349 1.022l.073.172.068.122.14.257c.093.165.195.325.307.478a12.059 12.059 0 0 0 3.128 2.84c.814.551 1.61 1.083 2.393 1.585.68.435 1.34.912 1.983 1.414.325.251.613.502.925.772.239.213.466.44.68.679a.517.517 0 0 1 .164.441c-.073.153-.263.19-.428.208-.11.012-.22.012-.33 0-.184-.031-.38-.08-.582-.122l-1.224-.282a41.272 41.272 0 0 1-4.255-1.194 35.294 35.294 0 0 1-5.02-2.295c-.495-.269-.697.104-.507.728a3.573 3.573 0 0 0 1.885 1.996 30.104 30.104 0 0 0 5.687 1.928c.96.233 1.916.441 2.865.612.238.049.47.104.753.153a4.25 4.25 0 0 0 1.175.055c.4-.042.783-.179 1.12-.398a1.388 1.388 0 0 0 .612-.918 1.984 1.984 0 0 0-.324-1.304 3.979 3.979 0 0 0-.429-.612l-.11-.128-.086-.092-.171-.178a16.96 16.96 0 0 0-1.402-1.267 26.988 26.988 0 0 0-2.987-2.148 24.328 24.328 0 0 1-3.116-2.21 6.545 6.545 0 0 1-1.175-1.347 3.324 3.324 0 0 1-.22-.379 1.077 1.077 0 0 1-.086-.166l-.08-.202a25.412 25.412 0 0 1-.281-.899 24.98 24.98 0 0 1-.33-1.292l-.074-.324-.086-.411-.178-1.016-.814-.055-.391-.043-.251-.036c-.33-.055-.668-.129-1.004-.208l-1.782-.441a8.816 8.816 0 0 0-1.995-.318l-1.145-.08c-.257.214-.263.612-.275 1.065v1.132l.055.919c.03.471.061.948.086 1.42.024.471.042.912.134 1.463a8.715 8.715 0 0 0 1.01 2.822c.218.396.47.773.753 1.126.353.471.791.872 1.292 1.181a1.067 1.067 0 0 0 .857.135c.122-.024.24-.061.355-.11.318-.196-.05-.747-.723-1.537a8.379 8.379 0 0 1-1.952-4.052l-.055-.563-.05-.643-.091-1.291-.074-1.292v-.073l.294.049c.508.085 1.04.22 1.592.361.55.141 1.114.294 1.714.422.294.068.612.123.918.172h.11v.03l.037.19.061.012z"/><path fill="#FF7C00" d="M103.59 154.918a13.636 13.636 0 0 0-4.352-1.493c-.429-.068-.52.287-.08.551a102.18 102.18 0 0 0 2.62 1.493c.545.294 9.378 4.542 12.371 5.999 2.993 1.457 5.828 2.767 8.76 4.114l10.969 5.062 4.071-8.833a168.18 168.18 0 0 0 1.781-3.985c1.983-4.579 4.064-9.121 6.176-13.65.398-.839.796-1.696 1.188-2.535l-1.071-.532-1.28-.612-1.708-.808-4.756-2.21c-3.422-1.579-6.905-3.171-7.713-3.52l-11.997-5.227c-.57-.251-1.163-.545-1.708-.723a37.834 37.834 0 0 1-3.673-1.554l-2.956-1.323-.753 1.892-.527 1.371c-.33.863-.612 1.738-.887 2.608-.276.869.122.459.257.195.391-.746.226-.073.281.031.055.104.049.086.086.055.083-.147.159-.298.226-.453l.545-1.163.765-1.653.423-.912.208-.391.379.214.888.447 1.696.851c1.028.514 1.836.899 2.075 1.022l16.074 7.572c.839.404 1.708.765 2.565 1.132l5.025 2.363a89.434 89.434 0 0 0 3.588 1.696l1.291.612-.037.079-.128.27c-1.071 2.369-2.216 4.713-3.177 7.119-.184.471-.416.948-.612 1.42-1.892 4.052-3.716 8.135-5.552 12.212l-1.971 4.285-.282-.135c-.373-.171-.759-.324-1.138-.49-.472-.202-.955-.404-1.427-.612-4.897-2.277-9.849-4.468-14.734-6.788-1.126-.539-6.592-2.871-7.884-3.496-.783-.355-3.275-1.23-3.905-1.567z"/><path fill="#FF7C00" d="M101.925 145.375c.116-.098.055-.257-.123-.453-.055-.061-.269-.159-.318-.134a1.616 1.616 0 0 0-.251.147c-.043.03-.465.691-.612.912-.14.214-.263.439-.367.673-.214.471-.447.937-.661 1.408a2.066 2.066 0 0 0-.117.324 5.236 5.236 0 0 1-.44 1.102.436.436 0 0 1-.11.166c-.23.374-.425.77-.582 1.181-.08.343-.184.679-.275 1.01 0 .049-.05.092 0 .153a.416.416 0 0 1-.05.324c-.054.14-.099.283-.134.429a.86.86 0 0 0 0 .245c0 .073.153.104.177.092.025-.013.11.036.166.067h.055a5.06 5.06 0 0 0 .66-.741s.613-1.114.68-1.224a.61.61 0 0 0 .074-.214c0-.031.502-.9.52-.937.102-.18.17-.377.202-.581a.272.272 0 0 1 .043-.117 9.77 9.77 0 0 0 .41-.979c.067-.171.153-.325.233-.49a.535.535 0 0 0 0-.098.634.634 0 0 1 .036-.122c.19-.38.325-.79.545-1.157.049-.086.153-.557.214-.655.062-.098-.024-.294.025-.331zm43.054-.538a3.397 3.397 0 0 0 1.873-.741.23.23 0 0 0 .077-.114.228.228 0 0 0-.218-.29c-.441 0-.882 0-1.322.043-.27 0-4.457.691-5.883.912a100.8 100.8 0 0 0-4.119.734l-8.356 1.616a40.13 40.13 0 0 0-1.836.398c-.612.147-1.378.319-2.069.466l-1.555.324-.833-1.5a9.53 9.53 0 0 1-.489-.961c-.221-.532-3.104-5.644-3.508-6.286l-2.956-4.836a5.443 5.443 0 0 0-.435-.68 8.686 8.686 0 0 1-.949-1.456c-.41-.698-.826-1.396-1.224-2.076a11.318 11.318 0 0 0-.71-.967c-.22-.287-.282 0-.239.092.135.343-.086.129-.171.135-.086.006-.061 0-.074.03-.012.031.031.08.086.202l.22.496.717 1.512c.526 1.114 1.095 2.277 1.224 2.498.061.11 3.293 6.078 3.673 6.764.189.355.41.697.612 1.04l2.754 5.124.612 1.053.906 1.573.937-.202.233-.055.128-.037.233-.061c.204-.061.413-.108.624-.141 1.904-.349 3.795-.759 5.687-1.151.973-.202 1.946-.373 2.913-.557.178-.037.349-.086.521-.128.171-.043.44-.111.661-.147 2.301-.435 4.585-.937 6.892-1.329.533-.091 3.061-.71 3.673-.808.312-.055 1.39-.465 1.69-.489z"/><path stroke="#1C1917" stroke-miterlimit="10" stroke-width="1.62" d="M125.493 165.612h.007"/><path fill="#1C1917" d="M116.709 166.751a2.11 2.11 0 0 0 1.597-.692c.135-.141.061-.496-.128-.52a11.546 11.546 0 0 0-1.133-.104c-.226 0-3.813.324-5.032.428a64.23 64.23 0 0 0-3.531.416c-2.382.337-4.769.655-7.156.986-.527.073-1.059.165-1.58.275-1.8.368-3.611.612-5.435.857a5.69 5.69 0 0 1-.912.08c-.49 0-5.418.673-6.048.808-1.573.33-3.146.612-4.726.924a3.26 3.26 0 0 0-.66.153 5.105 5.105 0 0 1-1.44.343c-.679.11-1.358.233-2.025.38a6.655 6.655 0 0 0-.974.318c-.293.104-.098.306 0 .312.313.031.08.171.062.263-.019.092 0 .08 0 .104 0 .025 3.997-.11 4.425-.171.104 0 5.828-.692 6.483-.753.336-.037.673-.116 1.01-.184.159-.036 4.744-.544 4.927-.569a24.48 24.48 0 0 0 2.822-.49c.185-.048.373-.081.563-.098 1.629-.202 3.245-.477 4.867-.74.826-.135 1.659-.227 2.491-.343.147 0 .294-.067.447-.092.153-.024.373-.086.557-.11 1.971-.257 3.93-.612 5.901-.82.459-.043 2.595-.514 3.122-.563.318-.025 1.236-.404 1.506-.398zm60.158 14.403a2.052 2.052 0 0 0 1.714.227c.19-.049.306-.392.153-.509-.288-.232-.612-.465-.9-.673-.196-.122-3.409-1.677-4.499-2.216a62.472 62.472 0 0 0-3.207-1.451c-2.198-.93-4.389-1.885-6.587-2.821a27.1 27.1 0 0 0-1.481-.576c-1.72-.612-3.391-1.31-5.056-2.05a4.83 4.83 0 0 1-.815-.404c-.41-.27-4.952-2.198-5.558-2.406-1.499-.52-2.987-1.084-4.48-1.628a2.856 2.856 0 0 0-.649-.208 5.196 5.196 0 0 1-1.396-.447 33.977 33.977 0 0 0-1.916-.717 7.621 7.621 0 0 0-.991-.22c-.3-.061-.239.208-.147.276.251.183 0 .183-.08.257a.15.15 0 0 0-.049.091c0 .062 3.459 1.959 3.85 2.125a583.42 583.42 0 0 1 5.889 2.675c.311.138.63.259.955.361.153.055 4.285 1.971 4.475 2.038.859.398 1.742.741 2.644 1.028.183.055.361.125.532.209 1.488.661 3.006 1.224 4.512 1.836.771.306 1.53.655 2.295.979.141.062.282.098.423.147.14.049.361.123.532.196 1.806.79 3.673 1.494 5.436 2.326.41.19 2.448.888 2.938 1.114.263.153 1.237.3 1.463.441zm-70.305 52.594a1.418 1.418 0 0 0 .459 1.322c.116.123.478.104.533-.043.102-.285.19-.575.263-.869.037-.177.208-3.012.275-3.973.068-.961.08-1.836.08-2.797v-5.687c0-.422 0-.844-.049-1.267a42.494 42.494 0 0 1-.092-4.327 3.575 3.575 0 0 1 .049-.723c.092-.379.092-4.285.043-4.805-.104-1.261-.171-2.522-.257-3.783a1.96 1.96 0 0 0-.055-.539 3.207 3.207 0 0 1-.141-1.156c0-.539-.043-1.084-.092-1.623a5.156 5.156 0 0 0-.177-.795c-.062-.239-.288-.111-.313 0-.073.244-.177.049-.275 0a.181.181 0 0 0-.098 0c-.055 0-.447 3.134-.447 3.47 0 .086-.128 4.622-.159 5.136a5.98 5.98 0 0 0 .037.814c0 .123-.123 3.753-.123 3.899-.027.753.003 1.506.092 2.253.016.151.016.302 0 .453 0 1.292 0 2.583.055 3.875v2.338c0 .116.031.3.031.453 0 1.561.049 3.122 0 4.689 0 .361.153 2.075.128 2.491.025.227.27.986.233 1.194z"/><path fill="#1C1917" d="M83.675 177.604a46.433 46.433 0 0 0-7.443-4.169c-.722-.312-.808.061-.037.612a285.911 285.911 0 0 0 4.585 3.208l21.424 13.907 4.695 2.969 13.045-1.995 36.152-5.608a676.41 676.41 0 0 0 8.019-1.297l13.063-2.118v12.457c0 1.542 0 3.128-.049 4.627-.031.869-.055 4.61-.068 9.182v13.467l-6.372 1.279-23.873 4.763c-1.138.226-2.357.434-3.379.691-2.381.612-4.836 1.041-7.302 1.518-3.416.661-6.838 1.335-10.235 2.026-1.684.343-3.336.741-4.983 1.121-1.5.349-.612.416-.104.336 1.555-.22.324.123.196.239-.129.116-.092.092 0 .104.092.012.343-.043.906-.135l2.301-.373 7.064-1.175c5.216-.876 10.682-1.806 11.753-2.014l32.492-5.962 3.587-.686v-3.189c0-.814.116-24.161.122-25.097v-10.706l-.061-4.707-.49.085-2.326.38-1.438.22c-8.221 1.224-16.423 2.583-24.632 3.893l-12.653 1.941-2.265.385-2.858.472-25.189 3.929-3.398-2.173c-1.946-1.224-11.373-7.021-13.62-8.465-1.266-.802-5.527-3.208-6.629-3.942zm21.773 57.068a1.845 1.845 0 0 0 1.537.508c.19 0 .373-.324.263-.465-.22-.275-.441-.545-.686-.796-.146-.153-2.779-2.191-3.672-2.895a52.545 52.545 0 0 0-2.645-1.934c-1.836-1.274-3.636-2.559-5.46-3.832a27.53 27.53 0 0 0-1.224-.802c-1.457-.876-2.847-1.837-4.224-2.828a4.561 4.561 0 0 1-.66-.521c-.32-.33-4.09-2.956-4.604-3.256-1.273-.759-2.522-1.549-3.79-2.32a2.332 2.332 0 0 0-.544-.312 4.56 4.56 0 0 1-1.194-.667 33.647 33.647 0 0 0-1.616-1.01 7.18 7.18 0 0 0-.863-.386c-.269-.104-.269.165-.208.245.196.22-.055.171-.128.232-.074.062-.062.049-.062.08s2.755 2.448 3.061 2.693c.08.055 4.37 3.202 4.848 3.575.251.19.533.343.802.508.129.074 3.544 2.62 3.673 2.712a18.738 18.738 0 0 0 2.222 1.438c.153.086.3.182.44.288 1.225.888 2.498 1.714 3.759 2.553.649.428 1.273.887 1.904 1.334.116.08.245.141.36.214.117.074.307.172.454.276 1.487 1.065 3.06 2.05 4.505 3.152.337.257 2.081 1.273 2.449 1.567.257.172 1.132.508 1.303.649z"/><path fill="#1C1917" d="M137.264 183.535c.3.355.741.306 1.292.031.171-.092.422-.533.355-.655a5.65 5.65 0 0 0-.435-.698c-.098-.122-2.014-1.567-2.65-2.069a18.083 18.083 0 0 0-1.953-1.316c-1.359-.833-2.712-1.683-4.071-2.516a7.716 7.716 0 0 0-.942-.49 22.312 22.312 0 0 1-3.177-1.787 1.768 1.768 0 0 1-.478-.373 29.272 29.272 0 0 0-3.422-2.155c-.985-.423-1.94-.894-2.907-1.341a1.006 1.006 0 0 0-.429-.165 1.741 1.741 0 0 1-.93-.343 23.27 23.27 0 0 0-1.224-.612 2.91 2.91 0 0 0-.704-.128c-.215-.031-.288.293-.245.361.122.189-.098.232-.184.336a.46.46 0 0 0-.073.117 20.99 20.99 0 0 0 2.167 2.05c.061.037 3.226 2.179 3.568 2.449.191.126.397.229.612.306.098.049 2.608 1.793 2.712 1.836a7.16 7.16 0 0 0 1.69.882c.12.038.232.098.33.177.912.612 1.873 1.102 2.828 1.628.484.27.943.582 1.42.87.089.048.181.089.276.122.118.048.232.103.343.165 1.108.704 2.283 1.298 3.36 2.063.245.178 1.598.735 1.879.943.135.135.876.177.992.312zm-72.603-36.281a58.646 58.646 0 0 0-.722-6.427c-.123-.765-.208-1.542-.355-2.301-.514-2.688-1.102-5.35-1.659-8.019a59.323 59.323 0 0 1-.612-3.563 43.296 43.296 0 0 0-.753-4.536c-.239-.936-1.653.484-1.377 2.265a100.269 100.269 0 0 0 1.91 9.286c.465 1.836.734 3.789 1.065 5.687a67.99 67.99 0 0 1 .826 6.28 26.11 26.11 0 0 1 .055 3.85 14.29 14.29 0 0 1-.459 2.847 9.653 9.653 0 0 1-1.083 2.607 2.793 2.793 0 0 1-1.433 1.225 2.204 2.204 0 0 1-1.836-.778 3.618 3.618 0 0 1-.288-.324c-.698-.869-.924-1.175-1.444-1.182a2.258 2.258 0 0 0-.35 0c-.183 0-.269.184-.257.447.037.383.162.752.368 1.078a5.64 5.64 0 0 0 1.56 1.805c.198.128.402.244.613.349.233.096.472.176.716.239.265.04.534.052.802.037.268-.021.532-.081.783-.178a4.545 4.545 0 0 0 2.094-1.799c.425-.681.77-1.408 1.028-2.167a17.856 17.856 0 0 0 .87-6.734l-.062.006z"/><path fill="#1C1917" stroke="#1C1917" stroke-linecap="round" stroke-miterlimit="10" stroke-width="3" d="M9.992 236.827c13.467 5.815 14.128 2.92 15.15 2.161 2.583-1.91 5.258-21.92 6.287-27.613a1754.043 1754.043 0 0 0 5.919-34.689c1.12 18.835-3.324 60.692-1.898 62.173 1.163 1.225 14.177 5.675 14.691 1.567 1.494-12.346 2.32-24.772 2.859-37.199.643-14.752.184-63.049-1.224-72.892-4.75 4.353-12.518 2.926-16.062 2.449.612 7.958.245 28.739-13.339 27.276-1.78 14.471-3.74 29.45-4.897 35.706-.434 2.191-9.347 40.259-7.486 41.061z"/><path fill="#1C1917" d="M36.838 133.616c6.17.613 12.242-.538 16.41-5.362.38-.428 2.076.196 1.654.68-4.53 5.209-11.208 6.28-17.807 5.595-.833-.086-1.494-1.041-.257-.913zm148.761 84.168c1.958 1.481 2.595 4.389 1.836 6.733-1.304 3.857-5.803 5.466-9.794 6.36-16.931 3.795-34.463 3.74-51.81 3.355a225.342 225.342 0 0 1 42.408-8.062 37.204 37.204 0 0 0 9.071-2.008c4.089-1.34-3.464-15.285 8.289-6.378zM38.626 29.151c0 .147.172.135.49.08.098 0 .355-.154.367-.215a1.623 1.623 0 0 0 0-.342 2.053 2.053 0 0 0-.263-.496 7.104 7.104 0 0 0-.429-.612 3.009 3.009 0 0 0-.648-.57 8.38 8.38 0 0 0-1.512-.814 1.614 1.614 0 0 0-.374-.104c-.439-.07-.874-.162-1.304-.275a.533.533 0 0 1-.208-.074 2.356 2.356 0 0 0-.734-.122 2.88 2.88 0 0 0-.79.055 6.39 6.39 0 0 0-1.138.471c-.05 0-.11.043-.141.11-.03.068-.178.19-.282.251a1.597 1.597 0 0 0-.386.319.79.79 0 0 0-.116.25c0 .074.116.197.147.203.03.006.098.104.14.165l.044.067c.15-.004.3-.022.447-.055.202-.043.428 0 .459-.049l.165-.055.367-.067c.204-.014.409-.014.612 0a.398.398 0 0 0 .184-.037c.308.03.614.088.912.171.176.058.362.074.545.05a.172.172 0 0 1 .11 0l.918.287c.152.064.3.137.441.22h.092a.262.262 0 0 1 .11.037c.368.176.706.407 1.004.686.061.061.453.25.496.343.043.091.269.06.275.122zm4.991-.496c-.129-.049-.172.129-.147.429.026.142.076.278.147.404a1.9 1.9 0 0 0 .202.159c.03 0 .514.043.673.092.156.021.315.021.471 0 .32-.021.641-.021.961 0a.674.674 0 0 0 .22 0c.25-.058.51-.047.754.03.042 0 .085 0 .116.062.25.116.516.194.79.232.221-.024.445-.024.667 0h.104c.049 0 .159-.037.22 0l.276.068a.614.614 0 0 0 .196-.055c.06 0 .146-.184.14-.209-.006-.024.068-.122.117-.183a.377.377 0 0 0 .042-.062 1.089 1.089 0 0 0-.19-.342 2.11 2.11 0 0 0-.275-.325l-.14-.073-.307-.165-.52-.24a.301.301 0 0 0-.165 0s-.729-.275-.76-.268c-.152 0-.3-.086-.465 0a.177.177 0 0 1-.097 0 3.058 3.058 0 0 0-.784 0h-.404a.346.346 0 0 0-.073 0 .244.244 0 0 1-.092 0c-.319 0-.612.06-.961.049-.08 0-.416.183-.502.19-.086.005-.166.226-.215.207zm-1 16.118a1.8 1.8 0 0 0 .435-.888 1.65 1.65 0 0 0 .042-.367 1.87 1.87 0 0 0 0-.325 5.741 5.741 0 0 0-.19-1.096c-.067-.238-.097-.483-.177-.697-.134-.33-.245-.735-.38-1.133l-.385-1.181c-.11-.35-.19-.71-.288-1.06a7.492 7.492 0 0 0-.459-1.334c-.06-.134 0-.122-.03 0-.03.123-.123.368-.184.65a6.679 6.679 0 0 0 0 2.87c.067.282.112.568.135.857v.22l.036.258c0 .153.056.293.086.434.159.508.25 1.035.27 1.567v.147c0 .006-.068.068-.252.055a3.96 3.96 0 0 1-1.591-.373 8.302 8.302 0 0 1-1.09-.71l-.244-.166c-.306-.214-.435-.269-.496-.318l-.037-.043c.063.123.116.25.16.38.177.433.405.844.679 1.224.305.396.683.73 1.114.986.33.199.69.347 1.065.44l.288.068c.063.005.126.005.19 0h.214a1.647 1.647 0 0 0 1.101-.465h-.012zm-7.59 4.897c.187.322.437.603.735.826.102.097.215.184.336.257.45.2.953.247 1.433.135a3.54 3.54 0 0 0 .544-.141c.11-.046.213-.106.307-.178a.846.846 0 0 0 .134-.122l.03-.037v-.122c0-.019-.03 0-.042 0a.391.391 0 0 0-.098.06c-.03.025-.049 0 0 .032a.112.112 0 0 1 .055 0s0 .042 0 0a.06.06 0 0 1 0-.043v-.03a.337.337 0 0 1 .006-.025.76.76 0 0 0-.165-.104c-.435-.233-.655-.423-.906-.41-.25.012-.263-.154-.386-.245a3.991 3.991 0 0 1-.477-.386 2.294 2.294 0 0 1-.288-.343 2.556 2.556 0 0 1-.373-.612 1.143 1.143 0 0 1-.086-.27 1.528 1.528 0 0 0-.122-.269 1.155 1.155 0 0 0-.061-.122 1.582 1.582 0 0 0-.19-.22.614.614 0 0 1-.098.183c-.092.19-.22.398-.33.612a2.061 2.061 0 0 0 .043 1.671v-.098zm2.162 8.57c1.053-.613 7.009 4.468.808 4.082-11.875-.735-9.868-7.345-9.868-7.345s6.636 4.725 9.06 3.262zM30.15 97.348c1.31 6.201 2.78 12.365 4.176 18.541 1.224 5.466 2.974 11.122 3.532 16.717.067.68-1.714.343-1.776-.232-.55-5.595-2.301-11.245-3.532-16.717-1.39-6.177-2.864-12.341-4.168-18.542-.135-.612 1.646-.355 1.769.233zm20.243-21.73a14.477 14.477 0 0 1-6.733 1.591c-2.18-.098-4.23-.888-6.428-.845-.563 0-1.604-.82-.612-.838 1.513.02 3.02.205 4.493.55 2.92.57 5.356.05 8.05-1.18.434-.197 1.836.44 1.224.722h.006zm-4.666-37.175c-.392 0-.71-.693-.71-1.549 0-.855.318-1.548.71-1.548.393 0 .71.693.71 1.548 0 .856-.317 1.55-.71 1.55z"/><path fill="#1C1917" d="M45.782 36.43a.055.055 0 0 1 .03 0c0 .073.037.146.055.226.027.155.041.313.043.47a.761.761 0 0 1 0 .166v.067a.49.49 0 0 1-.03.27c-.031.11-.166.19-.257.128a.355.355 0 0 1-.135-.263v-.22a.953.953 0 0 0-.08-.355c-.06-.16-1.028.037-.991.447.027.242.085.481.171.71.084.228.216.437.386.612.149.146.339.244.545.281a.813.813 0 0 0 .612-.128 1.958 1.958 0 0 0 .752-1.334c.054-.43.027-.866-.079-1.286a2.137 2.137 0 0 0-.416-.888.814.814 0 0 0-.551-.306.765.765 0 0 0-.576.257 2.296 2.296 0 0 0-.55.962 1.497 1.497 0 0 0-.062.201c-.043.245.03.331.288.386l.178.03a.434.434 0 0 0 .434-.195c.04-.087.088-.171.14-.251a.116.116 0 0 1 .062 0c.03 0 .03.03.03.03s0-.036.031 0l-.03-.018zm-7.984.44c-.392 0-.71-.694-.71-1.549s.318-1.548.71-1.548c.392 0 .71.693.71 1.548 0 .855-.318 1.549-.71 1.549z"/><path fill="#1C1917" d="M37.856 34.862h.03a2.397 2.397 0 0 1 .098.692.78.78 0 0 1 0 .171.14.14 0 0 0 0 .067.62.62 0 0 1-.03.27c-.037.11-.171.19-.257.128a.361.361 0 0 1-.14-.263v-.22a1.116 1.116 0 0 0-.086-.355c-.062-.16-1.023.036-.986.447.022.24.078.478.165.703.086.23.22.439.392.613.146.147.334.245.539.281a.839.839 0 0 0 .612-.128 1.975 1.975 0 0 0 .759-1.335c.051-.43.022-.866-.086-1.285a2.063 2.063 0 0 0-.416-.888.789.789 0 0 0-.55-.306.765.765 0 0 0-.57.257 2.24 2.24 0 0 0-.557.961c0 .074-.05.129-.061.202-.043.245.03.33.287.38l.178.037a.435.435 0 0 0 .44-.196c.036-.089.08-.173.135-.251a.092.092 0 0 1 .067 0 .037.037 0 0 1 0 .03s0-.037.037 0v-.012zM9.24 131.321c-3.49.851 1.836 2.706 2.999 2.755.27 0 .612-.031.716-.27.245-.508-.784-1.61-1.175-1.928a3.067 3.067 0 0 0-2.54-.557zm16.886-3.697a2.446 2.446 0 0 0-1.708.808 2.534 2.534 0 0 0-.404 1.016c-.06.3-.318 1.028.055 1.224.374.196.747-.294.943-.489.396-.442.7-.958.894-1.519.104-.232.838-1.15.22-1.04z"/><path fill="#1C1917" d="M16.175 135.624a15.35 15.35 0 0 0 3.807-.3 12.35 12.35 0 0 0 1.378-.361 9.02 9.02 0 0 0 3.954-2.969c.44-.569.849-1.161 1.224-1.775a7.421 7.421 0 0 0 1.102-2.448c.104-.557-1.616-.478-2.008.379a13.891 13.891 0 0 1-2.601 4.052 3.37 3.37 0 0 1-.563.459 2.543 2.543 0 0 1-.613.374l-.685.306c-.239.086-.484.141-.723.22a11.69 11.69 0 0 1-3.36.478c-.71 0-1.432-.08-2.149-.129a20.793 20.793 0 0 1-3.226-.698 16.104 16.104 0 0 1-1.193-.428c-.392-.153-.765-.367-1.145-.545-.171-.079-.33-.171-.502-.245-.643-.263-.887-.232-1.224.117-.072.077-.14.159-.202.244-.19.288 0 .643.435.919.69.416 1.413.776 2.16 1.077.778.275 1.574.526 2.382.753a65.98 65.98 0 0 0 1.836.355c.612.11 1.267.128 1.891.202l.025-.037z"/></svg>