<svg xmlns="http://www.w3.org/2000/svg" width="262" height="166" fill="none"><path fill="#1C1917" d="M192.713 90.642a13.193 13.193 0 0 1-.725 2.11c-.108.248-.211.502-.335.74a10.177 10.177 0 0 1-1.715 2.293 7.937 7.937 0 0 1-.989.817 3.046 3.046 0 0 1-1.531.59c-.167 0-.162-.12-.065-.292.122-.215.29-.4.492-.541a9.17 9.17 0 0 0 1.125-.876c.19-.156.37-.322.541-.498.168-.178.357-.346.514-.54.213-.23.394-.486.541-.763l.227-.417.194-.432a12.52 12.52 0 0 0 .731-1.947c.112-.415.201-.835.265-1.26a8.754 8.754 0 0 0 .108-1.947 5.695 5.695 0 0 0-.108-.736c-.065-.243-.136-.48-.19-.719 0-.103-.07-.2-.097-.303-.114-.384-.081-.54.141-.686.046-.04.094-.076.146-.109.178-.097.378 0 .54.32.423.918.609 1.927.541 2.936v.573c0 .184-.043.373-.065.541a9.93 9.93 0 0 1-.205 1.12l-.081.026zm-26.345-14.233c.281.28.545.578.789.892.087.114.19.216.271.335.283.428.503.895.654 1.385.07.216.146.427.2.643.054.217.065.282.087.428a2.38 2.38 0 0 1-.033.438c0 .086-.167.07-.324 0s-.325-.173-.362-.303c-.173-.455-.33-.876-.503-1.363a2.588 2.588 0 0 0-.509-.779 7.355 7.355 0 0 0-1.189-1.227 4.25 4.25 0 0 0-.828-.541 3.203 3.203 0 0 0-.698-.227.396.396 0 0 1-.156-.044c-.179-.08-.217-.162-.222-.367v-.13c0-.146.124-.249.319-.287a2.347 2.347 0 0 1 1.568.406c.347.208.673.45.974.72l-.038.02zM88.117 82.53c0-15.142 24.255-28.332 34.351-20.89 5.522 4.072 2.028 21.431-17.105 25.839-3.986.92-16.683 2.358-17.246-4.948zm-16.47-5.975c6.408-3.126 15.801 6.451 13.822 10.789-4.526 9.918-14.277 6.684-16.494-.98-.74-2.568-1.27-7.884 2.672-9.81zM23.314 97.462c-27.12-4.9-29.419 24.725-10.875 43.09 7.42 7.344 14.466 2.272 19.863-3.558-6.635-5.797-10.854-24.455-6.922-26.034 3.245-1.298 14.926 1.741 23.179-.752 3.471-1.043 6.332-3.071 7.695-6.808.456-1.271.731-2.6.817-3.948 1.314-17.624-28.322-17.533-33.757-1.99zM15.97 121.96c-.492-2.926 3.402-3.45 4.71-2.163-.46 1.984 1.877 6.23 1.526 6.176-2.136-.352-5.69-.779-6.236-4.013z"/><path fill="#1C1917" d="M32.2 111.55c-1.26-.092-2.52-.195-3.753-.211a8.197 8.197 0 0 0-.914 0 5.848 5.848 0 0 0-.887.059l-.432.049-.373.103-.184.048a.554.554 0 0 0-.114.065c-.08 0-.14.103-.216.168-.31.404-.515.88-.595 1.384a9.848 9.848 0 0 0-.184 1.763c-.01 1.233.077 2.464.26 3.683.375 2.469.97 4.9 1.779 7.263a35.34 35.34 0 0 0 3.077 6.798 18.56 18.56 0 0 0 1.53 2.217c.27.351.574.676.877 1 0 .027.097.098.173.168l.21.2.428.4.21.206.055.048-.038.055-.108.113-.417.438-.654.714c-.157.173-.325.335-.492.503-.34.324-.665.665-1.017.979-.351.313-.692.633-1.081.935-.39.303-.73.601-1.082.893a17.209 17.209 0 0 1-4.402 2.455 10.2 10.2 0 0 1-5.078.589l-.638-.119a3.015 3.015 0 0 1-.628-.156c-.405-.146-.816-.276-1.216-.433l-1.141-.595a3.475 3.475 0 0 1-.541-.335l-.492-.39-.541-.367a4.952 4.952 0 0 1-.476-.411l-.936-.839c-.59-.589-1.14-1.195-1.714-1.79a41.523 41.523 0 0 1-9.437-17.143 29.574 29.574 0 0 1-1-8.717c.026-.737.093-1.472.2-2.201.054-.363.086-.731.162-1.082l.243-1.082a8.06 8.06 0 0 1 .292-1.081l.341-1.055.427-1.006.217-.508.265-.487a14.531 14.531 0 0 1 3.515-4.445 16.166 16.166 0 0 1 4.927-2.828 21.51 21.51 0 0 1 5.553-1.082c.47-.027.941 0 1.412 0 .469-.012.938 0 1.406.038.93.086 1.871.119 2.785.297 2.304.379 1.914.622-.038.628-1.952.005-5.527-.076-9.47.94a14.178 14.178 0 0 0-8.495 6.09 16.756 16.756 0 0 0-2.023 4.97 22.5 22.5 0 0 0-.465 2.704c-.08.91-.114 1.823-.102 2.736-.007.459.011.917.054 1.374.043.46.065.919.119 1.374.13.908.238 1.827.454 2.703.216.877.433 1.796.665 2.704.13.444.292.877.433 1.32.14.443.286.881.47 1.309a40.64 40.64 0 0 0 5.408 9.734 38.961 38.961 0 0 0 4.456 5.083 10.811 10.811 0 0 0 5.76 3.072c.269.053.542.077.816.07.27 0 .541.028.822 0a9.782 9.782 0 0 0 1.623-.259 12.541 12.541 0 0 0 3.104-1.239 26.605 26.605 0 0 0 5.343-4.245c.227-.216.438-.454.66-.676l.119-.124c0-.043.124-.076.038-.119l-.136-.135-.075-.076-.168-.178c-.227-.249-.454-.487-.66-.747a22.754 22.754 0 0 1-2.163-3.245 38.987 38.987 0 0 1-3.04-7.133 40.503 40.503 0 0 1-1.676-7.571 19.342 19.342 0 0 1-.097-3.92 7.162 7.162 0 0 1 .454-1.991c.133-.349.334-.668.59-.941l.216-.211c.082-.06.17-.114.26-.162a1.67 1.67 0 0 1 .54-.205 9.313 9.313 0 0 1 2.466-.276l1.196.027 1.184.065 4.71.341c3.111.273 6.24.273 9.35 0 .303-.038.606-.065.91-.109l.902-.156a16.64 16.64 0 0 0 1.78-.395 13.957 13.957 0 0 0 3.358-1.336 9.952 9.952 0 0 0 4.548-5.343v.119-.119c.743-2.115.991-4.372.724-6.598a10.41 10.41 0 0 0-2.703-5.9 12.439 12.439 0 0 0-4.38-2.974 17.95 17.95 0 0 0-5.17-1.26 23.425 23.425 0 0 0-10.525 1.45 21.46 21.46 0 0 0-4.104 2.162 17.476 17.476 0 0 0-4.397 4.251c-.416.54-.681.984-.941 1.352-.119.184-.249.34-.351.492-.103.151-.195.297-.293.433-.173.238-.384.568-.54.703-.222.227-.152-.238.194-1.304a13.462 13.462 0 0 1 2.704-4.326 17.552 17.552 0 0 1 3.921-3.18 21.431 21.431 0 0 1 4.64-2.114 23.725 23.725 0 0 1 10.275-.984c1.758.212 3.478.667 5.11 1.352a13.607 13.607 0 0 1 4.468 3.012 11.276 11.276 0 0 1 2.763 4.71 14.78 14.78 0 0 1 .46 5.408 15.017 15.017 0 0 1-.822 3.721l.048-.276v.146l-.048.13a11.62 11.62 0 0 1-1.758 3.158c-.764.95-1.677 1.77-2.704 2.428a14.519 14.519 0 0 1-3.245 1.52c-1.117.355-2.26.625-3.417.805-4.608.709-9.194.32-13.693 0l.021-.037z"/><path fill="#1C1917" d="M21.152 125.037a.134.134 0 0 0 0-.07v-.098l-.135-.384a33.348 33.348 0 0 1-.508-1.573 11.982 11.982 0 0 1-.32-1.19 6.326 6.326 0 0 1-.113-.973 3.129 3.129 0 0 1 0-.503.665.665 0 0 1 0-.141v-.076a.37.37 0 0 0-.135-.14 2.462 2.462 0 0 0-.427-.19 3.182 3.182 0 0 0-1.017-.14 2.445 2.445 0 0 0-1.482.508 1.665 1.665 0 0 0-.54.746c-.054.144-.09.292-.109.444a2.74 2.74 0 0 0-.054.487c0 .205-.313.259-.622.07a1.08 1.08 0 0 1-.416-.471 1.16 1.16 0 0 1-.038-.816 2.748 2.748 0 0 1 .898-1.336 3.29 3.29 0 0 1 1.363-.66 3.951 3.951 0 0 1 2.812.336l.221.135c.087.047.167.105.238.173.146.13.309.249.438.378-.12.424-.149.868-.086 1.304.049.349.117.696.206 1.038a17.6 17.6 0 0 0 .438 1.514l.265.757.367.995c.13.292.172.616.12.931 0 .054-.044.151-.12.14l-.184.043a.92.92 0 0 1-.194.033h-.26l-.649-.119c-.405-.07-.6-.119-.865-.173a6.684 6.684 0 0 1-.752-.206 9.734 9.734 0 0 1-1.47-.54 5 5 0 0 1-2.218-2.077c-.303-.66-.222-.925.032-1.114.06-.047.123-.089.19-.125.221-.097.465.114.638.471a4.562 4.562 0 0 0 2.823 2.163c.346.119.708.211 1.081.298l.482.108h.043s.043.027.043 0l.016.043zm34.925-21.188c0 .33-1.482 5.105-7.204 6.165.092.254 3.126 20.096-.232 26.05 1.006.73 14.33 3.245 15.055-10.913.66-12.979-6.073-15.884-7.62-21.302zm-3.559 16.424a30.404 30.404 0 0 0 0-5.165c.947-.952 2.26-1.747 3.39-.357 1.337 1.65-1.189 5.522-3.39 5.522z"/><path fill="#1C1917" d="M61.57 133.576a10.423 10.423 0 0 1-5.608 3.38 14.76 14.76 0 0 1-6.49.038c-.07 0-.275-.076-.421-.119a2.376 2.376 0 0 1-.449-.162 3.523 3.523 0 0 1-.4-.206l-.2-.113-.049-.027v-.027l.043-.103.32-.855a2.39 2.39 0 0 0 .108-.238l.054-.14.092-.249c.234-.684.415-1.386.54-2.098.442-2.593.634-5.223.574-7.853 0-2.649-.163-5.31-.39-7.96a106.867 106.867 0 0 0-.335-3.175l-.206-1.579-.26-1.719c.06-.184.098-.336.13-.465.033-.13.152-.163.228-.244l.103-.097.713-.173c.173-.043.336-.114.509-.168l.497-.184.487-.227a8.621 8.621 0 0 0 1.78-1.136 9.445 9.445 0 0 0 2.546-3.336 2.73 2.73 0 0 1 .222-.417c.054-.065.092-.07.211-.07l.043.033a.3.3 0 0 1 .07.14c.045.177.063.359.055.541a5.805 5.805 0 0 1-1.936 3.785 10.136 10.136 0 0 1-2.218 1.52c-.398.2-.81.372-1.233.514-.21.07-.422.146-.638.211l-.281.065.178 1.298.19 1.589c.119 1.06.221 2.124.308 3.191a90.31 90.31 0 0 1 .32 6.419c0 1.872 0 3.786-.077 5.711a24.334 24.334 0 0 1-.887 5.727c-.075.26-.173.541-.275.779l-.065.157-.027.054-.06.124a.207.207 0 0 0-.032.06l.06.032.13.043.145.044.357.081c.99.19 1.999.27 3.007.238 2.02-.02 3.996-.59 5.716-1.65a8.944 8.944 0 0 0 2.585-2.59 11.628 11.628 0 0 0 1.466-3.412 17.69 17.69 0 0 0 .46-2.818c.047-.48.07-.962.07-1.444l.032-1.444a25.96 25.96 0 0 0-.725-5.662 20.357 20.357 0 0 0-1.622-4.078 33.457 33.457 0 0 0-2.39-3.677c-.384-.541-.768-1.044-1.147-1.595a14.16 14.16 0 0 1-.833-1.347 5.58 5.58 0 0 1-.454-.99 2.122 2.122 0 0 1-.162-1.216c.015-.134.044-.267.086-.395.076-.141.244 0 .47.378.114.19.223.433.406.714.184.282.346.617.59.979.681 1.082 1.503 2.136 2.31 3.245a28.077 28.077 0 0 1 2.243 3.569 21.458 21.458 0 0 1 1.569 4.034c.167.709.33 1.417.454 2.131.124.714.222 1.439.254 2.163l.087 1.623v1.622c0 .541 0 1.082-.076 1.623-.076.54-.124 1.081-.206 1.622a12.752 12.752 0 0 1-2.617 6.068l-.049-.087z"/><path fill="#1C1917" d="M55.544 115.746a1.223 1.223 0 0 0-.065-.384.889.889 0 0 1-.081-.162c0-.054-.098-.119-.141-.184a1.085 1.085 0 0 0-.67-.406 1.325 1.325 0 0 0-.606.136 3.12 3.12 0 0 0-.541.303l-.254.183a.465.465 0 0 0-.108.076v2.991c.073.636.036 1.28-.109 1.903-.075.222-.357.098-.622-.092a1.08 1.08 0 0 1-.54-.816c0-1.206.06-2.472.151-3.694a2.275 2.275 0 0 0 0-.324c0-.125 0-.255-.032-.379.189-.173.4-.373.54-.514.141-.14.27-.216.411-.319.3-.221.637-.388.995-.492a2.007 2.007 0 0 1 1.623.211 2.61 2.61 0 0 1 1.006 1.179 2.845 2.845 0 0 1 0 1.812 6.333 6.333 0 0 1-1.212 2.211 6.2 6.2 0 0 1-1.406 1.38c-.13.075-.26.162-.4.232-.54.216-.806.114-.93-.173a1.576 1.576 0 0 1-.076-.206c-.038-.237.135-.432.379-.54a5.89 5.89 0 0 0 1.99-1.99c.192-.306.348-.633.465-.974.06-.16.106-.325.14-.492.016-.149.016-.3 0-.449l.093-.027zm-8.801 30.982.125-.081c.043 0 .092.033.135.049l.27.135.46.222.584.297c.395.184.757.427 1.13.644.757.432 1.45.951 2.163 1.449.492.389 1.023.73 1.493 1.146a45.642 45.642 0 0 1 4.65 4.651c.65.72 1.282 1.46 1.91 2.191a24.285 24.285 0 0 1 2.255 2.925c.195.303 0 .444-.422.346a2.913 2.913 0 0 1-1.411-.962c-.79-.963-1.585-1.915-2.396-2.845-.811-.93-1.623-1.887-2.45-2.812a27.59 27.59 0 0 0-3.385-3.055 24.971 24.971 0 0 0-4.175-2.737l-.59-.297-.086-.044s-.049 0-.076.033l-.205.13c-.438.302-.909.54-1.38.822a10.27 10.27 0 0 1-4.72 1.243 7.485 7.485 0 0 1-3.694-.903l-.373-.2-.352-.238c-.849-.632-1-.973-.93-1.33a1.11 1.11 0 0 1 .054-.243c.12-.233.54-.054 1.082.34a7.62 7.62 0 0 0 2.704 1.271 6.92 6.92 0 0 0 3.017 0 9.896 9.896 0 0 0 2.217-.773c.368-.157.709-.373 1.082-.568.179-.092.346-.216.54-.324l.812-.541-.038.059zm-22.767 10.746a40.264 40.264 0 0 1 2.293-2.85c.287-.346.579-.682.882-1.006a34.085 34.085 0 0 1 3.51-3.104c.54-.422 1.081-.865 1.622-1.271.351-.265.697-.541 1.081-.79.366-.245.748-.467 1.142-.665.248-.119.33.081.26.39a1.899 1.899 0 0 1-.688 1.032c-1.39 1.082-2.758 2.164-4.131 3.245-.42.33-.812.691-1.174 1.082-.384.384-.74.795-1.081 1.19-.341.394-.785.897-1.18 1.341a13.31 13.31 0 0 0-1.081 1.406c-.444.589-.865 1.19-1.276 1.801-.611.93-1.212 1.882-1.73 2.866-.407.762-.73 1.547-1.082 2.331l-.222.54c-.292.639-.46.801-.806.801a1.804 1.804 0 0 1-.233 0c-.243-.043-.291-.39-.124-.887a24.497 24.497 0 0 1 2.05-4.364c.605-1.082 1.287-2.093 1.99-3.099l-.022.011zm19.187-16.186a9.624 9.624 0 0 1-5.744-.222l-.984-.357-.936-.459a14.671 14.671 0 0 1-2.904-2.164c-.454-.394-.843-.854-1.254-1.281a11.589 11.589 0 0 1-1.12-1.39c-.34-.487-.632-.849-.919-1.293-.287-.443-.579-.87-.85-1.319a13.586 13.586 0 0 1-.946-1.774l-.189-.47-.157-.482c-.08-.33-.156-.654-.26-.973-.107-.406.055-.4.347-.135.146.129.314.329.54.54l.336.368c.06.07.114.141.178.206.065.065.093.156.141.238.67 1.119 1.233 2.293 1.985 3.363a24.932 24.932 0 0 0 2.401 3.094 12.395 12.395 0 0 0 3.861 2.774 9.033 9.033 0 0 0 5.046.892 7.94 7.94 0 0 0 3.012-1.038 9.539 9.539 0 0 0 3.38-3.499 10.715 10.715 0 0 0 1.2-3.575c.044-.275.087-.54.109-.816a9.38 9.38 0 0 1 .162-1.082.81.81 0 0 1 .325-.481c.068-.056.14-.107.216-.152.238-.102.427.341.449 1.163a11.404 11.404 0 0 1-2.564 7.068 9.888 9.888 0 0 1-4.867 3.278l.006-.022zm69.139-19.415a8.246 8.246 0 0 1-2.163 2.547c-.232.163-.46.336-.708.476l-.763.39c-.51.21-1.037.38-1.574.508a9.876 9.876 0 0 1-1.622.26 10.56 10.56 0 0 1-1.649-.054 11.362 11.362 0 0 1-3.148-.817 16.76 16.76 0 0 1-4.018-2.352 23.64 23.64 0 0 1-2.969-2.769l-1.298-1.579-1.13-1.682a39.845 39.845 0 0 1-3.396-7.274c-.817-2.223-1.504-4.499-2.104-6.765a134.6 134.6 0 0 1-1.082-4.392 100.4 100.4 0 0 1-.438-2.217c-.135-.74-.173-1.492-.286-2.223a4.383 4.383 0 0 1-.038-.47c0-.097 0-.157.054-.168.054-.01.249.146.449.514s.46.892.752 1.525c.275.731.49 1.484.643 2.25.611 2.974 1.33 5.922 2.212 8.82a49.862 49.862 0 0 0 3.348 8.426l.654 1.195c.238.389.503.762.757 1.141.515.76 1.083 1.482 1.698 2.163a22.37 22.37 0 0 0 4.23 3.569c.834.553 1.728 1.01 2.665 1.363.92.366 1.89.589 2.877.66a8.597 8.597 0 0 0 2.921-.297 6.936 6.936 0 0 0 2.568-1.331 8.107 8.107 0 0 0 2.072-2.953 15.54 15.54 0 0 0 1-3.585c.59-3.786.379-7.668-.086-11.454a78.408 78.408 0 0 0-.704-4.37c-.124-.724-.292-1.444-.356-2.217a20.868 20.868 0 0 1-.109-2.25c-.008-.664.025-1.329.098-1.99a8.488 8.488 0 0 1 .665-2.6 1.99 1.99 0 0 1 .795-.958 1.78 1.78 0 0 1 .373-.168c.319 0-.173.752-.492 2.418a16.986 16.986 0 0 0-.276 3.84c0 .648.07 1.313.141 1.962.07.65.216 1.309.335 1.98.51 2.755.856 5.537 1.038 8.333a38.423 38.423 0 0 1-.102 6.355 16.68 16.68 0 0 1-1.785 6.251l-.049-.011z"/><path fill="#1C1917" d="M79.643 106.293a5.452 5.452 0 0 1-.784-3.018c-.004-.192.01-.384.043-.573.016-.184.052-.365.108-.541a4.48 4.48 0 0 1 2.575-2.91 3.91 3.91 0 0 1 1.74-.275 2.856 2.856 0 0 1 2.013.909c.157.167 0 .292-.27.351-.314.069-.639.06-.947-.027a3.01 3.01 0 0 0-3.202.541 3.243 3.243 0 0 0-1.043 1.985 4.49 4.49 0 0 0 .313 2.531c.237.488.554.934.936 1.319a8.134 8.134 0 0 0 2.093 1.449c.606.283 1.227.532 1.86.747l.422.151c.508.222.644.368.638.654v.201c-.043.205-.319.259-.703.146a14.225 14.225 0 0 1-3.52-1.493 7.283 7.283 0 0 1-2.277-2.115l.005-.032zm42.902-30.203a16.66 16.66 0 0 0 2.514-7.723c.179-2.704-.335-5.56-1.849-7.75a5.73 5.73 0 0 0-.957-1.081l-.541-.487a3.92 3.92 0 0 0-.584-.449 11.726 11.726 0 0 0-2.596-1.406c-3.245-1.297-7.03-1.033-10.389.065a30.31 30.31 0 0 0-9.415 5.213c-.638.487-1.228 1.033-1.839 1.563a16.886 16.886 0 0 0-1.709 1.699 32.54 32.54 0 0 0-3.044 3.71 24.81 24.81 0 0 0-4.527 11.2c-.151 1.248-.297 1.08-.503 0a6.249 6.249 0 0 1-.113-1.012v-.633a3.877 3.877 0 0 1 .038-.697c.094-1.112.348-2.205.751-3.245a31.15 31.15 0 0 1 7.182-10.74 33.556 33.556 0 0 1 10.692-7.269 22.28 22.28 0 0 1 7.727-1.8c1.362-.058 2.724.08 4.046.41.663.164 1.312.379 1.941.644.319.124.611.303.919.449.309.144.604.316.882.514l.93.632.844.73c.292.244.564.511.811.8a8.8 8.8 0 0 1 .633.98 11.69 11.69 0 0 1 1.568 4.18 16.764 16.764 0 0 1-.784 8.712 19.86 19.86 0 0 1-6.273 8.653 28.058 28.058 0 0 1-6.982 4.115 43.538 43.538 0 0 1-7.706 2.358 34.94 34.94 0 0 1-6.17.644 17.782 17.782 0 0 1-6.177-.86 8.91 8.91 0 0 1-2.498-1.33 6.138 6.138 0 0 1-2.163-3.11 8.09 8.09 0 0 1-.125-.54 3.656 3.656 0 0 1-.038-.455c-.016-.228.01-.457.076-.676.035-.17.084-.336.146-.498.103-.167.243.082.4.65a9.304 9.304 0 0 0 1.082 2.357 7.312 7.312 0 0 0 4.191 2.731c1.765.454 3.587.647 5.408.573a32.944 32.944 0 0 0 5.549-.605 43.12 43.12 0 0 0 5.435-1.482 30.84 30.84 0 0 0 7.484-3.786 23.96 23.96 0 0 0 3.169-2.703 20.24 20.24 0 0 0 2.536-3.272l.028.027zm-48 16.71a7.53 7.53 0 0 0 2.044.541c.702.065 1.41.022 2.099-.13a7.572 7.572 0 0 0 3.677-2.103 11.899 11.899 0 0 0 1.898-2.596c.249-.411.444-.85.66-1.282.194-.424.35-.864.47-1.314.234-.9.287-1.837.157-2.758a9.382 9.382 0 0 0-2.569-4.997 13.238 13.238 0 0 0-4.174-2.953 10.323 10.323 0 0 0-6.279-.849c-.627.173-.67-.065-.173-.503a4.354 4.354 0 0 1 3.082-.773c1.215.134 2.403.453 3.521.946a14.509 14.509 0 0 1 3.115 1.834 13.52 13.52 0 0 1 2.553 2.574 9.923 9.923 0 0 1 1.66 3.245 8.524 8.524 0 0 1 .135 4.456 10.19 10.19 0 0 1-.79 2.093 15.18 15.18 0 0 1-1.081 1.914 11.995 11.995 0 0 1-1.569 1.866 8.924 8.924 0 0 1-1.979 1.46 7.887 7.887 0 0 1-2.325.843 8.027 8.027 0 0 1-2.466.06 9.34 9.34 0 0 1-5.273-2.704 11.456 11.456 0 0 1-2.52-3.683 15.81 15.81 0 0 1-1.05-4.326 16.356 16.356 0 0 1-.064-3.413 9.385 9.385 0 0 1 .903-3.347l.379-.681c.146-.211.313-.417.475-.628.14-.179.298-.344.471-.492.151-.14.287-.276.422-.378.286-.19.54-.33.725-.438.29-.153.625-.199.946-.13.104.008.207.026.308.054.114.048 0 .194-.21.443a2.245 2.245 0 0 1-.471.384c-.2.192-.409.372-.628.541a7.387 7.387 0 0 0-2.195 4.964c-.14 1.98.076 3.97.638 5.873.827 2.764 2.817 5.273 5.489 6.344l-.01.043zm31.349 39.143a11.386 11.386 0 0 0-9.507-.806 9.227 9.227 0 0 0-3.007 1.931 31.048 31.048 0 0 0-4.288 4.997 63.969 63.969 0 0 0-3.586 5.624c-.99 1.714-1.882 3.499-2.704 5.278-1.044 2.298-2.039 4.64-2.91 6.976-.264.725-.502.568-.54-.157a8.16 8.16 0 0 1 .649-3.385 69.542 69.542 0 0 1 3.342-7.09 67.352 67.352 0 0 1 4.083-6.727c.92-1.287 1.833-2.612 2.882-3.861.492-.644 1.082-1.234 1.623-1.845a18.467 18.467 0 0 1 1.882-1.622 11.132 11.132 0 0 1 5.143-1.855 11.921 11.921 0 0 1 2.736 0c.906.1 1.798.3 2.661.595.265.081.541.189.784.292.243.103.514.222.762.346l.379.189.384.233c.238.164.464.345.676.541.793.8 1.467 1.711 2.001 2.704a46.344 46.344 0 0 1 3.656 9.193c.741 2.428 1.417 4.824 1.974 7.274.124.541.248 1.081.356 1.622.384 2.034.384 2.704.141 3.186a1.62 1.62 0 0 1-.168.319c-.216.221-.503-.579-.816-2.039a110.5 110.5 0 0 0-3.64-13.277 40.271 40.271 0 0 0-2.006-4.759 16.703 16.703 0 0 0-1.293-2.163 6.203 6.203 0 0 0-1.622-1.66l-.027-.054zm67.618-4.067a10.608 10.608 0 0 1-1.937 2.19 7.239 7.239 0 0 1-2.639 1.412 8.603 8.603 0 0 1-5.737-.665 13.528 13.528 0 0 1-3.543-2.164 7.975 7.975 0 0 1-.681-.605c-.216-.206-.443-.411-.654-.628-.401-.448-.828-.881-1.19-1.357a24.873 24.873 0 0 1-2.034-2.953 38.553 38.553 0 0 1-2.974-6.446 70.034 70.034 0 0 1-1.866-5.987 74.25 74.25 0 0 1-.935-3.888 34.121 34.121 0 0 1-.622-3.931 2.845 2.845 0 0 1 0-.433c0-.033.038 0 .059-.038h.027l.065-.07c.033-.033.038-.049.033-.033l-.033.033-.027.032h.038a.157.157 0 0 1 .103.06c.104.11.194.231.27.362.265.429.489.882.671 1.352.238.644.419 1.309.541 1.985.54 2.628 1.152 5.229 1.936 7.787a46.8 46.8 0 0 0 2.931 7.452 19.247 19.247 0 0 0 6.219 7.333 11.226 11.226 0 0 0 4.867 1.904 5.814 5.814 0 0 0 2.515-.259 6.01 6.01 0 0 0 2.163-1.315c1.579-1.465 2.59-3.515 3.358-5.586a48.689 48.689 0 0 0 2.272-9.897c.362-2.606.54-5.18.773-7.782.049-.573.092-1.135.162-1.714.249-2.163.541-2.882 1.033-3.218a.725.725 0 0 1 .341-.156c.076 0 .103.059.108.135.011.12.011.242 0 .362-.049.384-.114.957-.2 1.687-.244 2.283-.384 4.684-.633 7.106-.249 2.423-.541 4.868-1.022 7.344a44.698 44.698 0 0 1-1.347 5.435 21.408 21.408 0 0 1-2.379 5.192l-.032-.038zm-29.336-16.386a8.598 8.598 0 0 1-.735-2.78 5.424 5.424 0 0 1 0-1.081 4.654 4.654 0 0 1 .611-1.806c.179-.296.417-.551.698-.752a1.684 1.684 0 0 1 1.043-.298c.585.059 1.138.29 1.59.666.566.386 1.042.89 1.396 1.476.102.184-.114.303-.406.314a1.187 1.187 0 0 1-.892-.325 4.782 4.782 0 0 0-1.309-1.027 1.037 1.037 0 0 0-.541-.114.957.957 0 0 0-.541.298 3.112 3.112 0 0 0-.638 1.984c-.021.412.013.825.103 1.228.076.417.186.828.33 1.227.176.486.428.94.746 1.347a5.652 5.652 0 0 0 1.839 1.476c.565.274 1.151.503 1.752.687.13.049.265.081.395.135.487.184.616.314.611.606.005.065.005.13 0 .195-.038.216-.298.292-.676.2a10.736 10.736 0 0 1-3.369-1.439 5.892 5.892 0 0 1-1.985-2.228l-.022.011zm39.009-2.498a4.386 4.386 0 0 0 .438-2.261l-.07-.406a5.76 5.76 0 0 1-.13-.383 1.722 1.722 0 0 0-.811-.996 1.313 1.313 0 0 0-1.271-.059 2.242 2.242 0 0 0-.892.941c-.292.541-.46 1.109-.784 1.655-.108.162-.265.097-.417-.13a1.083 1.083 0 0 1-.183-.979c.114-.339.262-.665.443-.973.192-.331.426-.635.698-.903a2.458 2.458 0 0 1 1.081-.639 2.068 2.068 0 0 1 1.282.065c.224.081.44.184.643.309.216.133.41.299.574.492.075.092.167.184.232.281l.173.314c.111.203.196.419.254.643a4.988 4.988 0 0 1-.14 2.85c-.114.265-.206.541-.341.795a7.302 7.302 0 0 1-.432.741 8.079 8.079 0 0 1-1.796 1.839c-.276.184-.541.378-.8.573l-.844.497a2.545 2.545 0 0 1-.389.19c-.498.194-.687.189-.871-.033a1.027 1.027 0 0 1-.119-.151c-.108-.184.038-.417.357-.595a12.23 12.23 0 0 0 2.704-1.79 6.013 6.013 0 0 0 1.379-1.893l.032.006zm-16.019-30.485c-26.661-10.697-33.897 11.995-29.976 18.041 7.025 10.832 36.503-2.353 29.976-18.04z"/><path fill="#1C1917" d="M146.206 101.215c-.594.032-1.195-.049-1.795-.076-.303-.032-.6-.086-.898-.129a5.536 5.536 0 0 1-.892-.174l-.887-.227-.86-.319c-.14-.059-.286-.102-.427-.173l-.411-.216a7.35 7.35 0 0 1-.806-.454 8.932 8.932 0 0 1-2.612-2.634 7.992 7.992 0 0 1-.99-3.585 14.92 14.92 0 0 1 .628-5.187 17.92 17.92 0 0 1 4.688-7.75 17.5 17.5 0 0 1 3.662-2.703 19.251 19.251 0 0 1 4.229-1.623 23.676 23.676 0 0 1 7.96-.54 30.519 30.519 0 0 1 9.832 2.493c.946.465.746.54-.179.54a13.34 13.34 0 0 1-1.833-.26 16.711 16.711 0 0 1-2.515-.54 29.574 29.574 0 0 0-9.875-1.082 17.659 17.659 0 0 0-9.193 3.359 15.903 15.903 0 0 0-3.991 4.526c-.52.888-.96 1.82-1.314 2.785-.36.958-.626 1.95-.795 2.959a12.528 12.528 0 0 0-.168 3.325 5.96 5.96 0 0 0 1.011 3.018l.493.654.584.541c.192.193.407.364.638.508.211.174.44.326.681.455l.73.384c.254.113.541.2.774.302.135.05.259.103.394.141l.406.103c.27.065.541.146.811.2 2.77.429 5.6.244 8.29-.54a26.57 26.57 0 0 0 11.103-6.063c2.396-2.228 4.197-5.078 4.732-8.199.062-.34.105-.682.13-1.027 0-.34 0-.687.027-1.033.027-.346-.049-.617-.06-.887a7.075 7.075 0 0 0-.075-.74 23.545 23.545 0 0 1-.179-1.082 3.659 3.659 0 0 1-.097-1.277c.01-.149.032-.297.065-.443.07-.168.238 0 .486.438a14 14 0 0 1 .428.887c.156.346.238.822.362 1.33a12.207 12.207 0 0 1-.06 4.689 14.143 14.143 0 0 1-1.844 4.407 18.389 18.389 0 0 1-3.066 3.71c-.541.568-1.201 1.082-1.817 1.58-.617.497-1.287.962-1.974 1.378a26.501 26.501 0 0 1-13.52 4.3l-.011-.049zm23.522-21.88c3.174-4.868 14.601-4.835 20.518 6.127 2.552 4.732.594 11.227-5.073 12.497-16.072 3.548-15.445-14.525-15.445-18.624z"/><path fill="#1C1917" d="M183.125 97.635c1.725-.216 3.407-.54 4.704-1.558l.487-.383.433-.439c.149-.144.285-.301.405-.47.119-.168.26-.32.368-.498a8.573 8.573 0 0 0 1.017-2.27 8.805 8.805 0 0 0 .162-3.646 9.344 9.344 0 0 0-1.082-3.055 19.762 19.762 0 0 0-1.838-2.807 16.154 16.154 0 0 0-5.046-4.326 12.86 12.86 0 0 0-5.657-1.58c-2.487-.08-5.094.66-6.754 2.472-.508.54-.622.416-.4-.303a4.736 4.736 0 0 1 2.644-2.493c2.661-1.082 5.625-.908 8.242-.043a15.98 15.98 0 0 1 6.782 4.586 23.4 23.4 0 0 1 2.866 4.05c.21.37.401.751.573 1.141.173.395.297.811.433 1.222.224.83.337 1.687.335 2.548.001.47-.028.94-.087 1.406-.076.464-.182.923-.319 1.373a8.607 8.607 0 0 1-1.233 2.537 8.22 8.22 0 0 1-2.006 1.984 8.645 8.645 0 0 1-1.238.676c-.222.092-.433.195-.655.27l-.676.195c-2.196.576-4.489.68-6.727.303a9.778 9.778 0 0 1-4.602-2.26 12.233 12.233 0 0 1-2.915-4.175 25.393 25.393 0 0 1-1.877-7.512 36.496 36.496 0 0 1-.146-1.692c-.097-2.12 0-2.791.27-3.245.052-.105.113-.205.184-.298.217-.2.368.665.449 2.163.105 2.292.411 4.57.914 6.81a15.135 15.135 0 0 0 2.845 6.186 8.57 8.57 0 0 0 4.077 2.752c1.646.46 3.369.576 5.062.341l.006.038zm-17.639 40.024a18.142 18.142 0 0 0-4.937-1.449c-.427-.038-.855-.092-1.282-.119a10.155 10.155 0 0 0-1.282 0c-.427.027-.859.048-1.287.092-.416.058-.83.137-1.238.238a12.854 12.854 0 0 0-3.434 1.454 21.07 21.07 0 0 0-2.753 1.904 31.194 31.194 0 0 0-2.504 2.277 47.336 47.336 0 0 0-4.418 5.202 62.745 62.745 0 0 0-3.364 5.057c-1.362 2.211-2.509 4.521-4.001 6.716-.233.341-.509.482-.541.373a1.72 1.72 0 0 1 .043-.692c.234-1.14.648-2.235 1.228-3.245 2.639-4.618 5.554-9.193 9.29-13.114 2.239-2.331 4.743-4.716 7.831-6.165.85-.395 1.738-.703 2.65-.919.46-.076.93-.179 1.39-.211.46-.033.925-.081 1.39-.081a17.45 17.45 0 0 1 5.462.827 24.921 24.921 0 0 1 6.062 2.947 56.292 56.292 0 0 1 7.814 6.409c1.893 1.779 3.721 3.553 5.636 5.202.427.357.849.698 1.292 1.028 1.622 1.233 2.163 1.373 2.52 1.779.093.078.18.163.26.254.092.135-.071.222-.541.233a4.156 4.156 0 0 1-1.796-.611 19.633 19.633 0 0 1-2.882-2.126 73.638 73.638 0 0 1-2.634-2.412c-1.73-1.622-3.45-3.32-5.251-4.867-2.671-2.331-5.532-4.488-8.734-5.9l.011-.081zm95.592-33.307c-.627 5.408-10.356 36.509-35.151 23.638 3.245-3.786 5.673-9.302 7.144-12.439 9.501 1.028 9.377-6.284 7.668-7.657-1.709-1.374-3.191-.541-4.11 0 .741-6.706-.108-11.681-2.763-13.964-4.797-4.115-15.045 4.046-24.877 2.418-11.146-1.855-13.422-10.373-7.598-18.9 3.71-5.447 24.282-20.394 43.512 2.303.801.903 19.474-3.77 16.175 24.601z"/><path fill="#1C1917" d="M199.49 82.99a11.244 11.244 0 0 0-.433 4.159 8.84 8.84 0 0 0 .455 2.012 8.273 8.273 0 0 0 2.32 3.374c.524.467 1.095.878 1.703 1.228a14.743 14.743 0 0 0 3.975 1.563c1.397.354 2.831.535 4.272.54a23.597 23.597 0 0 0 4.327-.438c2.882-.54 5.7-1.481 8.593-2.309a32.835 32.835 0 0 1 3.245-.778 11.389 11.389 0 0 1 3.439-.157 6.218 6.218 0 0 1 1.741.503c.552.274 1.053.64 1.482 1.081a8.114 8.114 0 0 1 1.839 2.97c.338.905.581 1.844.725 2.8.147.937.235 1.881.265 2.829.037.946 0 1.887-.027 2.823 0 .238-.028.47-.044.703l-.048.633v.362c.094-.06.193-.111.297-.152h.07l.103-.032a3.73 3.73 0 0 1 .957-.151 3.29 3.29 0 0 1 1.277.248c.387.167.75.383 1.081.644.175.162.331.343.465.541.117.182.214.376.292.578.148.385.248.786.298 1.196a5.822 5.822 0 0 1-.271 2.384 5.39 5.39 0 0 1-.541 1.082 5.233 5.233 0 0 1-.751.946 8.175 8.175 0 0 1-.93.752c-.352.179-.693.395-1.055.541a8.337 8.337 0 0 1-1.114.357l-1.13.205c-.379.044-.757.044-1.136.065a6.461 6.461 0 0 1-1.13 0l-.541-.032c-.059 0-.151-.043-.2 0l-.341.719-.957 1.985a73.26 73.26 0 0 1-2.023 3.904 43.427 43.427 0 0 1-2.352 3.743c-.211.302-.438.594-.665.886l-.152.206-.081.097-.162.19-.038.048.06.027.113.06.227.108.952.454c.378.185.766.347 1.163.487l1.173.449c.795.27 1.623.487 2.418.708l1.233.233.616.119.622.059 1.249.114h1.877l.617-.071c.416-.054.832-.081 1.238-.151.818-.15 1.624-.358 2.412-.622a8.92 8.92 0 0 0 1.163-.432c.378-.174.762-.325 1.135-.509l1.082-.6c.368-.189.697-.449 1.044-.671 3.531-2.401 6.262-5.856 8.414-9.561a49.238 49.238 0 0 0 4.9-11.897c.33-1.293.449-1.839.568-1.79.119.048.184.724.054 1.887a32.566 32.566 0 0 1-3.645 11.038c-2.12 3.964-4.867 7.728-8.496 10.545a19.687 19.687 0 0 1-6.1 3.212 18.396 18.396 0 0 1-6.83.757c-.568-.064-1.152-.081-1.715-.189l-1.692-.33a26.912 26.912 0 0 1-3.272-1.038c-.541-.216-1.082-.384-1.579-.644l-1.963-.935-.714-.341-.092-.043.038-.07.129-.157.249-.303.509-.617.254-.313.124-.162c.335-.428.655-.871.968-1.315a50.204 50.204 0 0 0 3.326-5.689c.503-.989.984-1.984 1.466-2.99l.362-.768.287-.611.146-.309c0-.07.081-.048.14-.048h.189l1.114.07c.266.026.534.039.801.038a8.423 8.423 0 0 0 3.731-.773 4.267 4.267 0 0 0 2.282-2.748 4.305 4.305 0 0 0 .092-1.838 3.315 3.315 0 0 0-.254-.855 2.356 2.356 0 0 0-.211-.341 1.439 1.439 0 0 0-.275-.265 2.51 2.51 0 0 0-1.623-.54 3.79 3.79 0 0 0-.422.059l-.211.06-.362.14c-.541.265-1.136.638-1.671.952a2 2 0 0 1 0-.379l.043-.421.081-.844c.027-.27.06-.579.076-.822l.033-.498c.054-.659.075-1.319.081-1.979a24.38 24.38 0 0 0-.238-3.931 12.876 12.876 0 0 0-1.082-3.689 7.562 7.562 0 0 0-1.038-1.535 4.685 4.685 0 0 0-1.428-1.082c-1.222-.54-2.704-.508-4.137-.276a35.813 35.813 0 0 0-4.326 1.055 66.977 66.977 0 0 1-8.767 2.244c-1.521.244-3.063.33-4.602.254a20.191 20.191 0 0 1-4.537-.854 14.604 14.604 0 0 1-4.175-2.012 9.884 9.884 0 0 1-3.088-3.52 9.988 9.988 0 0 1-.957-5.641 15.47 15.47 0 0 1 1.72-5.408c.436-.837.924-1.646 1.46-2.423a14.838 14.838 0 0 1 1.893-2.13 28.947 28.947 0 0 1 20.69-7.76c2.841.205 5.628.881 8.247 2a30.754 30.754 0 0 1 7.215 4.375c.568.416 1.081.898 1.622 1.357l.79.693.741.735c.486.492 1.005.957 1.449 1.482l1.352 1.493c.065.086.146.091.276.108.129.016.34 0 .54.027h1.082c.735 0 1.476.06 2.217.146a15.3 15.3 0 0 1 4.327 1.081 11.907 11.907 0 0 1 3.726 2.493 13.195 13.195 0 0 1 2.59 3.662 20.26 20.26 0 0 1 1.714 5.494c.248 1.486.386 2.988.411 4.494 0 1.238 0 2.239-.075 3.06a14.734 14.734 0 0 1-.541 3.311c-.103.335-.222.778-.314.973-.157.319-.2-.238-.162-1.509.038-1.271.119-3.245 0-5.808a28.48 28.48 0 0 0-.952-6.517 14.604 14.604 0 0 0-2.969-5.764 11.122 11.122 0 0 0-5.462-3.375 16.926 16.926 0 0 0-3.282-.54 34.098 34.098 0 0 0-1.709-.071h-1.141c-.092 0-.152 0-.309-.038-.14-.02-.276-.06-.405-.119a.626.626 0 0 1-.179-.113 1.014 1.014 0 0 1-.162-.136l-1.703-1.898-1.742-1.736c-.6-.54-1.227-1.081-1.838-1.622-.612-.541-1.288-1.017-1.942-1.504a27.954 27.954 0 0 0-8.777-4.283c-2.816-.768-5.751-1-8.653-.686-.73.054-1.444.2-2.163.313-.719.114-1.428.303-2.131.541-1.412.397-2.788.91-4.115 1.536a28 28 0 0 0-7.301 4.867 16.272 16.272 0 0 0-1.482 1.568 14.969 14.969 0 0 0-1.206 1.78 16.92 16.92 0 0 0-1.746 3.947l-.049-.054z"/><path fill="#1C1917" d="M216.963 132.743a9.61 9.61 0 0 1-5.408-1.741 9.81 9.81 0 0 1-3.423-4.467 16.539 16.539 0 0 1-1.028-3.905 32.012 32.012 0 0 1-.059-6.981 69.28 69.28 0 0 1 1-6.847c.384-2.001.806-4.007 1.239-5.981l.827-3.785.411-1.888c.137-.604.237-1.216.297-1.833 0-.373.044-.384.152-.46a.205.205 0 0 1 .222.043c.114.11.201.246.254.395a6.797 6.797 0 0 1 0 3.559c-1.168 5.186-2.482 10.275-3.18 15.504a28.6 28.6 0 0 0 .216 9.551 11.286 11.286 0 0 0 2.082 4.661 8.114 8.114 0 0 0 4.208 2.731 7.968 7.968 0 0 0 6.111-.692 15.003 15.003 0 0 0 3.85-2.996 28.655 28.655 0 0 0 3.072-3.872 51.52 51.52 0 0 0 3.645-6.668c.232-.508.465-1.006.697-1.52.882-1.892 1.255-2.493 1.763-2.741a.84.84 0 0 1 .341-.13c.07 0 .097.054.103.14a.51.51 0 0 1 0 .146 1.832 1.832 0 0 1-.054.233 14.57 14.57 0 0 1-.595 1.622c-1.758 4.208-3.932 8.653-7.122 12.439a18.919 18.919 0 0 1-4.137 3.785c-.402.261-.819.498-1.25.709-.434.211-.882.391-1.341.54a8.95 8.95 0 0 1-2.888.476l-.005-.027zm14.724 6.522a11.045 11.045 0 0 0-4.396-2.498 6.45 6.45 0 0 0-1.212-.173 4.611 4.611 0 0 0-.622 0l-.622.048a8.523 8.523 0 0 0-2.428.687 14.656 14.656 0 0 0-3.196 2.044 29.424 29.424 0 0 0-4.699 4.997 54.954 54.954 0 0 0-3.84 5.803 66.213 66.213 0 0 0-2.855 5.5c-1.115 2.396-2.093 4.867-3.132 7.279-.319.752-.54.541-.54-.178.061-1.199.33-2.377.794-3.483a88.324 88.324 0 0 1 3.418-7.436 52.97 52.97 0 0 1 4.327-7.003c1.957-2.645 4.11-5.408 6.965-7.393a11.155 11.155 0 0 1 5.338-2.071 8.146 8.146 0 0 1 1.465 0c.246.019.49.057.73.113a3.8 3.8 0 0 1 .714.168c.467.132.921.303 1.358.514l.649.313c.205.119.405.249.611.374a19.344 19.344 0 0 1 5.002 4.748 40.4 40.4 0 0 1 5.046 9.015 78.162 78.162 0 0 1 2.704 7.409c.173.54.34 1.081.513 1.654.541 2.093.568 2.791.352 3.315a1.848 1.848 0 0 1-.157.341c-.2.254-.617-.541-1.082-2.044-.302-1.119-.67-2.233-1.027-3.358-.357-1.125-.752-2.255-1.141-3.391-.184-.568-.411-1.125-.633-1.687-.222-.563-.443-1.12-.66-1.682l-.746-1.655-.373-.833-.417-.806c-1.622-3.19-3.596-6.273-6.246-8.588l.038-.043zM171.872 16.224a23.124 23.124 0 0 0-3.737-5.192l-1.119-1.163-1.212-1.081-.605-.54-.649-.477c-.433-.319-.86-.643-1.304-.952a26.959 26.959 0 0 0-2.795-1.59c-.487-.227-.952-.502-1.461-.686l-1.503-.541a5.502 5.502 0 0 0-.762-.249l-.779-.21a10.966 10.966 0 0 0-1.563-.374l-1.585-.276-1.622-.119a23.258 23.258 0 0 0-9.194 1.406 27.845 27.845 0 0 0-7.262 3.98 20.945 20.945 0 0 0-5.473 6.144 26.804 26.804 0 0 0 2.06 29.652 27.24 27.24 0 0 0 6.998 6.305 39.481 39.481 0 0 0 8.561 4.04c1.866.654 1.584.757-.119.54a13.338 13.338 0 0 1-1.52-.264 35.487 35.487 0 0 1-1.941-.54c-.709-.223-1.455-.542-2.255-.834-.801-.292-1.585-.773-2.407-1.244a29.818 29.818 0 0 1-7.658-6.49 27.74 27.74 0 0 1-4.899-8.75 28.321 28.321 0 0 1 .649-19.77 23.476 23.476 0 0 1 7.371-9.675 27.701 27.701 0 0 1 11.135-5.187 23.663 23.663 0 0 1 6.765-.378l.849.06c.276.037.541.097.833.14.541.103 1.119.184 1.676.303 1.103.262 2.187.597 3.245 1a28.03 28.03 0 0 1 10.989 7.669 26.655 26.655 0 0 1 6.392 15.072 25.987 25.987 0 0 1-1.963 12.308 34.242 34.242 0 0 1-6.906 10.33 51.98 51.98 0 0 1-7.203 6.278 1.448 1.448 0 0 0-.362.324 1.835 1.835 0 0 0-.249.417c-.15.333-.262.68-.335 1.038a15.515 15.515 0 0 0-.309 2.271c-.119 1.547-.108 3.11-.178 4.71 0 .352-.043.71-.097 1.082 0 .098-.033.179-.065.32a1.416 1.416 0 0 1-.168.378.743.743 0 0 1-.303.276 1.832 1.832 0 0 1-.346.19c-.431.16-.902.173-1.341.037a3.787 3.787 0 0 1-1.082-.54 10.664 10.664 0 0 1-2.293-2.564 18.954 18.954 0 0 1-1.152-1.969 8.386 8.386 0 0 1-.849-2.341 4.255 4.255 0 0 1-.097-.763c.038-.26.243.06.725.865.481.806 1.168 2.077 2.249 3.591.39.555.82 1.079 1.287 1.569.41.458.918.817 1.488 1.049a.966.966 0 0 0 .643 0 .202.202 0 0 0 .081-.033.108.108 0 0 0 .038-.032v-.233c.075-.686.113-1.375.114-2.065.038-1.439.054-2.91.211-4.408.07-.777.219-1.545.443-2.293.126-.43.324-.836.584-1.2.08-.105.167-.204.26-.298.097-.087.238-.206.292-.243l.432-.325c4.667-3.418 8.951-7.609 11.828-12.681a25.923 25.923 0 0 0 3.515-12.303 25.37 25.37 0 0 0-3.04-12.439l.049-.032zM35.136 27.732a16.852 16.852 0 0 0-9.956-1.677 23.85 23.85 0 0 0-9.686 3.526 25.96 25.96 0 0 0-5.738 4.965 31.605 31.605 0 0 0-3.861 5.51 35.934 35.934 0 0 0-2.731 6.177 28.316 28.316 0 0 0-1.32 13.314 18.387 18.387 0 0 0 5.333 10.416 14.092 14.092 0 0 0 3.012 2.255 16.372 16.372 0 0 0 3.493 1.416c2.44.698 5.013.958 7.571 1.39 1.585.352 1.347.465-.043.584a23.33 23.33 0 0 1-2.86.038 20.919 20.919 0 0 1-4.078-.54 16.527 16.527 0 0 1-7.35-3.705 19.79 19.79 0 0 1-2.752-3.077 19.59 19.59 0 0 1-2.023-3.591A21.93 21.93 0 0 1 .422 56.74c-.07-2.722.237-5.442.914-8.08a38.706 38.706 0 0 1 3.59-9.133 30.6 30.6 0 0 1 6.063-7.885 25.962 25.962 0 0 1 4.38-3.283 26.503 26.503 0 0 1 4.949-2.33 21.226 21.226 0 0 1 10.816-.887 16.067 16.067 0 0 1 10.789 7.57 22.95 22.95 0 0 1 2.12 4.63 30.17 30.17 0 0 1 1.081 4.953l.168 1.255.092 1.26c0 .422.075.838.08 1.26v1.271c.008.42-.006.841-.042 1.26 0 .422-.033.844-.082 1.26-.108.833-.173 1.671-.34 2.493a37.363 37.363 0 0 1-5.63 14.304c-.63.937-1.308 1.84-2.033 2.704a21.453 21.453 0 0 1-3.207 3.196 6.208 6.208 0 0 1-.995.682c-.24.136-.492.25-.752.34a4.52 4.52 0 0 1-.595.2c-.227 0-.032-.264.508-.794.541-.53 1.401-1.325 2.456-2.402a31.574 31.574 0 0 0 4.245-5.343 37.079 37.079 0 0 0 3.093-6.18 32.95 32.95 0 0 0 2.282-13.748c-.065-.876-.113-1.752-.254-2.617-.065-.433-.113-.871-.19-1.298l-.264-1.287c-.082-.428-.189-.85-.32-1.266-.123-.416-.226-.843-.361-1.254-.28-.82-.605-1.623-.974-2.407a16.947 16.947 0 0 0-2.823-4.326 14.957 14.957 0 0 0-4.029-3.12l-.021-.006z"/><path fill="#1C1917" d="M29.635 80.551c.921.542 1.892.995 2.898 1.352.395.125.341.098.439.13h.064c.146.092.076-.065.076-.146v-.178l-.135-.541-.54-2.066c-.152-.617-.33-1.222-.504-1.833a9.67 9.67 0 0 1-.416-2.412c0-.265.21-.244.443-.06.302.243.522.57.633.941l.346 1.152.287 1.184c.189.79.373 1.59.54 2.401.044.222.098.45.157.677l.26.913c.108.368.205.79.032.898l-.043.054-.027.027.065.065h-.081l-.19.027-.378.049-.346-.087a8.277 8.277 0 0 1-.665-.189c-.222-.07-.276-.081-.411-.135-.265-.103-.541-.19-.8-.303a16.162 16.162 0 0 1-1.547-.72 17.767 17.767 0 0 1-4.245-3.093 15.777 15.777 0 0 1-1.65-1.8c-.103-.146-.216-.287-.319-.444-.357-.573-.373-.816-.206-1.049.038-.057.08-.111.125-.162.162-.14.438 0 .698.39a18.39 18.39 0 0 0 2.822 3.07c.81.697 1.687 1.31 2.618 1.834v.054zm.431 40.316c.39-.411.498-.475.633-.47.41.029.822.009 1.228-.06a4.352 4.352 0 0 0 1.081-.232c.285-.112.551-.267.79-.46.233-.186.433-.411.59-.665a1.895 1.895 0 0 0 .335-.968v-.081a.706.706 0 0 1 .54.054c.044 0 .114.049.109.065 0 .151.286.368.232.541-.067.161-.12.327-.157.497a3.62 3.62 0 0 1-.189.492 1.424 1.424 0 0 1-.254.341 3.117 3.117 0 0 1-.427.335c-.049.038-.136.114-.265.2a3.815 3.815 0 0 1-.482.309c-.437.247-.912.42-1.406.513a4.183 4.183 0 0 1-1.433.049 3.083 3.083 0 0 1-.687-.189 1.127 1.127 0 0 1-.238-.271z"/><path fill="#1C1917" d="M33.098 120.619c-.73.665.465 2.163 1.32 1.568.854-.595-.288-2.499-1.32-1.568z"/><path fill="#1C1917" d="M35.212 121.446a1.4 1.4 0 0 1-.168.687 1.22 1.22 0 0 1-.54.481 1.02 1.02 0 0 1-.238.092.636.636 0 0 1-.26.033 1.258 1.258 0 0 1-.752-.292 1.743 1.743 0 0 1-.443-.541 2.04 2.04 0 0 1-.2-.595.764.764 0 0 1 .292-.784c.081-.049.157.075.227.216l.103.195c.038.059.076.097.065.119.048.262.156.509.313.724a.409.409 0 0 0 .428.179.38.38 0 0 0 .34-.303.724.724 0 0 0 0-.411.851.851 0 0 0-.395-.541.373.373 0 0 0-.389.038s-.038.049-.065.06c-.027.01-.14.048-.319-.114l-.124-.103a.289.289 0 0 1-.121-.205.296.296 0 0 1 .072-.227 1.032 1.032 0 0 1 .882-.336c.324.045.624.2.849.438.298.325.472.744.492 1.185l-.049.005zm8.112-3.093c-.936.319-.438 2.163.59 1.963 1.027-.2.702-2.412-.59-1.963z"/><path fill="#1C1917" d="M44.948 119.959c-.093.214-.24.4-.427.541a1.18 1.18 0 0 1-.687.232.982.982 0 0 1-.254 0 .656.656 0 0 1-.249-.07 1.268 1.268 0 0 1-.579-.573 1.625 1.625 0 0 1-.183-.682c-.017-.21 0-.422.054-.627a.745.745 0 0 1 .573-.6c.097 0 .114.129.124.286.011.157 0 .157 0 .222v.13a1.81 1.81 0 0 0 0 .789.415.415 0 0 0 .319.336.393.393 0 0 0 .438-.146.76.76 0 0 0 .136-.384.897.897 0 0 0-.157-.638.36.36 0 0 0-.373-.114.276.276 0 0 1-.081 0c-.098 0-.146 0-.25-.233l-.07-.14a.293.293 0 0 1 .125-.422 1.027 1.027 0 0 1 .936.043c.282.17.498.431.61.741a1.86 1.86 0 0 1 0 1.282l-.005.027z"/><path fill="#1C1917" d="M40.717 117.769c.47-.157.595-.173.681-.125.309.142.645.214.984.211.316.016.631-.006.941-.065.271-.064.533-.162.78-.292.242-.124.466-.282.664-.47.118-.099.222-.214.309-.341.056-.124.12-.245.189-.362a.167.167 0 0 1 .076-.049c.154-.018.31.02.438.108 0 0 .08.054.075.071a1.22 1.22 0 0 0 .098.27c.048.103.108.216.048.287a5.388 5.388 0 0 1-.54.816 1.094 1.094 0 0 1-.298.244 3.561 3.561 0 0 1-.443.189 6.126 6.126 0 0 1-.736.319 4.376 4.376 0 0 1-1.341.238 2.704 2.704 0 0 1-1.33-.292 1.708 1.708 0 0 1-.541-.444 1.2 1.2 0 0 1-.054-.313zm-8.002-2.91a4.786 4.786 0 0 0-1.288-.048c-.156 0-.302.081-.46.097a3.943 3.943 0 0 0-1.562.66 2.872 2.872 0 0 0-.54.54c-.223.255-.369.541-.617.801-.082.076-.206 0-.298-.152a.706.706 0 0 1-.07-.605 3.274 3.274 0 0 1 1.622-1.671c.227-.092.428-.222.66-.309l.335-.146a5.231 5.231 0 0 1 1.909-.227c.316.021.63.059.941.114.465.076.92.222 1.368.335.347.097.709.152 1.055.254.08.011.158.031.233.06.275.119.319.243.254.514a1.812 1.812 0 0 1-.054.183.452.452 0 0 1-.45.309 10.51 10.51 0 0 1-1.757-.422 8.336 8.336 0 0 0-1.298-.281l.017-.006z"/><path fill="#1C1917" d="M38.998 119.829a6.17 6.17 0 0 1 .222-3.212c.115-.375.267-.737.454-1.082a7.092 7.092 0 0 1 2.898-2.763 6.386 6.386 0 0 1 1.688-.617 4.592 4.592 0 0 1 1.163-.113c.395.019.781.132 1.124.33.217.113.098.292-.146.448a2.05 2.05 0 0 1-.438.217.937.937 0 0 1-.503.113 5.412 5.412 0 0 0-3.574 1.212 5.406 5.406 0 0 0-1.623 6.322 6.811 6.811 0 0 0 1.46 2.201c.491.47 1.049.866 1.655 1.173.125.076.27.119.4.189.476.276.617.379.628.671a1.17 1.17 0 0 1 0 .189c0 .2-.298.254-.746.141a7.027 7.027 0 0 1-3.353-2.472 7.245 7.245 0 0 1-1.31-2.941v-.006zm1.043 11.324c.86.774 1.964 1.525 3.164 1.114.925-.319 1.406-1.206 1.725-2.071.227-.627-.946-.606-1.125-.124-.178.481-.4 1.217-.876 1.422-.654.281-1.557-.633-1.979-1.011-.422-.379-1.406.221-.909.67zm60.31-26.342c-.051.108-.115.21-.19.303a1.526 1.526 0 0 1-.227.254c-.16.153-.342.281-.54.379a1.898 1.898 0 0 1-1.315.178 2.563 2.563 0 0 1-.816-.297 7.246 7.246 0 0 1-1.888-1.877c-.227-.308-.476-.595-.692-.897-.14-.195-.287-.39-.416-.59a3.598 3.598 0 0 1-.303-.654c-.049-.146.113-.222.34-.222.266-.001.523.093.725.265.633.703 1.12 1.482 1.666 2.223.325.42.748.755 1.233.973a1.048 1.048 0 0 0 1.32-.205 1.139 1.139 0 0 0 .318-.849 6.04 6.04 0 0 0-.33-1.704c-.135-.449-.335-.881-.448-1.379 0-.108-.054-.216-.07-.33-.033-.443.08-.6.35-.638.064-.005.127-.005.19 0a.465.465 0 0 1 .406.395c.162.676.47 1.438.708 2.331.098.353.161.715.189 1.081.05.442-.021.888-.205 1.293l-.005-.033zm10.276-3.136a2.273 2.273 0 0 1-.341 1.152 1.146 1.146 0 0 1-.638.448 1.464 1.464 0 0 1-.665 0 1.9 1.9 0 0 1-.806-.362 7.188 7.188 0 0 1-1.525-2.022c-.178-.314-.367-.617-.541-.92a5.767 5.767 0 0 1-.654-1.179c-.043-.13.157-.232.4-.243a.768.768 0 0 1 .682.313c.465.796.865 1.596 1.292 2.375.247.44.6.812 1.028 1.081a.828.828 0 0 0 .589.119c.125 0 .244-.184.298-.459.059-.358.074-.721.043-1.082a20.795 20.795 0 0 0-.2-1.72c-.071-.449-.19-.881-.238-1.352a2.841 2.841 0 0 1-.027-.319c0-.41.13-.54.373-.573a.797.797 0 0 1 .162 0 .411.411 0 0 1 .292.41c.081.677.254 1.483.368 2.316a10.9 10.9 0 0 1 .146 1.968l-.038.049zm-1.326 8.777c.049 0 .049 0 .065-.054a1.09 1.09 0 0 0-.076-.357c-.13-.341-.278-.675-.443-1.001-.124-.238-.276-.465-.416-.703a33.789 33.789 0 0 0-1.596-2.471c-.249-.357-.541-.703-.806-1.039a6.962 6.962 0 0 1-1-1.362c-.081-.163.087-.249.33-.249a1.08 1.08 0 0 1 .779.33 19.32 19.32 0 0 1 2.017 2.812c.357.606.8 1.179 1.168 1.806.195.341.384.709.541 1.082.081.178.162.368.232.573.093.233.126.486.098.735a.989.989 0 0 1-.649.741 3.253 3.253 0 0 1-.763.195 6.881 6.881 0 0 1-2.255 0 5.486 5.486 0 0 1-1.682-.514 2.417 2.417 0 0 1-.346-.189c-.411-.276-.476-.443-.389-.676a.676.676 0 0 1 .059-.157c.097-.162.325-.135.59 0a5.752 5.752 0 0 0 2.601.757c.35.012.701-.006 1.049-.054a2.58 2.58 0 0 0 .876-.216l.016.011zm-5.369 6.197c.541.714 1.839.925 2.666.865a2.827 2.827 0 0 0 2.672-2.439c.097-.481-1.082-.297-1.179.13-.173.903-.595 1.688-1.622 1.623a2.165 2.165 0 0 1-1.466-.628c-.259-.34-1.395.071-1.081.476l.01-.027zM93.428 94.882a7.56 7.56 0 0 1 1.622-.508c.208-.05.42-.086.633-.108.18-.02.36-.02.54 0 .182.01.362.03.541.06.372.065.734.172 1.082.318.146.065.308.108.454.179l.433.21c.393.144.732.405.973.747.076.108-.124.287-.378.427s-.541.254-.72.157c-.275-.2-.567-.324-.843-.514a9.354 9.354 0 0 0-.909-.4 1.32 1.32 0 0 0-.616-.092c-.214.002-.427.02-.638.054a6.022 6.022 0 0 0-2.245.746 6.157 6.157 0 0 0-1.157.806 5.067 5.067 0 0 0-.676.85c-.043.064-.07.135-.119.2-.173.227-.254.237-.54.118l-.2-.075a.416.416 0 0 1-.206-.579 4.558 4.558 0 0 1 1.444-1.73 8.466 8.466 0 0 1 1.47-.893l.055.027zm15.331-1.444a1.947 1.947 0 0 0-.454.076l-.238.065-.233.097a3.36 3.36 0 0 0-.324.19 5.914 5.914 0 0 0-1.163.751c-.16.133-.301.285-.422.455a1.956 1.956 0 0 1-.47.578c-.065.038-.276 0-.455-.184a.835.835 0 0 1-.21-.313.416.416 0 0 1 0-.32c.13-.295.313-.564.54-.794.114-.109.228-.217.352-.314.124-.097.27-.173.411-.254.335-.173.616-.449.952-.644.194-.097.389-.189.584-.27.207-.075.418-.136.632-.184l.401-.07h.411c.414.01.823.096 1.206.254.15.048.298.104.443.168.152.05.298.118.433.205.056.038.11.08.162.124.189.184.189.298 0 .541l-.114.146a.535.535 0 0 1-.503.179c-.492-.12-.784-.282-1.124-.384-.136 0-.26-.049-.395-.054a1.884 1.884 0 0 0-.422 0v-.044zm52.405 17.057c.178.054.37.045.541-.027.092-.065.19-.108.281-.179l.276-.259a1.86 1.86 0 0 0 .227-.438 5.05 5.05 0 0 0 .13-2.163 9.96 9.96 0 0 0-.2-1.044 4.475 4.475 0 0 1-.205-1.379c0-.151.205-.146.416-.054a.869.869 0 0 1 .498.514c.285.908.447 1.85.481 2.801a4.662 4.662 0 0 1-.292 1.925 2.298 2.298 0 0 1-.325.487c-.129.13-.254.259-.389.384a4.776 4.776 0 0 1-.492.303 1.904 1.904 0 0 1-1.303.07 2.974 2.974 0 0 1-.601-.297 6.963 6.963 0 0 1-1.357-1.271 89.648 89.648 0 0 1-.936-1.012 2.607 2.607 0 0 1-.2-.221c-.232-.292-.243-.417-.07-.644.038-.049.076-.103.119-.151.14-.152.373-.13.584.054.611.541 1.081 1.2 1.622 1.752a2.65 2.65 0 0 0 1.19.827l.005.022zm11.704.352a1.925 1.925 0 0 1-.601.265 1.432 1.432 0 0 1-.724 0 1.93 1.93 0 0 1-.952-.709 3.77 3.77 0 0 1-.406-.611 8.142 8.142 0 0 1-.573-2.266c-.054-.33-.119-.654-.189-.973a4.783 4.783 0 0 1-.2-1.228c0-.27.86-.119.989.362.199.813.352 1.637.46 2.466.074.476.239.934.487 1.347.113.203.259.385.432.541a.51.51 0 0 0 .455.13c.266-.098.497-.276.659-.509.316-.4.565-.85.736-1.33.118-.378.193-.768.222-1.163v-.254c.032-.303.097-.373.367-.438l.184-.043c.206-.049.39.119.417.411a4.869 4.869 0 0 1-.541 2.412 4.158 4.158 0 0 1-1.244 1.622l.022-.032z"/><path fill="#1C1917" d="M166.129 107.283a8.663 8.663 0 0 1 .925-3.283l.303-.541c.114-.178.243-.346.373-.513a7.158 7.158 0 0 1 3.651-2.31 10.233 10.233 0 0 1 1.876-.357 3.53 3.53 0 0 1 2.434.433c.227.162.086.287-.184.4-.135.06-.281.098-.465.173a1.837 1.837 0 0 1-.541.076 8.373 8.373 0 0 0-4.218.735 5.01 5.01 0 0 0-1.996 1.785 6.885 6.885 0 0 0-1.081 2.812 8.659 8.659 0 0 0-.108 1.909c.036.965.274 1.912.697 2.78a6.243 6.243 0 0 0 1.336 1.72c.124.102.249.2.362.308.454.384.573.541.514.838-.007.068-.02.135-.038.2-.065.206-.384.195-.8-.07a6.724 6.724 0 0 1-2.704-3.634 9.124 9.124 0 0 1-.363-3.445l.027-.016zm-6.364-6.052a3.278 3.278 0 0 0-.73-.103 3.936 3.936 0 0 0-.752 0 4.753 4.753 0 0 0-.541.109 6.233 6.233 0 0 0-1.898.654 3.613 3.613 0 0 0-.725.541 3.001 3.001 0 0 0-.389.4c-.135.135-.243.27-.384.389-.141.119-.276-.032-.395-.238a.69.69 0 0 1 0-.741c.142-.184.301-.354.476-.508.166-.161.347-.306.541-.432.187-.128.387-.236.595-.325.204-.096.416-.176.632-.238a14.52 14.52 0 0 1 1.553-.481c.293-.051.589-.085.886-.103.303 0 .606 0 .904.038l.54.092c.179.038.352.108.541.157a5.461 5.461 0 0 1 1.471.773c.18.11.352.233.514.368.177.121.345.255.503.4.065.07.135.13.195.2.227.27.243.4.059.606-.043.048-.081.097-.124.14a.43.43 0 0 1-.541 0 5.431 5.431 0 0 1-.384-.324c-.125-.114-.265-.195-.389-.298a7.983 7.983 0 0 0-.79-.54c-.216-.092-.416-.217-.644-.298a3.666 3.666 0 0 0-.692-.195l-.032-.043zm8.775 18.252a.72.72 0 0 1-.507.683.737.737 0 0 1-.299.031c-.475 0-.654-.179-.654-.6 0-.422.13-.785.627-.785.498 0 .833.249.833.671zm47.449-11.811a2.73 2.73 0 0 1-.876.573 1.619 1.619 0 0 1-.292.081c-.108 0-.216 0-.324.027a1.33 1.33 0 0 1-.325-.059.868.868 0 0 1-.292-.124 1.983 1.983 0 0 1-.622-.541 1.421 1.421 0 0 1-.238-.741 3.583 3.583 0 0 1 .027-.595c.044-.368.119-.714.184-1.055.06-.295.096-.596.108-.897.007-.365.056-.728.146-1.082.033-.113.2-.13.401-.043.2.086.486.297.503.541.013.216.013.433 0 .649a7.55 7.55 0 0 1-.103.605c-.076.401-.179.779-.281 1.147a1.702 1.702 0 0 0-.06.541.636.636 0 0 0 .076.33c.038.037.075.076.108.118a.532.532 0 0 0 .378.222.882.882 0 0 0 .509-.189c.238-.184.451-.398.633-.638.299-.382.549-.8.746-1.244.136-.351.241-.712.314-1.082.011-.082.027-.163.048-.243.07-.297.184-.357.454-.351h.179a.402.402 0 0 1 .324.454 5.348 5.348 0 0 1-.67 2.163 6.276 6.276 0 0 1-1.055 1.46v-.027zm8.913 2.628a2.638 2.638 0 0 1-1.082.384 1.745 1.745 0 0 1-1.238-.362 1.63 1.63 0 0 1-.325-.373l-.124-.2c0-.071-.043-.141-.065-.206a3.233 3.233 0 0 1-.032-1.325c.067-.393.159-.781.275-1.162.092-.33.173-.666.255-.99.041-.436.2-.853.459-1.206.092-.114.26-.043.427.13.097.098.183.207.255.324.04.061.072.126.097.195.01.061.01.123 0 .184-.233.827-.541 1.622-.768 2.395a1.9 1.9 0 0 0 .043 1.288.461.461 0 0 0 .363.302.915.915 0 0 0 .622-.059c.297-.129.569-.313.8-.541a5.733 5.733 0 0 0 1-1.217 5.86 5.86 0 0 0 .492-1.125l.082-.254c.124-.308.216-.378.497-.346.063-.005.126-.005.189 0 .206.043.314.238.271.509a5.771 5.771 0 0 1-1.044 2.249 5.57 5.57 0 0 1-1.428 1.395l-.021.011z"/><path fill="#1C1917" d="M218.59 106.736a13.668 13.668 0 0 0 1.276-3.493c.084-.439.136-.884.157-1.33a5.16 5.16 0 0 0 0-1.125 3.454 3.454 0 0 0-.114-.503c-.076-.152-.14-.325-.232-.47a3.247 3.247 0 0 0-1.715-1.315 5.643 5.643 0 0 0-2.066-.297c-.907.066-1.81.183-2.704.351-.281.033-.34-.26-.173-.605a1.63 1.63 0 0 1 1.169-.839 9.119 9.119 0 0 1 3.136 0 4.912 4.912 0 0 1 2.888 1.59c.215.27.397.563.541.876.162.314.273.652.33 1.001.104.64.116 1.292.037 1.936a14.2 14.2 0 0 1-1.119 3.915c-.343.75-.74 1.473-1.19 2.163a13.157 13.157 0 0 1-2.482 2.834 10.228 10.228 0 0 1-2.455 1.623c-.2.086-.4.167-.611.238-.795.227-1.082.156-1.277-.119a1.538 1.538 0 0 1-.135-.195c-.092-.233.19-.454.682-.622a9.898 9.898 0 0 0 3.937-2.601 13.006 13.006 0 0 0 2.098-3.04l.022.027zm12.056-6.889a4.594 4.594 0 0 0-1.423-.303h-.54a8.651 8.651 0 0 0-1.996.216 4.094 4.094 0 0 0-.827.319 5.985 5.985 0 0 0-.466.282c-.14.097-.27.21-.308.173a.426.426 0 0 1-.459-.103.59.59 0 0 1-.092-.46.716.716 0 0 1 .081-.232.503.503 0 0 1 .14-.173c.367-.285.783-.5 1.228-.633a5.431 5.431 0 0 1 1.282-.254c.513-.038 1.033-.173 1.563-.195a6.684 6.684 0 0 1 1.757.168c.363.085.715.212 1.049.378a3.51 3.51 0 0 1 1.266 1.158 3.923 3.923 0 0 1 .67 1.465c.044.357-.043.476-.33.541l-.194.049a.483.483 0 0 1-.503-.298 5.212 5.212 0 0 0-.828-1.46 2.7 2.7 0 0 0-1.081-.644l.011.006zm-17.687 18.787c.497 1.493 1.563 2.666 3.245 2.288a4.565 4.565 0 0 0 3.023-2.515c.27-.622-.909-.638-1.131-.146a3.314 3.314 0 0 1-1.768 1.73c-1.211.449-1.871-.67-2.201-1.676-.184-.541-1.357-.227-1.179.319h.011z"/><path fill="#FF7C00" d="M196.88 9.361a31.235 31.235 0 0 1 13.395-5.251 48.502 48.502 0 0 1 14.32.06c.865.075 1.715.275 2.574.421l2.564.465c1.719.392 3.4.935 5.024 1.623a43.195 43.195 0 0 1 8.068 4.472 36.093 36.093 0 0 1 3.618 2.872 31.13 31.13 0 0 1 3.245 3.315 26.154 26.154 0 0 1 2.704 3.785c.411.655.736 1.363 1.082 2.055.346.693.622 1.423.854 2.164.233.74.438 1.487.644 2.239.205.751.308 1.524.362 2.298.17 1.544.17 3.101 0 4.645a23.952 23.952 0 0 1-2.315 7.874 21.735 21.735 0 0 1-5.013 6.457 24.087 24.087 0 0 1-9.166 5.062 22.416 22.416 0 0 1-10.394.698c-2.164-.422-1.758-.638.054-.611 2.964.032 5.92-.31 8.798-1.017a23.976 23.976 0 0 0 9.005-4.478 19.943 19.943 0 0 0 1.871-1.698c.292-.308.606-.59.871-.914l.8-.984a9.21 9.21 0 0 0 .735-1.022l.693-1.05.584-1.119.297-.54c.087-.19.157-.39.233-.585l.47-1.168c.146-.395.249-.81.379-1.217.132-.402.24-.812.324-1.227l.271-1.244c.283-1.671.376-3.37.275-5.062a21.222 21.222 0 0 0-3.201-9.599 31.3 31.3 0 0 0-8.81-8.923 41.358 41.358 0 0 0-5.532-3.245 36.309 36.309 0 0 0-5.949-2.309A60.599 60.599 0 0 0 216.651 4.9a36.23 36.23 0 0 0-13.725 2.595c-5.338 2.115-9.962 6.16-12.368 11.357a19.857 19.857 0 0 0-1.758 6.246l-.124 1.623c0 .54 0 1.081.032 1.622l.027.817c.027.27.076.54.114.805.081.541.146 1.082.238 1.623l.411 1.579c.075.26.124.54.221.784l.292.763c.201.503.368 1.027.595 1.52l.741 1.454c.125.238.233.492.379.72l.443.68.893 1.369 1.022 1.265c.329.434.691.843 1.081 1.222l.887.898c.286.308.591.597.914.865l1.942 1.623 2.076 1.4c.347.236.708.449 1.082.639l1.081.605a40.31 40.31 0 0 0 9.324 3.532l1.081.276.541.135c.226.056.445.136.654.238.409.215.761.525 1.028.903.233.34.434.703.6 1.081.584 1.336.925 2.418 1.26 3.32.335.904.59 1.623.811 2.229.325.815.578 1.656.758 2.515.043.28.129.638.129.816.033.595-1.319-1.303-2.833-5.137-.271-.703-.541-1.412-.822-2.12a10.197 10.197 0 0 0-.92-1.904 1.658 1.658 0 0 0-.589-.54.466.466 0 0 0-.168-.071l-.195-.06-.567-.145-2.277-.584a21.305 21.305 0 0 1-2.255-.704c-.747-.265-1.504-.497-2.239-.8a40.236 40.236 0 0 1-4.327-2.071 37.079 37.079 0 0 1-4.088-2.612l-1.887-1.563a9.299 9.299 0 0 1-.893-.838l-.865-.876a26.067 26.067 0 0 1-5.359-8.258 21.972 21.972 0 0 1-1.628-7.236 20.777 20.777 0 0 1 .876-7.355l.281-.887c.079-.3.186-.591.319-.87l.752-1.704c.276-.54.617-1.082.919-1.622.163-.265.303-.541.482-.795l.541-.747.54-.74c.175-.256.371-.496.584-.72l1.271-1.352c.211-.226.437-.437.676-.633l.703-.6a12.18 12.18 0 0 1 1.45-1.14l.065.026z"/><path fill="#FF7C00" d="m224.446 58.85-.816 1.432c-.103.173-.173.363-.287.541a21.794 21.794 0 0 1-1.249 1.752c-.195.254-.384.509-.584.763a2.75 2.75 0 0 1-.909.854c-.119.065-.216-.108-.254-.324a.75.75 0 0 1 .103-.617c.481-.54.919-1.179 1.411-1.806.271-.406.511-.83.72-1.27.265-.471.54-.947.784-1.434l.465-.892c.227-.46.47-.914.676-1.38.162-.362.265-.746.411-1.124.032-.081.054-.168.092-.249.151-.303.265-.357.541-.265.064.018.127.04.189.065a.42.42 0 0 1 .238.54 10.67 10.67 0 0 1-.773 1.986c-.233.486-.487.973-.741 1.465l-.017-.038zm8.158-36.299-2.802-.135h-1.022l-3.602-.216a13.504 13.504 0 0 0-1.622 0c-.68.045-1.363.025-2.039-.06-.422-.081.141-1.044.925-1.033 1.392.01 2.782.095 4.164.254.833.098 1.704.065 2.558.103l2.818.114 1.736.06c.876 0 1.757.048 2.622.026.676 0 1.336-.097 1.996-.173l.427-.054c.541-.049.671 0 .817.227a.734.734 0 0 0 .146.146c.086.07.103.179-.065.314a1.085 1.085 0 0 1-.481.232 17.772 17.772 0 0 1-3.786.309c-.946 0-1.893 0-2.834-.044l.044-.07zm-2.046 5.084-4.012-.125h-1.461c-1.719-.076-3.434-.178-5.153-.276a65.027 65.027 0 0 0-2.288-.08 14.793 14.793 0 0 1-2.947-.212.61.61 0 0 1-.222-.119.102.102 0 0 1 0-.14.839.839 0 0 1 .141-.13c.054-.043.102-.097.178-.151.37-.283.828-.423 1.293-.395 1.963.097 3.942.2 5.948.39 1.19.113 2.434.097 3.656.134l4.029.114 2.482.043c1.25 0 2.51 0 3.748-.043.963-.043 1.904-.157 2.839-.276l.617-.086c.768-.098.984-.087 1.206.14.054.048.105.1.151.157.135.179-.168.444-.752.584a27.443 27.443 0 0 1-5.359.54c-1.352.033-2.704 0-4.056 0l-.038-.07z"/><path fill="#1C1917" d="M149.428 21.826c-.973.044-1.941.082-2.915.141l-1.081.087-3.748.2c-.541.037-1.109.102-1.655.173-.351.043-.703.102-1.081.14a5.32 5.32 0 0 1-1.082.027c-.324-.043-.146-.292 0-.54a1.202 1.202 0 0 1 .871-.568 42.547 42.547 0 0 1 4.326-.254c.876 0 1.774-.125 2.666-.184l2.942-.173 1.812-.087c.914-.049 1.833-.07 2.742-.13.708-.032 1.4-.135 2.103-.178.157 0 .308-.038.465-.038.59 0 .774.07.882.34.03.062.055.125.075.19.044.21-.2.373-.611.427-1.222.157-2.514.227-3.823.308l-2.931.157.043-.038zm.973 3.386c-.708 0-1.417.049-2.131.086-.259 0-.513.054-.773.065-.914.049-1.828.076-2.742.135-.405.027-.811.087-1.211.146a6.427 6.427 0 0 1-1.541.174c-.33 0-.044-1.05.54-1.13a20.816 20.816 0 0 1 3.191-.195c.644 0 1.298-.098 1.952-.141l2.163-.114 1.331-.06c.67-.032 1.346-.042 2.012-.091.54-.032 1.022-.13 1.541-.173.113 0 .227-.033.341-.033.438 0 .573.065.648.341.022.06.038.121.049.184 0 .21-.151.373-.449.427-.922.148-1.852.243-2.785.287l-2.136.135v-.043zm2.229 3.915-1.163.043c-.146 0-.281.044-.422.05-.503 0-1.006 0-1.503.037a3.89 3.89 0 0 0-.66.092c-.276.094-.57.125-.86.092-.113-.027-.092-.287-.043-.541.049-.254.146-.54.297-.54a6.682 6.682 0 0 1 1.742-.055 6.47 6.47 0 0 0 1.081-.076l1.174-.064.724-.038a7.18 7.18 0 0 0 1.082-.092c.281-.038.541-.135.833-.2.062-.02.125-.035.189-.044.227-.038.368.044.384.314a.94.94 0 0 1 0 .184.534.534 0 0 1-.216.438 5.114 5.114 0 0 1-1.482.34c-.384.044-.773.066-1.163.098l.006-.038z"/><path fill="#FF7C00" d="M93.586 2.542a23.616 23.616 0 0 0-5.7-1.358l-.725-.097-.74-.038-1.472-.07-1.476.043h-.736l-.735.076A40.787 40.787 0 0 0 70.52 3.986a19.44 19.44 0 0 0-2.001.86c-.66.319-1.33.616-1.942.94-1.276.687-2.612 1.304-3.785 2.083a22.789 22.789 0 0 0-5.722 4.948 20.958 20.958 0 0 0-3.618 6.608c-1.622 4.819-1.352 10.151.282 14.959l.275.8c.084.27.187.534.309.79l.697 1.54c.112.261.244.512.395.753l.427.73.422.73.503.681.503.676.249.34c.086.109.189.206.28.315l1.147 1.233 1.26 1.081c.428.362.904.654 1.352.984.146.103.287.211.438.309l.471.27.93.54c.633.336 1.298.617 1.947.92.649.303 1.341.54 2.033.73.693.19 1.374.433 2.082.579a53.29 53.29 0 0 0 8.6 1.233c1.805.124 1.557.373 0 .54a27.467 27.467 0 0 1-16.338-3.73 19.744 19.744 0 0 1-6.49-6.49 25.832 25.832 0 0 1-3.326-8.529 24.336 24.336 0 0 1-.124-9.155c.092-.45.167-.904.27-1.358.103-.454.255-.887.384-1.335.065-.222.12-.45.2-.666l.255-.649c.173-.432.324-.876.54-1.297.39-.853.833-1.68 1.325-2.477.254-.395.482-.811.763-1.185l.854-1.125c2.331-2.974 5.538-5.207 8.848-6.83A51.71 51.71 0 0 1 76.62 1.006a38.108 38.108 0 0 1 6.051-.963L84.214 0h.768l.768.032 1.535.076 1.526.195a24.969 24.969 0 0 1 7.22 2.195 24.412 24.412 0 0 1 6.207 4.289 25.257 25.257 0 0 1 6.274 9.47 20.379 20.379 0 0 1 1.265 5.58 13.46 13.46 0 0 1-.119 2.872c-.073.472-.172.94-.297 1.4-.114.46-.228.92-.374 1.369a26.8 26.8 0 0 1-1.562 4.099 22.47 22.47 0 0 1-2.245 3.753 25.443 25.443 0 0 1-6.332 5.949 56.022 56.022 0 0 1-3.245 2.028 32.148 32.148 0 0 0-4.143 2.66 7.75 7.75 0 0 0-1.454 1.536c-.157.173-.255.465-.357.584-.103.12-.12.06-.125-.124 0-.128.01-.257.027-.384.045-.196.1-.39.168-.579a4.956 4.956 0 0 1 .979-1.454 11.168 11.168 0 0 1 1.85-1.504c2.162-1.45 4.472-2.65 6.548-4.19a23.005 23.005 0 0 0 8.869-12.504c.206-.627.357-1.276.541-1.92.078-.312.14-.628.184-.946.054-.313.087-.63.097-.947a14.9 14.9 0 0 0-.319-3.872A23.875 23.875 0 0 0 93.613 2.558l-.027-.016z"/><path fill="#FF7C00" d="m90.14 57.81.54 1.623a13.78 13.78 0 0 1-2.358-.508 7.036 7.036 0 0 1-.854-.34c-.227-.104-.444-.217-.665-.325-.417-.222-.838-.433-1.233-.687a16.102 16.102 0 0 1-3.688-3.294 10.05 10.05 0 0 1-1.233-1.855 4.266 4.266 0 0 1-.476-1.395 2.552 2.552 0 0 1 .194-1.487c.13-.292.282-.168.417.108.06.13.157.309.248.492.091.185.16.379.206.579.189.78.529 1.515 1 2.163.507.72 1.069 1.398 1.682 2.028a12.44 12.44 0 0 0 2.656 1.958c.505.302 1.029.57 1.568.806l.265.108.184.07.2.06.103.027h.06v-.038l-.482-1.552a21.73 21.73 0 0 1-.763-3.483 14.752 14.752 0 0 1-.178-2.764c.004-.204.018-.408.043-.61.108-.763.298-.969.59-1.082a1.08 1.08 0 0 1 .205-.06c.222 0 .33.32.32.839a19.36 19.36 0 0 0 .33 4.677c.118.584.259 1.169.432 1.758.08.292.173.59.265.882l.14.438c.092.286.206.578.308.865h-.026zM79.935 18.225H75.69l-1.547.054c-1.822 0-3.644.049-5.462.108a44.57 44.57 0 0 0-2.417.157 26.57 26.57 0 0 1-3.088.194c-.643 0 .092-1.081 1.282-1.146a68.761 68.761 0 0 1 6.343-.21c1.277 0 2.596-.087 3.894-.115a189.73 189.73 0 0 1 4.294-.048h2.644c1.33 0 2.672.043 3.997.06h3.742c.844.059 1.082.15 1.255.432.039.062.071.127.097.195.054.21-.303.357-.908.362-1.796 0-3.694 0-5.608-.027h-4.273v-.016zm.638 4.542-1.79-.06h-.654l-2.299-.08a9.254 9.254 0 0 0-1.022.049c-.428.077-.865.09-1.298.037-.275-.054.027-1.049.541-1.081.902-.061 1.807-.04 2.704.065.54.029 1.082.029 1.623 0l1.806.032 1.114.027c.54 0 1.125.033 1.687 0 .433 0 .86-.076 1.298-.108a2.37 2.37 0 0 1 .292 0c.357 0 .54.108.54.378a.943.943 0 0 1 0 .184.476.476 0 0 1-.394.395c-.77.12-1.55.177-2.33.168h-1.796l-.022-.006z"/><path fill="#1C1917" d="m21.855 45.6-2.601.692c-.32.081-.622.2-.941.276l-3.364.8a19.4 19.4 0 0 0-1.471.422 8.492 8.492 0 0 1-1.893.498c-.41.032-.2-1.18.514-1.385a34.324 34.324 0 0 1 3.883-.898 23.823 23.823 0 0 0 2.363-.627l2.601-.703c.541-.151 1.082-.297 1.59-.465.8-.243 1.623-.487 2.38-.784.6-.233 1.157-.541 1.725-.822l.362-.195c.465-.227.644-.222.882 0 .055.051.107.106.156.162.147.195.033.46-.297.682a14.222 14.222 0 0 1-3.282 1.53c-.855.308-1.731.568-2.596.833l-.011-.016zm-1.374 5.25-1.265.288c-.152.037-.292.102-.45.135l-1.621.313a5.293 5.293 0 0 0-.698.222c-.28.153-.59.238-.909.249-.205 0-.276-1.163.06-1.271a7.216 7.216 0 0 1 1.876-.362 6.34 6.34 0 0 0 1.136-.282l1.255-.302.762-.2a11.57 11.57 0 0 0 1.136-.368 5.16 5.16 0 0 0 .784-.465c.052-.041.106-.08.162-.114.2-.113.303-.076.492.173l.114.184a.432.432 0 0 1 0 .54 4.105 4.105 0 0 1-1.547.882c-.41.152-.838.265-1.254.39l-.033-.011z"/></svg>